<svg width="4514" height="881" viewBox="0 0 4514 881" fill="none" xmlns="http://www.w3.org/2000/svg">
<path d="M1272.39 635.228V473.303H1360.9L1444.16 635.228H1555.6L1469.72 458.217C1495.51 447.738 1515.83 429.596 1530.69 403.811C1545.55 378.025 1552.98 351.589 1552.98 324.482C1552.98 280.784 1540.63 245.162 1515.94 217.624C1491.24 190.095 1451.37 176.322 1396.29 176.322H1172.74V635.228H1272.39ZM1397.6 378.897H1272.39V270.727H1397.6C1415.97 270.727 1429.18 275.861 1437.27 286.139C1445.35 296.407 1449.4 309.185 1449.4 324.482C1449.4 360.765 1432.13 378.906 1397.61 378.906M1704.77 643.101C1758.1 643.101 1801.58 622.784 1835.23 582.142L1780.17 527.066C1760.5 550.668 1735.37 562.469 1704.77 562.469C1685.98 562.469 1670.46 557.334 1658.23 547.057C1645.99 536.798 1639.43 521.166 1638.56 500.189H1852.94C1854.69 488.829 1855.56 472.44 1855.56 451.022C1855.56 399.452 1841.57 360.113 1813.61 333.016C1785.63 305.918 1749.35 292.374 1704.77 292.374C1655.83 292.374 1617.04 308.102 1588.41 339.576C1559.78 371.042 1545.47 413.656 1545.47 467.411C1545.47 522.479 1559.67 565.533 1588.09 596.559C1616.49 627.593 1655.39 643.101 1704.77 643.101ZM1764.43 428.742H1639.22C1641.4 411.261 1647.96 397.602 1658.88 387.765C1669.8 377.937 1683.8 373.015 1700.84 373.015C1738.42 373.015 1759.62 391.596 1764.43 428.742ZM1990.96 643.118C2026.36 643.118 2054.1 632.198 2074.22 610.341V635.245H2168.62V423.476C2168.62 336.071 2121.2 292.365 2026.36 292.365C1971.73 292.365 1923.87 306.349 1882.78 334.319L1912.28 407.087C1947.68 383.485 1983.53 371.685 2019.81 371.685C2036.85 371.685 2050.17 375.736 2059.79 383.811C2069.41 391.905 2074.22 403.591 2074.22 418.888V437.249C2056.73 429.376 2032.26 425.448 2000.79 425.448C1964.51 425.448 1932.83 434.73 1905.73 453.303C1878.63 471.885 1865.08 498.436 1865.08 532.958C1865.08 568.36 1876.77 595.572 1900.16 614.585C1923.54 633.59 1953.8 643.101 1990.95 643.101M2009.3 563.12C1975.21 563.12 1958.16 553.284 1958.16 533.619C1958.16 512.201 1977.84 501.492 2017.17 501.492C2037.71 501.492 2056.73 504.117 2074.21 509.357V539.519C2054.54 555.247 2032.9 563.12 2009.3 563.12ZM2351.21 643.101C2427.26 643.101 2476.43 605.295 2498.71 529.682L2407.59 503.456C2397.54 535.803 2378.74 551.98 2351.21 551.98C2333.73 551.98 2319.3 544.213 2307.94 528.696C2296.58 513.187 2290.89 492.968 2290.89 468.054C2290.89 443.149 2296.69 422.824 2308.27 407.087C2319.85 391.358 2334.6 383.486 2352.52 383.486C2378.3 383.486 2396.67 397.91 2407.59 426.761L2498.06 397.259C2476.21 327.326 2427.26 292.365 2351.21 292.365C2304 292.365 2266.09 308.208 2237.46 339.893C2208.84 371.579 2194.52 414.308 2194.52 468.054C2194.52 522.69 2208.73 565.524 2237.14 596.55C2265.55 627.584 2303.57 643.101 2351.21 643.101ZM2630.18 643.101C2660.33 643.101 2685.69 638.081 2706.22 628.024L2716.71 548.044C2697.49 556.78 2678.25 561.148 2659.03 561.148C2653.78 561.148 2649.3 559.51 2645.58 556.234C2641.87 552.958 2640.02 548.255 2640.02 542.143V383.486H2712.78V300.229H2640.02V161.897L2545.61 207.136V300.229H2499.72V383.486H2545.6V551.32C2545.6 612.507 2573.8 643.101 2630.18 643.101ZM3150.1 688.331L3223.52 641.128L3188.11 589.346C3231.39 544.327 3253.02 483.14 3253.02 405.775C3253.02 376.062 3249.2 347.652 3241.54 320.554C3234.01 293.705 3222.4 268.169 3207.13 244.836C3191.83 221.446 3170.63 202.873 3143.54 189.109C3116.44 175.344 3085.19 168.457 3049.79 168.457C3020.94 168.457 2994.83 173.046 2971.45 182.222C2948.07 191.398 2928.73 203.745 2913.43 219.262C2898.13 234.779 2885.35 252.815 2875.08 273.352C2864.91 293.601 2857.42 315.087 2852.79 337.269C2848.15 359.811 2845.84 382.77 2845.9 405.784C2845.9 429.385 2848.19 452.211 2852.79 474.289C2857.41 496.471 2864.9 517.957 2875.07 538.207C2885.35 558.743 2898.13 576.779 2913.43 592.287C2928.73 607.804 2948.07 620.151 2971.45 629.327C2994.83 638.513 3020.94 643.101 3049.79 643.101C3071.27 643.149 3092.66 640.281 3113.37 634.576L3150.1 688.331ZM3049.79 546.723C3031.87 546.723 3016.13 542.469 3002.59 533.944C2989.22 525.619 2978.35 513.842 2971.12 499.854C2963.7 485.672 2958.19 470.57 2954.73 454.941C2951.19 438.794 2949.43 422.306 2949.48 405.775C2949.48 383.054 2952.33 361.522 2958.01 341.206C2963.69 320.88 2974.5 302.959 2990.46 287.442C3006.41 271.934 3026.19 264.175 3049.79 264.175C3073.39 264.175 3093.06 271.713 3108.79 286.79C3124.52 301.867 3135.23 319.568 3140.91 339.893C3146.6 360.219 3149.44 382.173 3149.44 405.775C3149.44 444.242 3142.44 475.267 3128.46 498.868L3091.74 443.801L3017.66 491.656L3055.03 546.08H3051.75L3049.79 546.723ZM3396.94 643.101C3437.14 643.101 3467.75 630.208 3488.72 604.423V635.228H3583.78V300.229H3488.72V475.918C3488.72 501.713 3484.02 520.726 3474.63 532.958C3465.23 545.199 3450.48 551.32 3430.37 551.32C3410.27 551.32 3396.29 545.199 3388.42 532.958C3380.55 520.717 3376.62 501.272 3376.62 474.615V300.229H3281.56V517.881C3281.56 540.602 3285.17 560.496 3292.37 577.536C3299.59 594.586 3309.09 607.699 3320.89 616.875C3332.69 626.051 3344.93 632.727 3357.6 636.866C3370.28 641.023 3383.39 643.101 3396.94 643.101ZM3775.56 643.101C3828.87 643.101 3872.36 622.776 3906.02 582.133L3850.95 527.058C3831.28 550.659 3806.15 562.46 3775.56 562.46C3756.77 562.46 3741.25 557.326 3729.01 547.048C3716.77 536.789 3710.21 521.157 3709.34 500.18H3923.72C3925.46 488.82 3926.34 472.431 3926.34 451.014C3926.34 399.443 3912.36 360.104 3884.38 333.007C3856.41 305.909 3820.14 292.365 3775.56 292.365C3726.6 292.365 3687.82 308.093 3659.19 339.568C3630.57 371.033 3616.25 413.648 3616.25 467.403C3616.25 522.47 3630.45 565.524 3658.86 596.55C3687.27 627.584 3726.17 643.101 3775.55 643.101M3835.21 428.724H3709.99C3712.18 411.244 3718.73 397.585 3729.66 387.748C3740.58 377.92 3754.57 372.997 3771.61 372.997C3809.2 372.997 3830.4 391.579 3835.21 428.724ZM4050.59 635.237V453.629C4050.59 407.298 4069.81 384.137 4108.27 384.137C4129.69 384.137 4149.57 391.781 4167.93 407.078L4180.39 320.546C4162.47 301.752 4140.39 292.356 4114.17 292.356C4098.88 292.356 4085.55 296.504 4074.19 304.808C4062.83 313.113 4054.95 321.629 4050.59 330.374V300.22H3955.52V635.219L4050.59 635.237ZM4335.45 762.411L4513.78 300.229H4416.1L4348.57 479.203C4343.76 492.316 4340.27 502.805 4338.09 510.669C4335.9 502.805 4332.4 492.316 4327.59 479.203L4259.41 300.229H4161.08L4287.6 631.3L4237.12 762.411H4335.45Z" fill="#00435B"/>
<path d="M606.568 547.438L587.722 580.163C584.932 585.006 580.915 589.029 576.076 591.825C571.237 594.622 565.746 596.094 560.157 596.094H415.784C410.194 596.094 404.703 594.62 399.864 591.822C395.024 589.023 391.008 584.999 388.219 580.154L369.374 547.438H606.568ZM659.318 455.824L626.092 513.524H349.85L316.614 455.824H659.318ZM627.316 366.245L659.371 421.919H316.57L348.634 366.245H627.316ZM560.157 281.553C571.527 281.553 582.041 287.629 587.722 297.492L607.783 332.331H368.158L388.219 297.492C391.008 292.648 395.024 288.624 399.864 285.825C404.703 283.027 410.194 281.553 415.784 281.553H560.157Z" fill="#00435B"/>
<path d="M205.67 266.37C189.677 188.82 186.243 129.341 196.582 86.1541C202.729 60.4656 213.974 39.515 231.068 24.3942C249.112 8.43686 271.93 0.599079 297.557 0.599079C339.846 0.599079 384.301 19.8853 431.812 56.5203C451.186 71.4649 471.3 89.4742 492.189 110.566C493.845 108.426 495.729 106.4 497.825 104.533C556.864 51.9145 606.585 19.216 649.103 6.61391C674.378 -0.880411 698.12 -1.59374 719.731 5.68042C742.558 13.3597 760.734 29.229 773.565 51.4654C794.736 88.162 800.319 136.378 792.429 195.909C789.206 220.18 783.71 246.608 775.934 275.256C778.867 275.608 781.808 276.251 784.714 277.22C859.64 302.054 912.69 328.747 944.816 359.261C963.926 377.411 976.405 397.622 980.914 419.999C985.67 443.61 981.029 467.29 968.215 489.518C947.088 526.153 908.243 555.056 852.885 577.944C830.658 587.138 805.506 595.46 777.414 602.945C778.699 605.843 779.695 608.916 780.355 612.139C796.348 689.689 799.782 749.168 789.443 792.355C783.296 818.044 772.059 838.995 754.966 854.115C736.921 870.073 714.104 877.91 688.477 877.91C646.188 877.91 601.733 858.624 554.222 821.989C534.636 806.886 514.302 788.648 493.175 767.274C491.009 770.674 488.332 773.835 485.179 776.645C426.132 829.263 376.419 861.962 333.884 874.573C308.609 882.058 284.867 882.78 263.256 875.506C240.438 867.827 222.253 851.949 209.422 829.712C188.26 793.025 182.676 744.809 190.567 685.277C193.896 660.126 199.682 632.658 207.907 602.813C204.63 602.481 201.399 601.79 198.273 600.753C123.347 575.918 70.2966 549.235 38.1793 518.711C19.0692 500.561 6.59043 480.35 2.0727 457.973C-2.68281 434.363 1.95821 410.682 14.7717 388.455C35.9072 351.82 74.7527 322.917 130.11 300.037C152.99 290.562 178.986 282.019 208.092 274.358C207.038 271.776 206.224 269.102 205.661 266.37" fill="#002B3B"/>
<path d="M728.096 619.766C731.671 619.133 735.352 619.899 738.376 621.905C741.401 623.912 743.538 627.006 744.344 630.545L744.432 630.985L745.225 635.098C770.984 770.489 752.843 838.176 690.81 838.176C630.124 838.176 552.865 780.423 459.032 664.89C457.369 662.837 456.315 660.358 455.989 657.736C455.663 655.114 456.079 652.453 457.188 650.055C458.297 647.656 460.056 645.617 462.265 644.167C464.475 642.717 467.046 641.916 469.687 641.853H470.128L475.077 641.879C514.556 642.09 552.935 640.717 590.222 637.749C634.237 634.244 680.189 628.255 728.096 619.766ZM302.091 517.426L302.329 517.822L304.803 522.155C324.107 555.8 344.827 588.613 366.907 620.506C392.27 657.044 420.776 694.031 452.453 731.467C454.805 734.246 455.994 737.825 455.773 741.459C455.551 745.093 453.936 748.501 451.264 750.974L450.912 751.3L447.715 754.039C342.918 843.83 274.809 861.76 243.378 807.82C212.608 755.016 223.766 659.008 276.843 519.795C277.782 517.328 279.393 515.174 281.493 513.575C283.594 511.977 286.1 510.999 288.727 510.751C291.355 510.504 294 510.997 296.361 512.175C298.723 513.353 300.708 515.178 302.091 517.426ZM781.279 317.642L781.701 317.783L785.647 319.139C915.005 364.14 964.154 413.588 933.085 467.493C902.703 520.209 814.373 558.596 668.115 582.647C665.464 583.084 662.742 582.755 660.271 581.701C657.799 580.646 655.679 578.909 654.159 576.693C652.64 574.476 651.784 571.872 651.691 569.187C651.599 566.501 652.274 563.844 653.637 561.529C674.044 526.912 692.928 491.42 710.237 455.155C729.276 415.147 747.136 372.198 763.833 326.316C765.045 322.98 767.468 320.222 770.62 318.591C773.773 316.959 777.423 316.573 780.847 317.51L781.279 317.642ZM324.354 294.991C331.082 298.954 333.337 307.611 329.374 314.339C308.967 348.959 290.083 384.454 272.774 420.722C253.735 460.73 235.866 503.679 219.169 549.561C217.929 552.966 215.428 555.766 212.183 557.38C208.938 558.995 205.197 559.301 201.732 558.235L201.301 558.094L197.356 556.729C68.0058 511.728 18.8568 462.288 49.9261 408.384C80.3085 355.659 168.629 317.272 314.896 293.23C318.154 292.702 321.501 293.318 324.354 294.991ZM739.633 73.3673C770.394 126.171 759.245 222.171 706.168 361.384C705.229 363.85 703.618 366.005 701.518 367.603C699.417 369.201 696.911 370.18 694.284 370.427C691.656 370.675 689.011 370.181 686.65 369.003C684.288 367.825 682.303 366.009 680.92 363.761L680.682 363.356L678.199 359.032C658.898 325.387 638.181 292.574 616.104 260.681C590.741 224.134 562.226 187.147 530.558 149.711C528.205 146.933 527.014 143.355 527.234 139.721C527.454 136.087 529.067 132.678 531.738 130.204L532.099 129.887L535.287 127.14C640.084 37.3488 708.211 19.4364 739.633 73.3673ZM297.494 41.2324C358.188 41.2324 435.448 99.003 529.281 214.518C530.946 216.572 532.003 219.052 532.33 221.676C532.656 224.301 532.241 226.964 531.13 229.364C530.02 231.764 528.258 233.805 526.046 235.255C523.834 236.704 521.26 237.504 518.616 237.564H518.176L513.236 237.538C473.756 237.318 435.369 238.7 398.082 241.668C354.076 245.164 308.115 251.162 260.207 259.651C256.633 260.284 252.952 259.518 249.927 257.512C246.902 255.505 244.765 252.411 243.959 248.872L243.871 248.432L243.079 244.31C217.32 108.928 235.452 41.2324 297.494 41.2324Z" fill="#FF4154"/>
<path d="M427.389 283.323H548.575C557.283 283.323 565.836 285.621 573.371 289.984C580.906 294.348 587.156 300.623 591.489 308.175L652.342 414.205C656.642 421.699 658.905 430.188 658.905 438.828C658.905 447.468 656.642 455.957 652.342 463.451L591.489 569.481C587.155 577.032 580.904 583.305 573.369 587.667C565.834 592.029 557.282 594.326 548.575 594.324H427.398C418.69 594.327 410.136 592.032 402.599 587.669C395.063 583.307 388.811 577.033 384.475 569.481L323.631 463.451C319.33 455.956 317.066 447.465 317.066 438.824C317.066 430.182 319.33 421.691 323.631 414.196L384.484 308.166C388.818 300.617 395.067 294.345 402.6 289.983C410.134 285.621 418.684 283.324 427.389 283.323ZM530.108 315.326C538.819 315.326 547.375 317.626 554.912 321.992C562.449 326.359 568.699 332.639 573.031 340.196L615.461 414.223C619.754 421.713 622.013 430.195 622.013 438.828C622.013 447.461 619.754 455.944 615.461 463.434L573.031 537.452C568.7 545.011 562.45 551.292 554.913 555.66C547.376 560.029 538.82 562.33 530.108 562.33H445.865C437.152 562.331 428.594 560.031 421.055 555.662C413.517 551.294 407.265 545.012 402.934 537.452L360.504 463.434C356.211 455.944 353.952 447.461 353.952 438.828C353.952 430.195 356.211 421.713 360.504 414.223L402.934 340.196C407.268 332.639 413.52 326.361 421.058 321.995C428.597 317.63 437.154 315.332 445.865 315.335L530.108 315.326ZM510.206 350.323H465.768C457.065 350.324 448.517 352.621 440.986 356.981C433.454 361.341 427.206 367.611 422.872 375.157L400.45 414.17C396.139 421.671 393.87 430.172 393.87 438.824C393.87 447.476 396.139 455.976 400.45 463.478L422.872 502.49C427.206 510.037 433.454 516.307 440.986 520.667C448.517 525.027 457.065 527.324 465.768 527.325H510.197C518.901 527.325 527.451 525.029 534.984 520.669C542.517 516.309 548.767 510.038 553.102 502.49L575.523 463.478C579.833 455.977 582.101 447.478 582.101 438.828C582.101 430.178 579.833 421.679 575.523 414.179L553.102 375.149C548.766 367.602 542.516 361.334 534.983 356.975C527.45 352.616 518.909 350.322 510.206 350.323ZM491.025 383.823C499.721 383.823 508.264 386.116 515.791 390.47C523.319 394.824 529.567 401.085 533.904 408.622L537.083 414.144C541.404 421.651 543.678 430.162 543.678 438.824C543.678 447.486 541.404 455.997 537.083 463.504L533.904 469.026C529.566 476.564 523.317 482.826 515.788 487.18C508.258 491.534 499.714 493.826 491.016 493.825H484.931C476.233 493.826 467.689 491.534 460.16 487.18C452.63 482.826 446.381 476.564 442.043 469.026L438.873 463.504C434.552 455.997 432.278 447.486 432.278 438.824C432.278 430.162 434.552 421.651 438.873 414.144L442.043 408.622C446.381 401.083 452.63 394.821 460.16 390.468C467.689 386.114 476.233 383.822 484.931 383.823H491.025ZM487.987 416.821C484.123 416.82 480.327 417.835 476.981 419.765C473.634 421.696 470.854 424.472 468.92 427.817C466.986 431.162 465.967 434.957 465.964 438.82C465.961 442.684 466.974 446.48 468.903 449.828C471.885 454.754 476.679 458.316 482.256 459.75C487.834 461.183 493.751 460.374 498.739 457.497C503.727 454.619 507.389 449.901 508.94 444.355C510.491 438.809 509.807 432.877 507.035 427.829C505.104 424.485 502.328 421.707 498.985 419.775C495.641 417.843 491.848 416.824 487.987 416.821ZM309.488 438.828H349.1H309.488Z" fill="#FFD94C"/>
</svg>
