<svg width="4496" height="881" viewBox="0 0 4496 881" fill="none" xmlns="http://www.w3.org/2000/svg">
<path d="M1253.73 635.495V473.57H1342.23L1425.49 635.495H1536.94L1451.06 458.485C1476.84 448.005 1497.17 429.863 1512.02 404.078C1526.89 378.292 1534.31 351.856 1534.31 324.749C1534.31 281.051 1521.97 245.429 1497.27 217.891C1472.58 190.362 1432.7 176.589 1377.63 176.589H1154.08V635.495H1253.73ZM1378.94 379.164H1253.73V270.994H1378.94C1397.3 270.994 1410.52 276.128 1418.6 286.406C1426.69 296.674 1430.73 309.452 1430.73 324.749C1430.73 361.032 1413.47 379.173 1378.95 379.173M1686.11 643.368C1739.43 643.368 1782.92 623.051 1816.57 582.409L1761.5 527.334C1741.84 550.935 1716.7 562.736 1686.11 562.736C1667.32 562.736 1651.8 557.602 1639.57 547.324C1627.33 537.065 1620.77 521.433 1619.89 500.456H1834.27C1836.02 489.096 1836.9 472.707 1836.9 451.29C1836.9 399.719 1822.91 360.38 1794.94 333.283C1766.96 306.185 1730.69 292.641 1686.11 292.641C1637.16 292.641 1598.37 308.369 1569.74 339.843C1541.12 371.309 1526.8 413.923 1526.8 467.678C1526.8 522.746 1541.01 565.8 1569.42 596.826C1597.83 627.86 1636.72 643.368 1686.11 643.368ZM1745.77 429.009H1620.56C1622.74 411.528 1629.29 397.869 1640.22 388.033C1651.14 378.205 1665.13 373.282 1682.17 373.282C1719.76 373.282 1740.96 391.863 1745.77 429.009ZM1972.3 643.386C2007.7 643.386 2035.44 632.466 2055.55 610.608V635.513H2149.96V423.743C2149.96 336.338 2102.53 292.632 2007.7 292.632C1953.06 292.632 1905.21 306.616 1864.12 334.586L1893.62 407.354C1929.02 383.752 1964.86 371.952 2001.15 371.952C2018.19 371.952 2031.51 376.003 2041.13 384.078C2050.74 392.172 2055.55 403.858 2055.55 419.155V437.516C2038.07 429.643 2013.6 425.716 1982.12 425.716C1945.85 425.716 1914.16 434.998 1887.07 453.57C1859.97 472.152 1846.42 498.704 1846.42 533.225C1846.42 568.627 1858.11 595.839 1881.49 614.853C1904.87 633.857 1935.14 643.368 1972.29 643.368M1990.64 563.387C1956.55 563.387 1939.5 553.551 1939.5 533.886C1939.5 512.468 1959.17 501.76 1998.5 501.76C2019.05 501.76 2038.06 504.384 2055.54 509.624V539.786C2035.88 555.514 2014.24 563.387 1990.64 563.387ZM2332.54 643.368C2408.59 643.368 2457.76 605.562 2480.05 529.949L2388.92 503.723C2378.87 536.07 2360.08 552.247 2332.54 552.247C2315.06 552.247 2300.64 544.48 2289.28 528.963C2277.92 513.455 2272.23 493.235 2272.23 468.321C2272.23 443.416 2278.02 423.091 2289.6 407.354C2301.18 391.626 2315.93 383.753 2333.85 383.753C2359.64 383.753 2378 398.178 2388.92 427.028L2479.4 397.526C2457.54 327.593 2408.59 292.632 2332.54 292.632C2285.34 292.632 2247.43 308.475 2218.8 340.16C2190.18 371.846 2175.86 414.575 2175.86 468.321C2175.86 522.957 2190.06 565.791 2218.48 596.817C2246.88 627.851 2284.91 643.368 2332.54 643.368ZM2611.51 643.368C2641.67 643.368 2667.02 638.348 2687.56 628.291L2698.05 548.311C2678.82 557.047 2659.59 561.415 2640.36 561.415C2635.12 561.415 2630.63 559.777 2626.92 556.501C2623.21 553.225 2621.35 548.522 2621.35 542.41V383.753H2694.12V300.496H2621.35V162.164L2526.95 207.403V300.496H2481.05V383.753H2526.94V551.587C2526.94 612.774 2555.14 643.368 2611.51 643.368ZM3131.43 688.598L3204.85 641.395L3169.45 589.613C3212.72 544.594 3234.35 483.407 3234.35 406.042C3234.35 376.329 3230.53 347.919 3222.88 320.821C3215.34 293.972 3203.74 268.436 3188.46 245.103C3173.17 221.713 3151.97 203.14 3124.88 189.376C3097.77 175.611 3066.53 168.725 3031.13 168.725C3002.28 168.725 2976.16 173.313 2952.78 182.489C2929.4 191.665 2910.06 204.012 2894.77 219.529C2879.47 235.046 2866.68 253.082 2856.41 273.619C2846.24 293.868 2838.75 315.354 2834.12 337.536C2829.49 360.078 2827.18 383.037 2827.24 406.051C2827.24 429.652 2829.53 452.478 2834.12 474.556C2838.75 496.738 2846.24 518.224 2856.41 538.474C2866.68 559.011 2879.47 577.046 2894.77 592.554C2910.06 608.072 2929.4 620.418 2952.78 629.595C2976.16 638.78 3002.28 643.368 3031.13 643.368C3052.61 643.416 3074 640.548 3094.71 634.843L3131.43 688.598ZM3031.13 546.99C3013.2 546.99 2997.47 542.736 2983.92 534.211C2970.56 525.887 2959.69 514.109 2952.46 500.122C2945.04 485.939 2939.53 470.837 2936.07 455.208C2932.53 439.061 2930.77 422.573 2930.82 406.042C2930.82 383.321 2933.66 361.789 2939.34 341.473C2945.02 321.147 2955.84 303.226 2971.8 287.709C2987.75 272.201 3007.52 264.442 3031.13 264.442C3054.73 264.442 3074.39 271.981 3090.13 287.057C3105.86 302.134 3116.57 319.835 3122.25 340.16C3127.94 360.486 3130.77 382.44 3130.77 406.042C3130.77 444.509 3123.78 475.534 3109.79 499.135L3073.08 444.068L2999 491.923L3036.37 546.347H3033.09L3031.13 546.99ZM3378.28 643.368C3418.48 643.368 3449.08 630.475 3470.06 604.69V635.495H3565.12V300.496H3470.06V476.186C3470.06 501.98 3465.36 520.993 3455.97 533.225C3446.56 545.466 3431.81 551.587 3411.71 551.587C3391.6 551.587 3377.63 545.466 3369.75 533.225C3361.89 520.984 3357.95 501.54 3357.95 474.882V300.496H3262.89V518.148C3262.89 540.869 3266.51 560.763 3273.71 577.804C3280.92 594.853 3290.42 607.966 3302.23 617.142C3314.03 626.319 3326.27 632.994 3338.94 637.133C3351.62 641.29 3364.72 643.368 3378.28 643.368ZM3756.9 643.368C3810.21 643.368 3853.7 623.043 3887.35 582.401L3832.29 527.325C3812.61 550.926 3787.49 562.727 3756.9 562.727C3738.1 562.727 3722.58 557.593 3710.34 547.316C3698.1 537.056 3691.55 521.425 3690.68 500.447H3905.06C3906.8 489.087 3907.68 472.698 3907.68 451.281C3907.68 399.71 3893.7 360.371 3865.72 333.274C3837.75 306.176 3801.47 292.632 3756.9 292.632C3707.94 292.632 3669.16 308.36 3640.53 339.835C3611.9 371.3 3597.59 413.915 3597.59 467.67C3597.59 522.737 3611.79 565.791 3640.2 596.817C3668.61 627.851 3707.51 643.368 3756.89 643.368M3816.54 428.992H3691.32C3693.51 411.511 3700.07 397.852 3711 388.015C3721.92 378.187 3735.91 373.264 3752.95 373.264C3790.54 373.264 3811.73 391.846 3816.54 428.992ZM4031.92 635.504V453.896C4031.92 407.565 4051.15 384.404 4089.6 384.404C4111.03 384.404 4130.91 392.048 4149.27 407.345L4161.73 320.813C4143.81 302.02 4121.73 292.623 4095.5 292.623C4080.22 292.623 4066.88 296.771 4055.52 305.075C4044.16 313.38 4036.29 321.896 4031.92 330.641V300.487H3936.86V635.486L4031.92 635.504ZM4316.79 762.678L4495.12 300.496H4397.43L4329.91 479.47C4325.1 492.583 4321.6 503.072 4319.43 510.936C4317.23 503.072 4313.74 492.583 4308.93 479.47L4240.75 300.496H4142.42L4268.94 631.567L4218.46 762.678H4316.79Z" fill="#00435B"/>
<path d="M607.291 547.706L588.445 580.431C585.655 585.274 581.639 589.296 576.8 592.093C571.961 594.89 566.47 596.362 560.881 596.362H416.507C410.917 596.361 405.426 594.887 400.587 592.089C395.748 589.291 391.732 585.267 388.943 580.422L370.097 547.706H607.291ZM660.042 456.092L626.815 513.792H350.573L317.337 456.092H660.042ZM628.039 366.512L660.095 422.187H317.293L349.358 366.512H628.039ZM560.881 281.82C572.25 281.82 582.765 287.897 588.445 297.76L608.506 332.599H368.882L388.943 297.76C391.732 292.915 395.748 288.891 400.587 286.093C405.426 283.295 410.917 281.821 416.507 281.82H560.881Z" fill="#00435B"/>
<path d="M206.393 266.638C190.401 189.088 186.966 129.609 197.305 86.4217C203.452 60.7332 214.698 39.7825 231.791 24.6618C249.836 8.70443 272.653 0.866657 298.28 0.866657C340.569 0.866657 385.024 20.1529 432.535 56.7879C451.909 71.7325 472.023 89.7418 492.912 110.833C494.568 108.693 496.453 106.668 498.549 104.801C557.587 52.1821 607.309 19.4836 649.827 6.88149C675.101 -0.612833 698.843 -1.32616 720.455 5.948C743.281 13.6273 761.458 29.4966 774.289 51.7329C795.459 88.4296 801.043 136.645 793.152 196.177C789.929 220.448 784.434 246.876 776.658 275.523C779.59 275.876 782.532 276.519 785.438 277.487C860.363 302.322 913.414 329.014 945.54 359.529C964.65 377.679 977.129 397.89 981.637 420.267C986.393 443.877 981.752 467.558 968.938 489.785C947.812 526.42 908.966 555.323 853.609 578.211C831.381 587.405 806.23 595.727 778.137 603.213C779.423 606.11 780.418 609.184 781.078 612.407C797.071 689.957 800.506 749.436 790.167 792.623C784.02 818.311 772.783 839.262 755.689 854.383C737.645 870.34 714.827 878.178 689.2 878.178C646.912 878.178 602.456 858.892 554.945 822.257C535.36 807.154 515.026 788.915 493.899 767.542C491.732 770.941 489.055 774.103 485.903 776.912C426.855 829.531 377.142 862.229 334.607 874.84C309.332 882.326 285.59 883.048 263.979 875.774C241.161 868.095 222.976 852.216 210.145 829.98C188.983 793.292 183.4 745.077 191.29 685.545C194.619 660.393 200.405 632.926 208.63 603.081C205.353 602.748 202.122 602.057 198.996 601.02C124.07 576.186 71.02 549.502 38.9027 518.979C19.7926 500.829 7.31382 480.618 2.79609 458.241C-1.95942 434.63 2.6816 410.95 15.495 388.722C36.6306 352.087 75.476 323.184 130.834 300.305C153.713 290.829 179.71 282.287 208.815 274.625C207.761 272.043 206.947 269.369 206.385 266.638" fill="#002B3B"/>
<path d="M728.82 620.034C732.394 619.4 736.075 620.166 739.1 622.173C742.125 624.18 744.262 627.273 745.068 630.813L745.156 631.253L745.949 635.366C771.708 770.757 753.566 838.443 691.533 838.443C630.848 838.443 553.588 780.69 459.755 665.158C458.093 663.104 457.039 660.626 456.713 658.004C456.387 655.381 456.802 652.72 457.912 650.322C459.021 647.924 460.78 645.884 462.989 644.435C465.198 642.985 467.769 642.183 470.411 642.12H470.851L475.801 642.147C515.28 642.358 553.659 640.984 590.945 638.016C634.96 634.511 680.913 628.523 728.82 620.034ZM302.815 517.693L303.053 518.09L305.527 522.422C324.831 556.068 345.55 588.881 367.63 620.773C392.993 657.311 421.5 694.299 453.177 731.735C455.529 734.514 456.718 738.093 456.497 741.727C456.275 745.361 454.66 748.769 451.988 751.241L451.636 751.567L448.439 754.306C343.642 844.097 275.532 862.027 244.102 808.087C213.332 755.284 224.49 659.275 277.567 520.062C278.506 517.596 280.116 515.441 282.217 513.843C284.317 512.245 286.823 511.266 289.451 511.019C292.079 510.771 294.723 511.265 297.085 512.443C299.447 513.621 301.432 515.445 302.815 517.693ZM782.002 317.909L782.425 318.05L786.37 319.406C915.729 364.408 964.878 413.856 933.809 467.761C903.426 520.476 815.097 558.864 668.839 582.914C666.187 583.351 663.466 583.023 660.994 581.968C658.523 580.914 656.403 579.177 654.883 576.96C653.364 574.744 652.507 572.14 652.415 569.454C652.322 566.768 652.998 564.112 654.361 561.796C674.767 527.179 693.652 491.688 710.96 455.423C730 415.415 747.86 372.466 764.557 326.584C765.769 323.248 768.192 320.49 771.344 318.858C774.496 317.226 778.147 316.841 781.571 317.777L782.002 317.909ZM325.078 295.259C331.806 299.222 334.06 307.879 330.097 314.607C309.691 349.227 290.806 384.721 273.498 420.989C254.458 460.997 236.59 503.946 219.893 549.828C218.653 553.234 216.152 556.033 212.907 557.648C209.662 559.262 205.92 559.568 202.456 558.503L202.024 558.362L198.079 556.997C68.7294 511.996 19.5804 462.556 50.6497 408.651C81.0321 355.927 169.352 317.539 315.619 293.498C318.878 292.969 322.224 293.586 325.078 295.259ZM740.356 73.6349C771.117 126.439 759.968 222.438 706.892 361.651C705.953 364.118 704.342 366.272 702.241 367.871C700.141 369.469 697.635 370.447 695.007 370.695C692.38 370.942 689.735 370.449 687.373 369.271C685.011 368.093 683.027 366.277 681.644 364.029L681.406 363.624L678.922 359.3C659.622 325.654 638.905 292.841 616.828 260.949C591.465 224.402 562.95 187.415 531.281 149.978C528.928 147.201 527.738 143.622 527.957 139.988C528.177 136.355 529.791 132.946 532.462 130.472L532.823 130.155L536.011 127.407C640.808 37.6163 708.935 19.7039 740.356 73.6349ZM298.218 41.5C358.912 41.5 436.171 99.2706 530.005 214.785C531.67 216.84 532.726 219.32 533.053 221.944C533.38 224.568 532.965 227.232 531.854 229.632C530.743 232.032 528.982 234.073 526.77 235.522C524.558 236.972 521.984 237.772 519.34 237.832H518.9L513.959 237.805C474.48 237.585 436.092 238.968 398.805 241.936C354.799 245.432 308.838 251.429 260.931 259.919C257.357 260.552 253.676 259.786 250.651 257.779C247.626 255.772 245.489 252.679 244.683 249.139L244.595 248.699L243.802 244.578C218.043 109.195 236.176 41.5 298.218 41.5Z" fill="#FF4154"/>
<path d="M428.113 283.591H549.299C558.006 283.591 566.559 285.888 574.094 290.252C581.629 294.615 587.879 300.89 592.213 308.443L653.066 414.473C657.366 421.967 659.628 430.456 659.628 439.096C659.628 447.736 657.366 456.225 653.066 463.719L592.213 569.749C587.878 577.3 581.628 583.573 574.093 587.935C566.558 592.297 558.005 594.593 549.299 594.592H428.122C419.414 594.595 410.859 592.299 403.323 587.937C395.786 583.575 389.534 577.301 385.199 569.749L324.355 463.719C320.053 456.224 317.79 447.733 317.79 439.091C317.79 430.45 320.053 421.959 324.355 414.464L385.208 308.434C389.541 300.884 395.79 294.612 403.324 290.25C410.857 285.888 419.408 283.591 428.113 283.591ZM530.832 315.594C539.542 315.594 548.098 317.893 555.635 322.26C563.172 326.627 569.422 332.906 573.754 340.463L616.184 414.491C620.478 421.98 622.737 430.463 622.737 439.096C622.737 447.729 620.478 456.212 616.184 463.701L573.754 537.72C569.424 545.278 563.174 551.559 555.637 555.928C548.1 560.296 539.543 562.597 530.832 562.598H446.589C437.876 562.599 429.317 560.299 421.779 555.93C414.24 551.561 407.989 545.28 403.657 537.72L361.227 463.701C356.934 456.212 354.675 447.729 354.675 439.096C354.675 430.463 356.934 421.98 361.227 414.491L403.657 340.463C407.991 332.907 414.243 326.628 421.782 322.263C429.32 317.897 437.878 315.6 446.589 315.602L530.832 315.594ZM510.929 350.591H466.491C457.789 350.592 449.24 352.888 441.709 357.248C434.177 361.609 427.929 367.878 423.595 375.425L401.174 414.438C396.862 421.939 394.593 430.44 394.593 439.091C394.593 447.743 396.862 456.244 401.174 463.745L423.595 502.758C427.929 510.304 434.177 516.574 441.709 520.934C449.24 525.295 457.789 527.591 466.491 527.592H510.92C519.624 527.593 528.174 525.297 535.708 520.937C543.241 516.576 549.49 510.306 553.825 502.758L576.247 463.745C580.556 456.245 582.824 447.746 582.824 439.096C582.824 430.446 580.556 421.947 576.247 414.446L553.825 375.416C549.489 367.87 543.239 361.601 535.706 357.242C528.173 352.884 519.632 350.589 510.929 350.591ZM491.748 384.09C500.445 384.091 508.987 386.384 516.515 390.737C524.043 395.091 530.29 401.352 534.627 408.89L537.806 414.411C542.127 421.919 544.402 430.429 544.402 439.091C544.402 447.754 542.127 456.264 537.806 463.772L534.627 469.293C530.289 476.832 524.04 483.094 516.511 487.448C508.981 491.801 500.437 494.093 491.74 494.092H485.654C476.957 494.093 468.412 491.801 460.883 487.448C453.353 483.094 447.105 476.832 442.767 469.293L439.596 463.772C435.275 456.264 433.001 447.754 433.001 439.091C433.001 430.429 435.275 421.919 439.596 414.411L442.767 408.89C447.105 401.351 453.353 395.089 460.883 390.735C468.412 386.381 476.957 384.089 485.654 384.09H491.748ZM488.71 417.088C484.847 417.087 481.051 418.103 477.704 420.033C474.357 421.963 471.577 424.74 469.643 428.085C467.71 431.429 466.69 435.224 466.687 439.088C466.684 442.951 467.698 446.747 469.626 450.095C472.609 455.022 477.402 458.583 482.98 460.017C488.557 461.451 494.474 460.642 499.463 457.764C504.451 454.887 508.113 450.169 509.664 444.623C511.214 439.077 510.531 433.144 507.759 428.097C505.828 424.752 503.051 421.975 499.708 420.043C496.365 418.11 492.572 417.092 488.71 417.088ZM310.211 439.096H349.823Z" fill="#FFD94C"/>
</svg>
