<svg width="1175" height="881" viewBox="0 0 1175 881" fill="none" xmlns="http://www.w3.org/2000/svg">
<path d="M1011.13 506.078C970.196 506.292 934.617 516.152 904.825 530.726C893.894 509.079 882.963 489.789 881.034 475.643C878.891 459.14 876.319 449.066 878.891 429.348C881.463 409.629 893.037 381.552 892.822 379.408C892.608 377.265 890.25 367.192 866.674 366.977C843.098 366.763 822.736 371.478 820.379 377.694C818.021 383.909 813.52 398.055 810.519 412.63C806.447 434.063 763.367 510.579 738.718 550.659C730.788 535.013 723.93 521.296 722.429 510.365C720.286 493.861 717.714 483.788 720.286 464.069C722.858 444.351 734.432 416.273 734.218 414.13C734.003 411.987 731.646 401.913 708.069 401.699C684.493 401.485 664.131 406.2 661.774 412.415C659.416 418.631 656.844 433.206 651.914 447.351C646.985 461.497 589.758 589.238 574.755 622.245C567.039 639.178 560.395 652.68 555.68 661.897C555.68 661.897 555.465 662.54 554.822 663.611C550.75 671.542 548.393 675.828 548.393 675.828C548.393 675.828 548.393 675.828 548.393 676.042C545.178 681.829 541.748 687.188 540.034 687.188C538.748 687.188 536.39 671.756 540.462 650.751C549.036 606.385 569.397 537.37 569.183 535.013C569.183 533.727 573.041 521.724 555.894 515.509C539.176 509.293 533.175 519.581 531.675 519.581C530.174 519.581 529.103 523.225 529.103 523.225C529.103 523.225 547.75 445.637 493.524 445.637C459.66 445.637 412.935 482.716 389.788 516.152C375.213 524.082 344.135 541.014 310.914 559.232C298.268 566.305 285.194 573.378 272.977 580.022C272.12 579.165 271.263 578.093 270.405 577.236C204.82 507.15 83.5087 457.639 88.6526 363.548C90.5816 329.255 102.37 239.236 321.63 129.927C502.097 40.9799 645.699 65.6279 670.561 120.282C706.14 198.299 593.616 343.187 407.148 364.191C335.991 372.121 298.697 344.687 289.266 334.399C279.407 323.682 277.907 323.039 274.263 325.183C268.262 328.398 272.12 338.043 274.263 343.615C279.836 358.19 302.769 383.909 341.563 396.555C375.856 407.7 459.231 413.916 560.181 374.908C673.133 331.184 761.438 209.658 735.503 107.851C709.569 4.54359 538.105 -29.535 375.856 28.12C279.407 62.4129 174.814 116.424 99.5835 186.725C10.2075 270.314 -3.93838 342.972 1.84855 373.407C22.6387 481.43 171.599 551.731 231.183 603.813C228.182 605.528 225.396 607.028 223.038 608.314C193.246 623.103 79.6507 682.472 51.359 745.271C19.2094 816.429 56.503 867.44 81.151 874.299C157.667 895.517 236.327 857.366 278.55 794.353C320.773 731.34 315.629 649.465 296.125 611.957C295.911 611.529 295.696 611.1 295.268 610.671C302.984 606.171 310.914 601.455 318.63 596.954C333.847 587.952 348.85 579.594 361.71 572.735C354.423 592.668 349.065 616.458 346.493 650.751C343.278 691.046 359.781 743.342 381.429 763.918C391.074 772.92 402.433 773.134 409.72 773.134C435.011 773.134 446.371 752.13 459.017 727.268C474.448 696.833 488.38 661.468 488.38 661.468C488.38 661.468 471.019 757.06 518.172 757.06C535.318 757.06 552.679 734.769 560.395 723.41C560.395 723.624 560.395 723.624 560.395 723.624C560.395 723.624 560.824 722.981 561.681 721.481C563.396 718.694 564.467 716.98 564.467 716.98C564.467 716.98 564.467 716.765 564.467 716.551C571.326 704.549 586.758 677.328 609.691 632.105C639.269 573.807 667.775 500.934 667.775 500.934C667.775 500.934 670.347 518.724 679.134 548.301C684.278 565.662 694.995 584.737 703.568 603.17C696.71 612.815 692.423 618.173 692.423 618.173C692.423 618.173 692.423 618.173 692.637 618.387C687.065 625.675 681.063 633.605 674.419 641.321C651.057 669.184 623.194 701.119 619.336 710.335C614.835 721.266 615.907 729.197 624.48 735.626C630.696 740.342 641.841 740.985 653.2 740.342C674.205 738.841 688.994 733.698 696.281 730.483C707.64 726.41 720.929 720.195 733.36 710.978C756.294 694.046 770.225 669.827 768.939 637.892C768.296 620.316 762.509 602.741 755.436 586.238C757.58 583.237 759.509 580.237 761.652 577.236C797.874 524.296 825.951 466.212 825.951 466.212C825.951 466.212 828.523 484.002 837.311 513.58C841.597 528.583 850.385 544.872 858.101 560.732C824.022 588.381 803.018 620.531 795.516 641.535C782.013 680.543 792.516 698.119 812.448 702.191C821.45 704.12 834.31 699.833 843.741 695.761C855.743 691.903 869.889 685.259 883.392 675.399C906.325 658.467 928.401 634.891 927.115 602.956C926.472 588.381 922.614 574.021 917.256 560.089C946.191 548.087 983.484 541.443 1031.07 547.015C1133.09 559.018 1153.23 622.674 1149.38 649.465C1145.52 676.257 1124.09 690.831 1117.01 695.332C1109.94 699.833 1107.58 701.334 1108.23 704.548C1109.08 709.264 1112.51 709.049 1118.51 708.192C1126.87 706.692 1172.1 686.545 1174.02 637.249C1177.24 574.235 1117.23 505.435 1011.13 506.078ZM224.11 771.42C190.245 808.285 143.093 822.216 122.731 810.428C100.869 797.782 109.443 743.342 151.023 704.334C176.314 680.543 208.892 658.467 230.54 644.964C235.469 641.964 242.757 637.677 251.544 632.319C253.044 631.462 253.902 631.033 253.902 631.033C255.616 629.961 257.331 628.89 259.046 627.818C274.263 683.544 259.689 732.626 224.11 771.42ZM470.59 603.813C458.802 632.533 434.154 706.049 419.151 701.977C406.291 698.547 398.361 642.821 416.579 587.738C425.795 560.089 445.299 527.082 456.659 514.223C475.091 493.647 495.453 486.788 500.382 495.147C506.598 506.078 477.878 585.809 470.59 603.813ZM673.991 701.119C669.061 703.691 664.346 705.406 662.202 704.12C660.702 703.262 664.346 699.833 664.346 699.833C664.346 699.833 689.851 672.399 699.925 659.968C705.712 652.68 712.57 644.107 719.857 634.462C719.857 635.32 719.857 636.391 719.857 637.249C719.857 670.041 688.136 692.117 673.991 701.119ZM830.881 665.326C827.237 662.754 827.88 654.181 840.097 627.389C844.812 616.887 855.957 599.312 875.033 582.38C877.176 589.238 878.677 595.883 878.462 602.098C878.248 643.464 848.67 658.896 830.881 665.326Z" fill="#CD6799"/>
</svg>
