<svg width="990" height="881" viewBox="0 0 990 881" fill="none" xmlns="http://www.w3.org/2000/svg">
<path d="M813.249 285.317C802.723 281.706 792.108 278.36 781.413 275.283C783.21 267.942 784.864 260.69 786.332 253.566C810.433 136.572 794.677 42.3198 740.861 11.2873C689.263 -18.4624 604.878 12.5585 519.655 86.728C511.255 94.0508 503.043 101.585 495.024 109.322C489.656 104.177 484.193 99.1316 478.639 94.1886C389.32 14.8844 299.793 -18.5396 246.034 12.5817C194.482 42.4241 179.217 131.028 200.915 241.906C203.074 252.887 205.511 263.812 208.225 274.669C195.553 278.27 183.324 282.103 171.621 286.182C66.9024 322.693 0.0273438 379.91 0.0273438 439.258C0.0273438 500.554 71.8208 562.036 180.89 599.316C189.733 602.326 198.649 605.115 207.63 607.68C204.713 619.374 202.124 631.147 199.864 642.986C179.179 751.94 195.332 838.449 246.745 868.103C299.847 898.725 388.972 867.253 475.752 791.391C482.789 785.223 489.671 778.881 496.392 772.37C505.075 780.749 513.991 788.883 523.128 796.765C607.192 869.099 690.213 898.308 741.576 868.574C794.627 837.862 811.87 744.927 789.484 631.859C787.721 623.001 785.744 614.187 783.554 605.424C789.813 603.57 795.956 601.661 801.945 599.675C915.334 562.109 989.109 501.373 989.109 439.258C989.109 379.693 920.074 322.091 813.249 285.317ZM788.658 559.571C783.249 561.36 777.7 563.087 772.044 564.767C759.526 525.138 742.634 483.002 721.96 439.463C741.688 396.964 757.93 355.364 770.097 315.994C780.216 318.923 790.033 322.01 799.499 325.267C891.028 356.778 946.857 403.362 946.857 439.258C946.857 477.493 886.561 527.128 788.658 559.571ZM748.036 640.065C757.934 690.06 759.345 735.264 752.788 770.605C746.9 802.36 735.054 823.528 720.403 832.009C689.236 850.052 622.577 826.6 550.687 764.736C542.188 757.408 533.895 749.845 525.817 742.056C553.689 711.576 581.542 676.143 608.726 636.789C656.542 632.547 701.715 625.608 742.681 616.138C744.654 624.07 746.44 632.048 748.036 640.065ZM337.227 828.891C306.774 839.643 282.518 839.952 267.856 831.499C236.657 813.506 223.687 744.042 241.379 650.868C243.482 639.858 245.89 628.908 248.6 618.031C289.113 626.995 333.958 633.439 381.886 637.326C409.256 675.834 437.912 711.229 466.793 742.223C460.655 748.161 454.372 753.948 447.95 759.578C409.573 793.122 371.118 816.921 337.227 828.891ZM194.56 559.335C146.33 542.849 106.5 521.426 79.2002 498.047C54.6664 477.041 42.2835 456.181 42.2835 439.258C42.2835 403.242 95.976 357.304 185.53 326.082C196.399 322.296 207.773 318.722 219.576 315.368C231.955 355.627 248.19 397.721 267.783 440.286C247.935 483.481 231.469 526.247 218.97 566.981C210.772 564.633 202.632 562.083 194.56 559.335ZM242.383 233.788C223.795 138.794 236.14 67.1357 267.207 49.1506C300.295 29.9949 373.464 57.3067 450.585 125.785C455.614 130.261 460.561 134.827 465.425 139.482C436.688 170.34 408.294 205.472 381.168 243.752C334.65 248.064 290.122 254.988 249.183 264.264C246.661 254.166 244.394 244.001 242.383 233.788ZM669.029 339.145C659.359 322.442 649.331 305.95 638.951 289.679C670.509 293.67 700.745 298.967 729.139 305.443C720.616 332.766 709.991 361.33 697.484 390.616C688.343 373.271 678.856 356.111 669.029 339.145ZM495.043 169.683C514.531 190.798 534.05 214.37 553.249 239.947C514.303 238.108 475.293 238.1 436.348 239.924C455.565 214.582 475.25 191.041 495.043 169.683ZM319.941 339.431C310.237 356.26 300.927 373.313 292.019 390.577C279.717 361.395 269.189 332.7 260.592 304.99C288.812 298.677 318.906 293.516 350.263 289.598C339.767 305.968 329.657 322.586 319.941 339.431ZM351.163 591.925C318.767 588.308 288.221 583.413 260.009 577.27C268.741 549.066 279.501 519.76 292.069 489.953C301.013 507.229 310.361 524.293 320.107 541.13C330.129 558.439 340.507 575.392 351.163 591.925ZM496.21 711.812C476.181 690.207 456.206 666.303 436.699 640.594C455.639 641.336 474.945 641.715 494.568 641.715C514.728 641.715 534.657 641.263 554.272 640.39C535.012 666.562 515.567 690.501 496.21 711.812ZM697.882 488.43C711.104 518.566 722.246 547.717 731.094 575.439C702.418 581.984 671.455 587.254 638.831 591.167C649.285 574.595 659.409 557.816 669.195 540.84C679.145 523.585 688.71 506.111 697.882 488.43ZM632.595 519.729C617.613 545.756 601.788 571.289 585.146 596.287C555.001 598.422 524.789 599.482 494.568 599.466C463.787 599.466 433.848 598.508 405.018 596.638C387.941 571.698 371.815 546.121 356.672 519.961C341.601 493.94 327.528 467.356 314.474 440.267C327.494 413.171 341.529 386.574 356.549 360.534L356.545 360.537C371.559 334.49 387.557 309.022 404.504 284.189C433.917 281.963 464.081 280.804 494.564 280.804C525.187 280.804 555.393 281.975 584.799 284.216C601.575 309.012 617.47 334.392 632.456 360.31C647.526 386.293 661.746 412.76 675.095 439.668C661.883 466.851 647.708 493.555 632.595 519.729ZM719.758 47.8911C752.877 66.9927 765.758 144.021 744.949 245.035C743.62 251.48 742.128 258.044 740.506 264.701C699.466 255.227 654.908 248.184 608.255 243.807C581.078 205.105 552.916 169.919 524.646 139.458C532.055 132.317 539.641 125.36 547.395 118.595C620.417 55.0504 688.664 29.9601 719.758 47.8911Z" fill="#EA1E63"/>
<path d="M564.652 379.126C546.001 361.921 518.261 365.015 501.141 384.136L494.436 391.615L487.731 384.136C470.644 365.015 442.871 361.921 424.219 379.126C402.844 398.873 401.721 434.314 420.85 455.719L486.71 529.328C490.964 534.08 497.873 534.08 502.128 529.328L567.988 455.719C587.15 434.314 586.027 398.873 564.652 379.126Z" fill="#EA1E63"/>
</svg>
