<svg width="327" height="49" viewBox="0 0 327 49" fill="none" xmlns="http://www.w3.org/2000/svg">
<path d="M39.0186 8.6582H34.2053V40.6582H39.0186V8.6582Z" fill="url(#paint0_linear_503_62719)"/>
<path d="M71.8711 13.9034H81.6445V8.95972H71.8711C67.2699 8.95972 63.5335 12.6968 63.3133 17.364H63.2725V17.783V31.7091V32.1281H63.3133C63.5335 36.7953 67.2699 40.5324 71.8711 40.5324H81.6445V35.5887H71.8711C69.7826 35.5887 68.0939 33.8458 68.0939 31.7091V25.718H81.6445V20.7743H68.0939V17.783C68.0857 15.6463 69.7826 13.9034 71.8711 13.9034Z" fill="url(#paint1_linear_503_62719)"/>
<path d="M53.0096 21.9977H50.7906H49.4282C47.3397 21.9977 45.651 20.2548 45.651 18.1181V17.783C45.651 15.6379 47.3479 13.9034 49.4282 13.9034H59.2016V8.95972H49.4282C44.7618 8.95972 40.9683 12.8057 40.8541 17.5735H40.8296V18.1181C40.8296 22.9864 44.6884 26.9498 49.4282 26.9498H52.1367H53.0096C55.0981 26.9498 56.7868 28.6926 56.7868 30.8293V31.374V31.7091C56.7868 33.8542 55.0899 35.5887 53.0096 35.5887H41.8493V40.5324H53.0096C57.7495 40.5324 61.6082 36.569 61.6082 31.7007V31.3656V30.8293V30.2847H61.5511C61.2737 25.6761 57.57 21.9977 53.0096 21.9977Z" fill="url(#paint2_linear_503_62719)"/>
<path d="M26.9524 31.5163C26.9524 33.6614 25.2555 35.3959 23.1752 35.3959H22.6449H22.3186C20.2301 35.3959 18.5414 33.653 18.5414 31.5163V8.70825H13.7282V31.5163C13.7282 33.6614 12.0313 35.3959 9.95096 35.3959H9.42069H9.09437C7.0059 35.3959 5.31718 33.653 5.31718 31.5163V8.70825H0.503906V31.5163C0.503906 36.3846 4.36268 40.3479 9.10252 40.3479H9.42884H9.95912H10.4894V40.2893C12.7084 40.1468 14.699 39.1665 16.1511 37.6163C17.7175 39.2922 19.9038 40.3479 22.3431 40.3479H22.6694H23.1997H23.7299V40.2893C28.2169 40.0044 31.7983 36.2003 31.7983 31.5163V8.70825H26.985V31.5163H26.9524Z" fill="url(#paint3_linear_503_62719)"/>
<path d="M171.146 29.5891C170.861 28.9691 170.665 28.282 170.559 27.5614C170.453 26.8575 170.404 26.1872 170.404 25.5587C170.404 25.1314 170.429 24.6789 170.469 24.2097C170.51 23.7405 170.592 23.2712 170.698 22.8188C170.812 22.3663 170.959 21.9222 171.146 21.5032C171.334 21.0675 171.587 20.6905 171.889 20.3637C172.199 20.0369 172.558 19.7771 172.974 19.576C173.398 19.3749 173.888 19.2744 174.442 19.2744C174.997 19.2744 175.487 19.3749 175.911 19.576C176.327 19.7687 176.694 20.0369 176.996 20.3637C177.298 20.6905 177.551 21.0675 177.738 21.5032C177.926 21.9222 178.073 22.3663 178.187 22.8188C178.293 23.2712 178.375 23.7405 178.415 24.2097C178.456 24.6789 178.481 25.1314 178.481 25.5587C178.481 26.1201 178.432 26.7234 178.35 27.3603C179.696 25.4498 180.504 23.1037 180.504 20.5648C180.504 14.1631 175.446 8.96802 169.213 8.96802C167.467 8.96802 165.819 9.38698 164.343 10.116C164.571 10.1495 164.799 10.1998 165.02 10.2668C165.46 10.4009 165.852 10.6187 166.186 10.9036C166.529 11.1969 166.798 11.5656 166.994 12.0013C167.19 12.437 167.288 12.9565 167.288 13.5263C167.288 14.205 167.092 14.8167 166.717 15.3446C166.496 15.6462 166.243 15.8976 165.942 16.0987C166.031 16.1406 166.113 16.1908 166.195 16.2411C166.488 16.4338 166.749 16.6852 166.953 16.9785C167.157 17.2634 167.312 17.5902 167.41 17.9505C167.508 18.3024 167.557 18.6711 167.557 19.0565C167.557 19.6598 167.443 20.1961 167.231 20.6569C167.01 21.1178 166.717 21.5032 166.358 21.8049C165.999 22.1065 165.575 22.3328 165.11 22.492C164.644 22.6428 164.155 22.7182 163.649 22.7182C162.768 22.7182 161.985 22.5004 161.308 22.0646C160.614 21.6205 160.133 20.9167 159.872 19.9782L159.799 19.7185H162.197C162.319 19.995 162.466 20.2212 162.638 20.3804C162.866 20.5899 163.225 20.6988 163.706 20.6988C163.951 20.6988 164.171 20.6569 164.383 20.5648C164.596 20.481 164.783 20.3553 164.946 20.2045C165.101 20.0536 165.232 19.8777 165.322 19.6598C165.411 19.4503 165.46 19.2073 165.46 18.9392C165.46 18.5286 165.387 18.2102 165.232 17.9756C165.077 17.7326 164.881 17.5567 164.636 17.4393C164.375 17.3053 164.082 17.2215 163.763 17.188C163.421 17.1461 163.078 17.1209 162.752 17.1209H162.434V15.1016H162.752C163.282 15.1016 163.723 15.0597 164.057 14.9843C164.367 14.9088 164.612 14.8167 164.775 14.691C164.93 14.5737 165.028 14.4396 165.093 14.272C165.158 14.0793 165.199 13.8614 165.199 13.6184C165.199 13.0906 165.069 12.7135 164.791 12.4621C164.506 12.2024 164.147 12.0767 163.706 12.0767C163.38 12.0767 163.078 12.1689 162.825 12.3783C162.156 12.9314 162.148 13.4928 162.148 13.4928L160.28 13.4844C158.803 15.4451 157.922 17.8918 157.922 20.5564C157.922 26.9581 162.98 32.1531 169.213 32.1531C170.51 32.1531 171.758 31.9185 172.917 31.4996C172.729 31.4074 172.55 31.2985 172.386 31.1728C171.856 30.7622 171.44 30.2259 171.146 29.5891ZM169.197 21.7965C168.536 21.7965 167.997 21.2435 167.997 20.5648C167.997 19.8861 168.536 19.333 169.197 19.333C169.857 19.333 170.396 19.8861 170.396 20.5648C170.396 21.2435 169.857 21.7965 169.197 21.7965Z" fill="url(#paint4_linear_503_62719)"/>
<path d="M176.245 23.7238C176.197 23.397 176.115 23.087 176.017 22.777C175.927 22.4837 175.805 22.224 175.65 21.9977C175.511 21.7799 175.332 21.6123 175.128 21.4866C174.932 21.3693 174.695 21.3022 174.426 21.3022C174.149 21.3022 173.912 21.3609 173.725 21.4866C173.521 21.6123 173.349 21.7882 173.202 21.9977C173.056 22.224 172.933 22.4921 172.835 22.777C172.738 23.0786 172.664 23.397 172.607 23.7238C172.55 24.0506 172.517 24.3774 172.501 24.6958C172.485 25.0226 172.476 25.3075 172.476 25.5672C172.476 25.9359 172.501 26.38 172.542 26.8911C172.582 27.3855 172.68 27.8631 172.827 28.324C172.966 28.7597 173.17 29.1284 173.439 29.43C173.676 29.6982 173.994 29.8238 174.418 29.8238C174.834 29.8238 175.152 29.6898 175.397 29.43C175.666 29.1284 175.87 28.7597 176.009 28.324C176.156 27.8631 176.245 27.3855 176.294 26.8911C176.335 26.38 176.36 25.9359 176.36 25.5672C176.36 25.3075 176.352 25.0226 176.335 24.6958C176.335 24.3774 176.303 24.0506 176.245 23.7238Z" fill="url(#paint5_linear_503_62719)"/>
<path d="M178.334 27.3603C178.415 26.7235 178.464 26.1202 178.464 25.5588C178.464 25.1314 178.44 24.679 178.399 24.2097C178.358 23.7405 178.276 23.2713 178.17 22.8188C178.056 22.3663 177.909 21.9222 177.722 21.5033C177.526 21.0676 177.281 20.6905 176.979 20.3637C176.669 20.0369 176.31 19.7772 175.894 19.5761C175.47 19.375 174.981 19.2744 174.426 19.2744C173.871 19.2744 173.382 19.375 172.957 19.5761C172.541 19.7688 172.174 20.0369 171.872 20.3637C171.57 20.6905 171.318 21.0676 171.13 21.5033C170.942 21.9222 170.795 22.3663 170.681 22.8188C170.567 23.2713 170.494 23.7405 170.453 24.2097C170.412 24.6706 170.388 25.1231 170.388 25.5588C170.388 26.1788 170.436 26.8492 170.543 27.5614C170.649 28.282 170.844 28.9607 171.13 29.5892C171.424 30.226 171.84 30.7622 172.354 31.1896C172.517 31.3236 172.696 31.4242 172.884 31.5164C175.103 30.7287 176.996 29.2624 178.334 27.3603ZM176.302 26.8827C176.261 27.3771 176.163 27.8547 176.017 28.3155C175.878 28.7512 175.674 29.1199 175.405 29.4216C175.168 29.6897 174.85 29.8154 174.426 29.8154C174.01 29.8154 173.692 29.6813 173.447 29.4216C173.178 29.1199 172.974 28.7512 172.835 28.3155C172.688 27.8547 172.598 27.3771 172.549 26.8827C172.509 26.3716 172.484 25.9275 172.484 25.5588C172.484 25.299 172.492 25.0141 172.509 24.6873C172.525 24.3689 172.558 24.0422 172.615 23.7154C172.664 23.3886 172.745 23.0702 172.843 22.7685C172.933 22.4836 173.055 22.2155 173.21 21.9893C173.349 21.7714 173.528 21.6038 173.732 21.4781C173.928 21.3608 174.165 21.2938 174.434 21.2938C174.711 21.2938 174.948 21.3524 175.136 21.4781C175.34 21.6038 175.511 21.7798 175.658 21.9893C175.805 22.2155 175.927 22.4836 176.025 22.7685C176.123 23.0702 176.196 23.3886 176.253 23.7154C176.31 24.0422 176.343 24.3689 176.359 24.6873C176.376 25.0141 176.384 25.299 176.384 25.5588C176.367 25.9275 176.351 26.3716 176.302 26.8827Z" fill="white"/>
<path d="M162.809 12.3866C163.07 12.1772 163.364 12.085 163.69 12.085C164.131 12.085 164.49 12.2107 164.775 12.4704C165.053 12.7218 165.183 13.0989 165.183 13.6268C165.183 13.8697 165.151 14.0876 165.077 14.2803C165.02 14.4479 164.914 14.582 164.759 14.6993C164.596 14.825 164.351 14.9255 164.041 14.9926C163.715 15.068 163.274 15.1099 162.736 15.1099H162.418V17.1292H162.736C163.062 17.1292 163.405 17.1544 163.747 17.1963C164.066 17.2382 164.359 17.322 164.62 17.4476C164.865 17.565 165.061 17.7493 165.216 17.9839C165.371 18.2185 165.444 18.5369 165.444 18.9475C165.444 19.2157 165.395 19.4586 165.306 19.6681C165.216 19.8776 165.085 20.0619 164.93 20.2128C164.767 20.3636 164.58 20.4893 164.367 20.5731C164.155 20.6569 163.935 20.7071 163.69 20.7071C163.209 20.7071 162.85 20.5982 162.622 20.3887C162.458 20.2295 162.312 20.0117 162.181 19.7268H159.783L159.856 19.9865C160.117 20.925 160.607 21.6288 161.292 22.0729C161.961 22.5087 162.752 22.7265 163.633 22.7265C164.139 22.7265 164.628 22.6511 165.093 22.5003C165.558 22.3495 165.983 22.1148 166.342 21.8132C166.709 21.5115 167.002 21.1177 167.215 20.6652C167.435 20.2044 167.541 19.6681 167.541 19.0648C167.541 18.6794 167.492 18.3023 167.394 17.9588C167.296 17.6069 167.141 17.2801 166.937 16.9868C166.733 16.6935 166.48 16.4505 166.179 16.2494C166.097 16.1992 166.015 16.1489 165.926 16.107C166.219 15.9143 166.48 15.6629 166.701 15.3529C167.084 14.825 167.272 14.2133 167.272 13.5346C167.272 12.9564 167.174 12.4453 166.978 12.0096C166.782 11.5739 166.513 11.2052 166.17 10.9119C165.836 10.627 165.444 10.4092 165.004 10.2751C164.783 10.2081 164.555 10.1578 164.327 10.1243C162.728 10.9119 161.333 12.0682 160.264 13.5011L162.132 13.5094C162.132 13.5011 162.14 12.9397 162.809 12.3866Z" fill="white"/>
<path d="M169.197 21.7965C169.859 21.7965 170.396 21.245 170.396 20.5647C170.396 19.8845 169.859 19.333 169.197 19.333C168.534 19.333 167.997 19.8845 167.997 20.5647C167.997 21.245 168.534 21.7965 169.197 21.7965Z" fill="white"/>
<path d="M125.804 8.95972C128.709 8.95972 131.327 10.0993 133 12.0851C135.415 14.9424 135.415 18.4282 135.415 22.4753V40.5408H130.609V22.4753C130.609 18.9728 130.74 16.6602 129.475 15.1854C128.635 14.2051 127.338 13.6604 125.804 13.6604C124.271 13.6604 122.965 14.2051 122.133 15.1854C120.869 16.6602 120.999 18.9728 120.999 22.4753V40.5408H116.194V22.4753C116.194 18.4365 116.194 14.9424 118.609 12.0851C120.273 10.0993 122.9 8.95972 125.804 8.95972Z" fill="#F3981C"/>
<path d="M88.709 33.4687V8.95972H93.4978V32.2538C93.4978 34.1977 95.0315 35.6054 96.9242 35.6054H107.929V40.5408H95.5699C91.7764 40.5408 88.709 37.3567 88.709 33.4687Z" fill="#005FA4"/>
<path d="M114.464 8.95972H109.659V40.5408H114.464V8.95972Z" fill="#47AC49"/>
<path d="M150.58 34.315C149.732 35.2954 148.41 35.8401 146.86 35.8401C145.31 35.8401 143.989 35.2954 143.14 34.315C142.161 33.1839 141.957 31.5667 141.941 29.3043V20.414C141.949 18.026 142.129 16.3334 143.14 15.1687C143.989 14.1883 145.31 13.6437 146.86 13.6437C148.41 13.6437 149.732 14.1883 150.58 15.1687C151.078 15.7385 151.388 16.4423 151.551 17.2886H156.356C156.079 15.3698 155.475 13.6269 154.145 12.0684C152.457 10.0993 149.805 8.95972 146.86 8.95972C143.923 8.95972 141.264 10.0993 139.567 12.0851C137.544 14.4481 137.201 17.2467 137.136 20.4224L137.144 29.3127C137.217 32.3962 137.601 35.1194 139.567 37.4237C141.256 39.4096 143.915 40.5491 146.86 40.5491C149.797 40.5491 152.457 39.4096 154.154 37.4237C155.483 35.8652 156.087 34.1223 156.364 32.2035H151.559C151.396 33.0414 151.078 33.7453 150.58 34.315Z" fill="#DE3923"/>
<path d="M199.584 4.93604V11.5884H197.971V10.4585H195.369V9.16357H197.971V8.05908H195.49C194.766 9.88721 193.122 11.1504 190.583 11.8423L189.948 10.5601C192.601 9.86816 193.909 8.59229 194.137 7.00537H190.57V5.71045H195.902C195.902 6.08496 195.877 6.44678 195.82 6.78955H197.971V4.93604H199.584ZM191.789 14.064C191.782 12.6357 193.363 11.7344 195.737 11.728C198.079 11.7344 199.666 12.6357 199.673 14.064C199.666 15.5112 198.079 16.4253 195.737 16.4253C193.363 16.4253 191.782 15.5112 191.789 14.064ZM193.401 14.064C193.401 14.7812 194.271 15.1431 195.737 15.1431C197.172 15.1431 198.041 14.7812 198.048 14.064C198.041 13.353 197.172 12.9849 195.737 12.9976C194.271 12.9849 193.401 13.353 193.401 14.064ZM210.248 4.93604V7.37354H211.809V8.69385H210.248V11.4487H208.623V4.93604H210.248ZM201.552 10.8267V5.48193H203.177V9.5C204.579 9.46826 206.084 9.33496 207.683 9.02393L207.874 10.3442C205.969 10.7251 204.173 10.8267 202.542 10.8267H201.552ZM202.681 16.3364V11.9692H210.248V16.3364H202.681ZM204.268 15.0669H208.661V13.2261H204.268V15.0669ZM222.308 4.92334V16.4761H220.772V10.6743H219.655V15.9175H218.17V5.11377H219.655V9.37939H220.772V4.92334H222.308ZM212.647 13.8608V6.25635H216.951V7.56396H214.272V12.5024C215.389 12.4834 216.38 12.4199 217.497 12.2231L217.611 13.5435C216.202 13.8101 214.97 13.8545 213.447 13.8608H212.647ZM230.408 5.95166V7.23389H223.552V5.95166H226.18V4.85986H227.793V5.95166H230.408ZM224.111 9.73486C224.111 8.46533 225.304 7.6084 226.98 7.60205C228.662 7.6084 229.824 8.46533 229.824 9.73486C229.824 11.0044 228.662 11.8613 226.98 11.8677C225.304 11.8613 224.111 11.0044 224.111 9.73486ZM224.936 13.9497V12.6548H232.719V16.4761H231.094V13.9497H224.936ZM225.698 9.73486C225.692 10.3252 226.206 10.6299 226.98 10.6235C227.761 10.6299 228.288 10.3252 228.288 9.73486C228.288 9.13818 227.761 8.8208 226.98 8.8208C226.206 8.8208 225.692 9.13818 225.698 9.73486ZM231.094 12.1724V4.92334H232.719V7.91943H234.28V9.23975H232.719V12.1724H231.094ZM244.373 5.92627V7.05615C244.366 8.46533 244.366 10.0459 243.941 12.3755L242.354 12.2358C242.729 10.1157 242.741 8.54785 242.748 7.2085H235.829V5.92627H244.373ZM234.788 15.0669V13.7466H237.035V10.1157H238.647V13.7466H239.917V10.1157H241.516V13.7466H245.325V15.0669H234.788ZM253.285 6.90381C253.279 8.38281 254.116 9.81738 255.989 10.4204L255.138 11.6899C253.875 11.2646 252.999 10.4395 252.498 9.38574C251.984 10.541 251.063 11.4487 249.73 11.9058L248.829 10.6235C250.803 10.0142 251.647 8.46533 251.66 6.89111V5.63428H253.285V6.90381ZM250.682 16.2729V12.5532H252.333V14.978H258.617V16.2729H250.682ZM256.56 13.3911V4.92334H258.185V8.26221H259.747V9.6333H258.185V13.3911H256.56ZM267.11 5.95166V7.23389H260.255V5.95166H262.883V4.85986H264.495V5.95166H267.11ZM260.813 9.73486C260.813 8.46533 262.007 7.6084 263.682 7.60205C265.365 7.6084 266.526 8.46533 266.526 9.73486C266.526 11.0044 265.365 11.8613 263.682 11.8677C262.007 11.8613 260.813 11.0044 260.813 9.73486ZM261.638 13.9497V12.6548H269.421V16.4761H267.796V13.9497H261.638ZM262.4 9.73486C262.394 10.3252 262.908 10.6299 263.682 10.6235C264.463 10.6299 264.99 10.3252 264.99 9.73486C264.99 9.13818 264.463 8.8208 263.682 8.8208C262.908 8.8208 262.394 9.13818 262.4 9.73486ZM267.796 12.1724V4.92334H269.421V7.91943H270.982V9.23975H269.421V12.1724H267.796ZM281.227 4.93604V13.3784H279.615V10.6362H276.974C276.416 11.2266 275.616 11.5884 274.715 11.5884C272.963 11.5884 271.63 10.3188 271.642 8.60498C271.63 6.86572 272.963 5.60254 274.715 5.59619C275.61 5.60254 276.409 5.95801 276.968 6.54834H279.615V4.93604H281.227ZM273.178 8.60498C273.172 9.56982 273.813 10.1538 274.715 10.1538C275.565 10.1538 276.219 9.56982 276.225 8.60498C276.219 7.62744 275.565 7.04346 274.715 7.04346C273.813 7.04346 273.172 7.62744 273.178 8.60498ZM273.559 16.2729V12.5278H275.184V14.978H281.507V16.2729H273.559ZM277.666 7.84326C277.73 8.08447 277.761 8.33838 277.761 8.60498C277.761 8.85889 277.73 9.10645 277.673 9.34131H279.615V7.84326H277.666ZM292.323 5.24072V6.44678H290.812V7.97021H292.247V9.17627H283.728V7.97021H285.15V6.44678H283.652V5.24072H292.323ZM282.725 11.0552V9.78564H293.262V11.0552H282.725ZM283.944 12.8833V11.7153H291.98V14.5718H285.544V15.2065H292.285V16.3999H283.957V13.4673H290.381V12.8833H283.944ZM286.775 7.97021H289.187V6.44678H286.775V7.97021ZM303.888 4.93604V12.6929H302.352V9.03662H301.349V11.7407H299.839V5.13916H301.349V7.729H302.352V4.93604H303.888ZM294.418 7.01807V5.72314H298.823V9.23975H295.992V10.376C297.255 10.3569 298.201 10.2871 299.293 10.0776L299.432 11.3472C298.106 11.6138 296.969 11.6455 295.23 11.6519H294.43V8.07178H297.261V7.01807H294.418ZM295.344 15.1685C297.814 14.8574 299.064 13.6069 299.064 12.3882V12.1851H300.689V12.3882C300.683 13.6069 301.927 14.8574 304.422 15.1685L303.774 16.4253C301.933 16.165 300.588 15.3843 299.883 14.3052C299.166 15.3843 297.82 16.165 295.992 16.4253L295.344 15.1685ZM315.733 10.522V11.8042H305.196V10.522H309.639V9.59521H306.199V8.30029H307.621V6.53564H306.123V5.24072H314.794V6.53564H313.283V8.30029H314.718V9.59521H311.264V10.522H315.733ZM306.415 16.3491V12.5913H314.476V16.3491H306.415ZM308.014 15.0542H312.889V13.8608H308.014V15.0542ZM309.246 8.30029H311.658V6.53564H309.246V8.30029Z" fill="#003B56"/>
<path d="M196.014 41.0081L189.993 20.1506H195.409L198.607 33.9788H198.78L202.41 20.1506H206.875L210.534 34.0076H210.678L213.905 20.1506H219.321L213.271 41.0081H208.546L204.743 28.1594H204.571L200.768 41.0081H196.014ZM226.292 20.1506V41.0081H221.395V20.1506H226.292ZM240.725 26.3445C240.596 24.832 239.472 23.9246 237.47 23.9246C235.482 23.9246 234.459 24.7888 234.445 25.97C234.416 27.2664 235.684 27.9001 237.556 28.3035L239.371 28.7356C243.39 29.6143 245.724 31.6165 245.738 34.9583C245.724 38.905 242.656 41.2817 237.47 41.2961C232.27 41.2817 228.914 38.9482 228.827 34.1516H233.552C233.667 36.1682 235.18 37.2053 237.412 37.2053C239.487 37.2053 240.725 36.2979 240.754 34.9583C240.725 33.7483 239.659 33.1145 237.355 32.5959L235.165 32.0774C231.579 31.2419 229.375 29.4558 229.375 26.3157C229.36 22.4409 232.774 19.8625 237.499 19.8625C242.31 19.8625 245.407 22.4841 245.45 26.3445H240.725ZM255.907 41.0081H248.273V20.1506H255.907C262.274 20.1506 266.192 24.0542 266.192 30.5793C266.192 37.0901 262.274 41.0081 255.907 41.0081ZM253.171 36.802H255.735C259.307 36.8164 261.266 35.1023 261.266 30.5793C261.266 26.042 259.307 24.3423 255.677 24.3279H253.171V36.802ZM288.663 30.5793C288.677 37.4502 284.342 41.2961 278.753 41.2961C273.135 41.2961 268.843 37.4214 268.843 30.5793C268.843 23.6941 273.135 19.8625 278.753 19.8625C284.342 19.8625 288.677 23.6941 288.663 30.5793ZM273.855 30.5793C273.855 34.7278 275.713 36.9749 278.753 36.9749C281.806 36.9749 283.665 34.7278 283.65 30.5793C283.665 26.4309 281.806 24.1694 278.753 24.1838C275.713 24.1694 273.855 26.4309 273.855 30.5793ZM291.573 20.1506H297.651L303.038 33.2874H303.269L308.656 20.1506H314.735V41.0081H309.952V28.0442H309.78L304.709 40.8928H301.598L296.528 27.9866H296.355V41.0081H291.573V20.1506Z" fill="#003B56"/>
<defs>
<linearGradient id="paint0_linear_503_62719" x1="1.93543" y1="24.2008" x2="78.8531" y2="25.1702" gradientUnits="userSpaceOnUse">
<stop stop-color="#005FA4"/>
<stop offset="1" stop-color="#47AC49"/>
</linearGradient>
<linearGradient id="paint1_linear_503_62719" x1="1.94073" y1="23.7523" x2="78.8591" y2="24.7217" gradientUnits="userSpaceOnUse">
<stop stop-color="#005FA4"/>
<stop offset="1" stop-color="#47AC49"/>
</linearGradient>
<linearGradient id="paint2_linear_503_62719" x1="1.93654" y1="24.1006" x2="78.8546" y2="25.07" gradientUnits="userSpaceOnUse">
<stop stop-color="#005FA4"/>
<stop offset="1" stop-color="#47AC49"/>
</linearGradient>
<linearGradient id="paint3_linear_503_62719" x1="1.93385" y1="24.2812" x2="78.8522" y2="25.2507" gradientUnits="userSpaceOnUse">
<stop stop-color="#005FA4"/>
<stop offset="1" stop-color="#47AC49"/>
</linearGradient>
<linearGradient id="paint4_linear_503_62719" x1="158.967" y1="12.1937" x2="175.31" y2="24.8734" gradientUnits="userSpaceOnUse">
<stop stop-color="#47AC49"/>
<stop offset="1" stop-color="#005FA4"/>
</linearGradient>
<linearGradient id="paint5_linear_503_62719" x1="158.628" y1="12.6305" x2="174.971" y2="25.3101" gradientUnits="userSpaceOnUse">
<stop stop-color="#47AC49"/>
<stop offset="1" stop-color="#005FA4"/>
</linearGradient>
</defs>
</svg>
