<svg width="220" height="58" viewBox="0 0 220 58" fill="none" xmlns="http://www.w3.org/2000/svg">
<path d="M94.6769 33.9483C92.1875 35.5821 89.0888 36.3923 85.3874 36.3923C81.2799 36.3923 78.0436 35.1 75.6786 32.5221C73.3137 29.9441 72.1279 26.3886 72.1279 21.8622C72.1279 17.3089 73.4185 13.5927 76.0062 10.7269C78.5939 7.85431 82.0332 6.42139 86.3308 6.42139C89.0364 6.42139 91.421 6.84323 93.4846 7.69361V13.8204C91.5127 12.5281 89.1085 11.8786 86.2587 11.8786C83.8741 11.8786 81.9284 12.7557 80.4282 14.5167C78.928 16.2778 78.1746 18.6213 78.1746 21.5608C78.1746 24.5405 78.8494 26.8439 80.1924 28.471C81.5419 30.1048 83.3566 30.915 85.6495 30.915C87.0252 30.915 88.1192 30.6941 88.925 30.2454V24.5874H83.8151V19.3713H94.6704V33.9483H94.6769Z" fill="white"/>
<path d="M120.783 35.8834H114.979L104.458 17.6705C103.842 16.6059 103.416 15.8024 103.174 15.2667H103.102C103.193 16.2912 103.246 17.8513 103.246 19.9538V35.8834H97.8149V6.89679H104.012L114.14 24.5405C114.605 25.3373 115.031 26.1275 115.424 26.9042H115.496C115.405 26.2279 115.352 24.9021 115.352 22.9201V6.89679H120.783V35.8834Z" fill="white"/>
<path d="M134.01 25.6588H124.294V23.0541H134.01V25.6588Z" fill="white"/>
<path d="M152.563 35.8834H149.641V23.958C149.641 19.6458 148.226 17.4897 145.402 17.4897C143.981 17.4897 142.782 18.1125 141.806 19.3579C140.829 20.6033 140.345 22.2037 140.345 24.1589V35.8834H137.423V5.24292H140.345V18.6214H140.417C141.819 16.0099 143.81 14.6976 146.398 14.6976C150.505 14.6976 152.556 17.5098 152.556 23.1277V35.8834H152.563Z" fill="white"/>
<path d="M163.863 36.3722C161.171 36.3722 159.022 35.408 157.41 33.4729C155.799 31.5378 155 28.9733 155 25.7793C155 22.3041 155.838 19.5856 157.509 17.6304C159.179 15.6752 161.439 14.6976 164.289 14.6976C167.008 14.6976 169.124 15.6484 170.65 17.55C172.177 19.4517 172.937 22.0832 172.937 25.4512C172.937 28.7523 172.118 31.3972 170.473 33.3859C168.829 35.3746 166.628 36.3722 163.863 36.3722ZM164.073 17.4898C162.199 17.4898 160.712 18.2129 159.625 19.6659C158.531 21.1123 157.987 23.1143 157.987 25.6588C157.987 28.1095 158.537 30.0446 159.644 31.4574C160.745 32.8703 162.225 33.58 164.079 33.58C165.966 33.58 167.414 32.8837 168.429 31.4976C169.445 30.1116 169.949 28.1363 169.949 25.5717C169.949 22.9871 169.445 20.9917 168.429 19.5856C167.414 18.1928 165.96 17.4898 164.073 17.4898Z" fill="white"/>
<path d="M201.657 35.8834H198.735V23.9982C198.735 21.7082 198.42 20.0476 197.798 19.0231C197.176 17.9987 196.128 17.4898 194.66 17.4898C193.415 17.4898 192.354 18.1393 191.483 19.4316C190.611 20.7239 190.173 22.2773 190.173 24.0785V35.8834H187.251V23.5964C187.251 19.5253 185.868 17.4898 183.104 17.4898C181.82 17.4898 180.765 18.0991 179.933 19.3178C179.101 20.5364 178.688 22.1233 178.688 24.0785V35.8834H175.767V15.1864H178.688V18.4607H178.76C180.051 15.9564 181.938 14.6976 184.421 14.6976C185.665 14.6976 186.753 15.0926 187.677 15.8827C188.6 16.6729 189.236 17.704 189.583 18.983C190.932 16.1238 192.95 14.6976 195.636 14.6976C199.645 14.6976 201.65 17.5099 201.65 23.1277V35.8834H201.657Z" fill="white"/>
<path d="M220 26.3618H207.133C207.179 28.6652 207.729 30.4463 208.771 31.6985C209.813 32.9506 211.254 33.58 213.082 33.58C215.132 33.58 217.019 32.81 218.742 31.2766V34.3902C217.137 35.7093 215.021 36.3722 212.387 36.3722C209.813 36.3722 207.788 35.4348 206.321 33.5532C204.847 31.6717 204.113 29.0268 204.113 25.6186C204.113 22.3978 204.919 19.773 206.524 17.7442C208.129 15.7153 210.127 14.7042 212.512 14.7042C214.896 14.7042 216.744 15.5814 218.048 17.329C219.351 19.0834 220.006 21.514 220.006 24.6276V26.3618H220ZM217.012 23.5562C216.999 21.6412 216.593 20.1547 215.794 19.09C214.995 18.0254 213.881 17.4964 212.459 17.4964C211.084 17.4964 209.918 18.0589 208.955 19.1771C207.992 20.2953 207.402 21.755 207.173 23.5629H217.012V23.5562Z" fill="white"/>
<path d="M88.2041 50.6144H86.1798V49.1614H82.9108V47.5008H86.1798V46.0813H83.0615C82.1509 48.4316 80.0873 50.052 76.8969 50.9425L76.0977 49.2953C79.4322 48.4048 81.0765 46.771 81.3648 44.7287H76.8838V43.0681H83.5856C83.5856 43.5502 83.5528 44.0122 83.4808 44.4542H86.1864V42.0704H88.2107V50.6144H88.2041ZM83.3694 50.7952C86.3109 50.8019 88.309 51.9603 88.3155 53.795C88.309 55.6564 86.3109 56.8282 83.3694 56.8282C80.3886 56.8282 78.3971 55.6564 78.4102 53.795C78.4037 51.9603 80.3886 50.8019 83.3694 50.7952ZM83.3694 55.181C85.171 55.181 86.265 54.719 86.2716 53.795C86.265 52.8843 85.171 52.4089 83.3694 52.4223C81.5285 52.4089 80.4345 52.8776 80.4345 53.795C80.4345 54.7123 81.5285 55.181 83.3694 55.181Z" fill="white"/>
<path d="M98.7056 48.6391L97.6182 50.2528C96.0786 49.7306 95.0043 48.7195 94.3819 47.4205C93.753 48.9137 92.6262 50.0855 90.9688 50.6546L89.8682 49.0208C92.2921 48.1972 93.3337 46.2219 93.3468 44.1797V42.8271H95.3908V44.3738C95.3777 46.1884 96.4062 47.916 98.7056 48.6391ZM96.8517 51.1501C99.8586 51.1501 101.739 52.2214 101.752 54.0226C101.745 55.8439 99.8586 56.9019 96.8517 56.8952C93.7857 56.9019 91.8663 55.8439 91.8728 54.0226C91.8663 52.2214 93.7857 51.1501 96.8517 51.1501ZM96.8517 55.2614C98.7318 55.2614 99.7407 54.8596 99.7407 54.0226C99.7407 53.2124 98.7384 52.7839 96.8517 52.7839C94.9453 52.7839 93.8971 53.2191 93.9168 54.0226C93.8971 54.8596 94.9453 55.2614 96.8517 55.2614ZM99.5638 42.0504H101.608V45.5255H103.573V47.2531H101.608V50.8555H99.5638V42.0504Z" fill="white"/>
<path d="M104.798 42.7735H106.842V47.9361C108.605 47.8959 110.498 47.7218 112.509 47.3267L112.751 49.0208C110.36 49.5096 108.1 49.6435 106.05 49.6435H104.805V42.7735H104.798ZM106.22 51.1032H115.726V56.7144H106.22V51.1032ZM113.734 55.0806V52.7169H108.211V55.0806H113.734ZM115.726 45.1974H117.691V46.8915H115.726V50.4269H113.682V42.0704H115.726V45.1974Z" fill="white"/>
<path d="M130.164 50.3399H125.952V53.5004H131.618V55.1944H118.326V53.5004H123.927V50.3399H119.892V43.0949H130.053V44.7555H121.929V48.686H130.164V50.3399Z" fill="white"/>
<path d="M136.244 48.6726H141.19V46.0813H143.201V48.6726H149.425V50.3533H136.244V48.6726ZM147.937 54.103C147.924 55.8574 145.926 56.9019 142.755 56.8885C139.604 56.8952 137.58 55.8507 137.587 54.103C137.58 52.3286 139.604 51.2974 142.755 51.2974C145.926 51.2974 147.924 52.3286 147.937 54.103ZM137.724 42.72H147.852V43.9252C147.859 45.1104 147.859 46.3826 147.44 47.9026L145.448 47.7084C145.776 46.3625 145.815 45.3582 145.828 44.3471H137.724V42.72V42.72ZM142.755 55.3083C144.76 55.3083 145.913 54.8998 145.913 54.103C145.913 53.2794 144.754 52.8375 142.755 52.8442C140.751 52.8375 139.604 53.2727 139.611 54.103C139.604 54.9065 140.751 55.3083 142.755 55.3083Z" fill="white"/>
<path d="M163.608 50.6948H150.335V49.061H155.982V47.7888H151.947V42.6999H162.016V44.3136H153.977V46.155H162.101V47.7888H157.987V49.061H163.621V50.6948H163.608ZM156.938 51.4448C160.09 51.4448 161.983 52.4224 161.996 54.1834C161.983 55.9176 160.09 56.9086 156.938 56.9086C153.761 56.9086 151.848 55.9243 151.848 54.1834C151.848 52.4224 153.761 51.4448 156.938 51.4448ZM156.938 55.3284C158.91 55.3284 159.945 54.9601 159.952 54.1834C159.945 53.42 158.904 53.025 156.938 53.025C154.927 53.025 153.918 53.4133 153.925 54.1834C153.912 54.9601 154.927 55.3284 156.938 55.3284Z" fill="white"/>
<path d="M177.692 51.9001H172.045V56.8885H170.034V51.9001H164.453V50.2395H177.692V51.9001ZM169.884 44.4676H165.645V42.8338H176.507V44.4676H172.268C172.478 45.9273 174.076 47.3803 177.064 47.7486L176.33 49.3824C173.775 49.0342 171.947 47.9227 171.076 46.396C170.191 47.9227 168.377 49.0275 165.848 49.3824L165.101 47.7486C168.043 47.3803 169.667 45.9273 169.884 44.4676Z" fill="white"/>
<path d="M184.827 44.7086H181.027V45.934H184.683V47.5142H181.027V48.8266C182.639 48.8132 183.825 48.7463 185.174 48.5119L185.384 50.1725C183.687 50.4805 182.265 50.5408 180.071 50.5341H179.082V43.048H184.827V44.7086V44.7086ZM181.014 51.7393H191.05V56.8952H189.026V53.4066H181.021V51.7393H181.014ZM185.96 42.3316H187.86V45.6929H189.118V42.0704H191.05V51.1233H189.118V47.3535H187.86V51.0095H185.96V42.3316Z" fill="white"/>
<path d="M195.197 49.4627V46.55H197.221V49.3958C198.676 49.3288 200.15 49.215 201.512 49.0141L201.624 50.514C198.604 51.0831 195.204 51.1434 192.675 51.1501L192.498 49.4895C193.31 49.4895 194.228 49.4895 195.197 49.4627ZM200.825 44.0591C200.825 45.0836 200.825 46.5701 200.49 48.4115L198.499 48.2173C198.761 46.7978 198.826 45.713 198.84 44.8225H193.356V43.1284H200.825V44.0591V44.0591ZM194.64 52.1612H196.684V54.9668H204.834V56.6274H194.64V52.1612ZM202.299 42.0504H204.388V46.5701H206.144V48.3177H204.388V53.1589H202.299V42.0504Z" fill="white"/>
<path d="M207.579 43.2958H214.484V49.0208H209.695V51.746C211.909 51.7326 213.789 51.6121 215.918 51.2572L216.095 52.9379C213.711 53.3731 211.549 53.4602 208.902 53.4602H207.592V47.3803H212.407V44.9832H207.572V43.2958H207.579ZM218.984 56.922H216.96V42.0504H218.984V56.922Z" fill="white"/>
<path d="M20.1184 48.6659V20.4493C17.511 20.4493 15.395 22.6121 15.395 25.2771V49.5833C16.9411 49.2418 18.5199 48.9405 20.1184 48.6659Z" fill="#E94F2D"/>
<path d="M30.3972 47.3401V7.41907C27.2919 7.64003 24.8418 10.2715 24.8418 13.499V47.9427C26.6696 47.7084 28.5235 47.5008 30.3972 47.3401Z" fill="#F7A600"/>
<path d="M43.4798 47.7887V0C39.5753 0 36.4111 3.23413 36.4111 7.22489V47.1057C38.8023 47.2798 41.1542 47.5075 43.4798 47.7887Z" fill="#009F5F"/>
<path d="M53.0837 49.5833V20.4493C50.4764 20.4493 48.3604 22.6121 48.3604 25.2771V48.6659C49.9588 48.9405 51.5376 49.2485 53.0837 49.5833Z" fill="#004F9F"/>
<path d="M36.5487 50.2595C22.3983 50.2595 9.54499 53.2057 0 58.0067H73.0975C63.5525 53.2057 50.6992 50.2595 36.5487 50.2595Z" fill="white"/>
</svg>
