<svg width="318" height="49" viewBox="0 0 318 49" fill="none" xmlns="http://www.w3.org/2000/svg">
<g clip-path="url(#clip0_6201_168239)">
<path d="M44.7476 46.9122C44.7476 46.9752 44.7415 47.0231 44.7264 47.0561C44.7142 47.0891 44.6839 47.1161 44.6414 47.1431C44.3804 47.2961 44.0982 47.407 43.7978 47.473C43.4974 47.539 43.1636 47.572 42.7994 47.572C42.3624 47.572 41.9771 47.5 41.6402 47.3531C41.3034 47.2061 41.0242 47.0021 40.7966 46.7352C40.569 46.4683 40.3991 46.1444 40.2807 45.7635C40.1624 45.3826 40.1047 44.9567 40.1047 44.4858C40.1047 44.0569 40.1563 43.655 40.2595 43.2801C40.3627 42.9052 40.5205 42.5753 40.7299 42.2964C40.9392 42.0175 41.2032 41.7955 41.5219 41.6336C41.8375 41.4716 42.2137 41.3906 42.6447 41.3906C42.9117 41.3906 43.1696 41.4266 43.4154 41.4926C43.6612 41.5616 43.8797 41.6636 44.0709 41.8015C44.2621 41.9395 44.4199 42.1104 44.5413 42.3144C44.6626 42.5183 44.7324 42.7583 44.7506 43.0312H44.0861C44.0588 42.8392 44.0011 42.6773 43.9101 42.5393C43.819 42.4014 43.7098 42.2904 43.5793 42.2034C43.4488 42.1164 43.3032 42.0505 43.1423 42.0085C42.9815 41.9665 42.8146 41.9455 42.6477 41.9455C42.3139 41.9455 42.0317 42.0145 41.795 42.1524C41.5613 42.2904 41.3701 42.4763 41.2215 42.7073C41.0728 42.9412 40.9665 43.2111 40.8968 43.5171C40.827 43.823 40.7936 44.1469 40.7936 44.4858C40.7936 44.8787 40.833 45.2296 40.9089 45.5445C40.9848 45.8594 41.1092 46.1264 41.2761 46.3423C41.446 46.5583 41.6615 46.7262 41.9285 46.8432C42.1925 46.9602 42.5142 47.0171 42.8905 47.0171C43.1363 47.0171 43.3638 46.9991 43.5702 46.9632C43.7765 46.9272 43.9374 46.8702 44.0527 46.7952C44.0739 46.7832 44.0921 46.7712 44.1012 46.7562C44.1134 46.7412 44.1164 46.7142 44.1164 46.6782V44.9417H42.763V44.3928H44.5898C44.693 44.3928 44.7446 44.4438 44.7446 44.5428V46.9122H44.7476Z" fill="#29518D"/>
<path d="M47.1055 48.9998H46.45L47.0903 47.4132L45.4092 43.4062H46.1041L47.4302 46.7714L48.7411 43.4062H49.4209L47.1055 48.9998Z" fill="#29518D"/>
<path d="M53.4235 46.1053C53.293 46.6182 53.0685 46.9931 52.7468 47.224C52.4282 47.458 52.0094 47.5719 51.4966 47.5719C51.184 47.5719 50.9139 47.5149 50.6803 47.398C50.4466 47.281 50.2585 47.1251 50.1067 46.9271C49.955 46.7292 49.8458 46.5012 49.7699 46.2403C49.6971 45.9824 49.6606 45.7124 49.6606 45.4305C49.6606 45.1546 49.7001 44.8876 49.779 44.6297C49.8579 44.3718 49.9762 44.1408 50.131 43.9429C50.2858 43.7449 50.483 43.586 50.7167 43.466C50.9503 43.346 51.2234 43.2891 51.536 43.2891C51.8759 43.2891 52.1642 43.343 52.41 43.448C52.6527 43.553 52.853 43.703 53.0078 43.8919C53.1625 44.0809 53.2778 44.3088 53.3476 44.5697C53.4174 44.8307 53.4538 45.1156 53.4538 45.4215C53.4538 45.5235 53.4083 45.5715 53.3143 45.5715H50.3313C50.3313 45.7784 50.3556 45.9734 50.4041 46.1563C50.4527 46.3393 50.5316 46.4952 50.6378 46.6272C50.744 46.7591 50.8805 46.8641 51.0474 46.9391C51.2143 47.0171 51.4146 47.0531 51.6483 47.0531C51.9275 47.0531 52.1581 46.9691 52.3432 46.8041C52.5283 46.6362 52.6588 46.4022 52.7377 46.1023H53.4235V46.1053ZM52.8014 45.0646C52.7741 44.6837 52.6588 44.3778 52.4524 44.1438C52.2491 43.9099 51.9457 43.7959 51.5481 43.7959C51.363 43.7959 51.1992 43.8289 51.0565 43.8979C50.9139 43.9669 50.7956 44.0599 50.6954 44.1768C50.5983 44.2938 50.5194 44.4288 50.4618 44.5817C50.4041 44.7347 50.3677 44.8966 50.3525 45.0646H52.8014Z" fill="#29518D"/>
<path d="M57.5109 46.9103C57.3531 47.1052 57.1498 47.2642 56.904 47.3872C56.6582 47.5101 56.3638 47.5701 56.0179 47.5701C55.678 47.5701 55.3897 47.5101 55.1439 47.3872C54.9012 47.2642 54.6978 47.1052 54.537 46.9073C54.3762 46.7093 54.2578 46.4814 54.182 46.2205C54.1061 45.9625 54.0667 45.6956 54.0667 45.4257C54.0667 45.1558 54.1061 44.8918 54.182 44.6309C54.2578 44.373 54.3762 44.142 54.537 43.9441C54.6978 43.7461 54.9012 43.5872 55.1439 43.4642C55.3867 43.3412 55.678 43.2812 56.0179 43.2812C56.3577 43.2812 56.6491 43.3412 56.8979 43.4642C57.1467 43.5872 57.35 43.7461 57.5139 43.9441C57.6747 44.142 57.7961 44.37 57.875 44.6309C57.9539 44.8888 57.9934 45.1558 57.9934 45.4257C57.9934 45.6956 57.9539 45.9595 57.875 46.2205C57.7961 46.4784 57.6747 46.7093 57.5109 46.9103ZM56.6096 46.9103C56.8554 46.7573 57.0344 46.5474 57.1498 46.2805C57.2651 46.0135 57.3227 45.7286 57.3227 45.4287C57.3227 45.2397 57.2985 45.0478 57.2499 44.8528C57.2013 44.6609 57.1224 44.4839 57.0162 44.328C56.91 44.172 56.7735 44.043 56.6096 43.9441C56.4457 43.8451 56.2485 43.7941 56.0209 43.7941C55.7903 43.7941 55.5961 43.8451 55.4322 43.9441C55.2683 44.043 55.1348 44.172 55.0347 44.328C54.9345 44.4839 54.8587 44.6579 54.8101 44.8528C54.7616 45.0448 54.7373 45.2367 54.7373 45.4287C54.7373 45.6206 54.7616 45.8126 54.8101 46.0045C54.8587 46.1965 54.9345 46.3734 55.0347 46.5294C55.1348 46.6854 55.2683 46.8113 55.4322 46.9103C55.5961 47.0093 55.7933 47.0573 56.0209 47.0573C56.2485 47.0513 56.4457 47.0033 56.6096 46.9103Z" fill="#29518D"/>
<path d="M62.1234 47.4412H61.4922V44.9338C61.4922 44.5379 61.4194 44.247 61.2737 44.064C61.128 43.8811 60.8822 43.7911 60.5333 43.7911C60.3967 43.7911 60.2602 43.8181 60.1266 43.8751C59.9931 43.9321 59.8717 44.0131 59.7655 44.121C59.6593 44.229 59.5743 44.367 59.5076 44.5289C59.4408 44.6939 59.4105 44.8828 59.4105 45.0988V47.4412H58.8218V43.4102H59.4287L59.4135 43.9261C59.6047 43.6891 59.808 43.5212 60.0235 43.4252C60.2389 43.3292 60.4817 43.2812 60.7487 43.2812C61.213 43.2812 61.5589 43.4072 61.7835 43.6622C62.0111 43.9171 62.1234 44.283 62.1234 44.7659V47.4412Z" fill="#29518D"/>
<path d="M66.6965 47.383C66.6965 47.9108 66.5447 48.3127 66.2382 48.5887C65.9318 48.8646 65.4887 49.0026 64.9122 49.0026C64.4266 49.0026 64.0261 48.9126 63.7105 48.7326C63.3949 48.5527 63.2158 48.2588 63.1642 47.8509H63.8683C63.8804 47.9768 63.9199 48.0818 63.9866 48.1658C64.0534 48.2468 64.1383 48.3157 64.2415 48.3667C64.3417 48.4207 64.4539 48.4567 64.5783 48.4777C64.7028 48.4987 64.8241 48.5107 64.9516 48.5107C65.3279 48.5107 65.6162 48.4117 65.8164 48.2108C66.0167 48.0098 66.1169 47.7009 66.1169 47.281L66.132 46.8911C65.9833 47.1251 65.7861 47.296 65.5373 47.407C65.2884 47.5179 65.0366 47.5749 64.7786 47.5749C64.457 47.5749 64.1839 47.5179 63.9623 47.401C63.7408 47.284 63.5618 47.1281 63.4222 46.9331C63.2826 46.7382 63.1825 46.5102 63.1187 46.2553C63.055 45.9973 63.0247 45.7304 63.0247 45.4485C63.0247 45.1636 63.058 44.8906 63.1218 44.6297C63.1885 44.3718 63.2917 44.1408 63.4374 43.9429C63.583 43.7449 63.7651 43.586 63.9866 43.466C64.2081 43.346 64.4752 43.2891 64.7847 43.2891C64.9546 43.2891 65.1033 43.3041 65.2368 43.3341C65.3673 43.364 65.4857 43.406 65.5919 43.46C65.6981 43.517 65.7952 43.58 65.8771 43.655C65.9621 43.7299 66.041 43.8139 66.1199 43.9099L66.0956 43.418H66.6934V47.383H66.6965ZM65.4493 46.9391C65.6951 46.8131 65.8711 46.6212 65.9742 46.3693C66.0774 46.1143 66.129 45.8294 66.129 45.5115C66.129 45.2775 66.1078 45.0586 66.0622 44.8517C66.0198 44.6447 65.9439 44.4648 65.8407 44.3088C65.7375 44.1528 65.601 44.0299 65.4341 43.9399C65.2672 43.8499 65.0608 43.8049 64.815 43.8049C64.5905 43.8049 64.4084 43.8589 64.2658 43.9639C64.1232 44.0689 64.0079 44.2038 63.9229 44.3658C63.8349 44.5277 63.7742 44.7077 63.7438 44.9056C63.7105 45.1036 63.6953 45.2985 63.6953 45.4875C63.6953 45.6944 63.7165 45.8924 63.756 46.0783C63.7954 46.2673 63.8652 46.4352 63.9593 46.5822C64.0564 46.7292 64.1778 46.8491 64.3265 46.9361C64.4782 47.0231 64.6572 47.0681 64.8727 47.0681C65.1064 47.0651 65.2975 47.0231 65.4493 46.9391Z" fill="#29518D"/>
<path d="M72.3165 47.2921C72.3165 47.3911 72.271 47.4421 72.1769 47.4421H71.6519C71.5761 47.4421 71.5215 47.4061 71.4881 47.3401L68.939 43.2132L68.4717 42.3494L68.4869 43.2942V47.4451H67.8557V41.6686C67.8557 41.5696 67.9012 41.5186 67.9953 41.5186H68.5203C68.5901 41.5186 68.6447 41.5516 68.6841 41.6206L71.2332 45.7475L71.7005 46.6113L71.6853 45.6665V41.5156H72.3165V47.2921Z" fill="#29518D"/>
<path d="M75.8973 47.4393L75.873 47.0015C75.7517 47.1544 75.5757 47.2864 75.342 47.3974C75.1083 47.5083 74.8595 47.5653 74.5955 47.5653C74.3983 47.5653 74.2131 47.5383 74.0432 47.4813C73.8702 47.4243 73.7215 47.3434 73.5941 47.2384C73.4666 47.1334 73.3635 47.0015 73.2906 46.8425C73.2178 46.6835 73.1814 46.5036 73.1814 46.3026C73.1814 46.0177 73.2542 45.7778 73.4029 45.5858C73.5516 45.3939 73.7549 45.2439 74.0159 45.1359C74.1525 45.073 74.3011 45.025 74.465 44.998C74.6289 44.968 74.7927 44.95 74.9566 44.941C75.1205 44.932 75.2813 44.929 75.4391 44.932C75.5969 44.935 75.7395 44.935 75.8639 44.935V44.6411C75.8366 44.3142 75.7395 44.0892 75.5757 43.9663C75.4118 43.8433 75.1933 43.7833 74.9202 43.7833C74.6744 43.7833 74.468 43.8313 74.3011 43.9273C74.1342 44.0232 74.0341 44.2122 74.0007 44.4971H73.321C73.3331 44.2842 73.3847 44.1042 73.4757 43.9483C73.5698 43.7953 73.6882 43.6693 73.8369 43.5674C73.9856 43.4684 74.1525 43.3934 74.3406 43.3454C74.5287 43.2974 74.7229 43.2734 74.9263 43.2734C75.3966 43.2734 75.7699 43.3874 76.046 43.6093C76.3222 43.8343 76.4557 44.1852 76.4526 44.6621V46.8215C76.4526 46.9115 76.4557 47.0165 76.4617 47.1334C76.4678 47.2534 76.4769 47.3524 76.4951 47.4303H75.8973V47.4393ZM75.8397 46.0597C75.873 45.8648 75.8882 45.6638 75.8882 45.4569C75.785 45.4569 75.6606 45.4539 75.518 45.4479C75.3754 45.4419 75.2297 45.4449 75.081 45.4509C74.9293 45.4599 74.7806 45.4779 74.6319 45.5078C74.4802 45.5378 74.3467 45.5828 74.2313 45.6458C74.113 45.7088 74.0189 45.7958 73.9491 45.9037C73.8793 46.0117 73.8429 46.1497 73.8429 46.3116C73.8429 46.5816 73.9249 46.7735 74.0918 46.8845C74.2587 46.9955 74.4589 47.0524 74.6926 47.0524C74.8777 47.0524 75.0355 47.0284 75.169 46.9805C75.3754 46.9025 75.5332 46.7795 75.6363 46.6206C75.7395 46.4556 75.8063 46.2696 75.8397 46.0597Z" fill="#29518D"/>
<path d="M83.3532 47.4393H82.7402V44.932C82.7402 44.5361 82.6734 44.2452 82.5399 44.0622C82.4064 43.8793 82.1667 43.7893 81.8237 43.7893C81.7084 43.7893 81.5931 43.8133 81.4748 43.8553C81.3564 43.9003 81.2502 43.9663 81.1561 44.0532C81.059 44.1402 80.9771 44.2512 80.9103 44.3831C80.8406 44.5151 80.7981 44.6681 80.7738 44.842V47.4363H80.176V44.929C80.176 44.5331 80.1062 44.2422 79.9666 44.0592C79.827 43.8763 79.5903 43.7863 79.2565 43.7863C79.126 43.7863 78.9955 43.8133 78.862 43.8703C78.7315 43.9273 78.6162 44.0082 78.5131 44.1162C78.4129 44.2242 78.331 44.3622 78.2673 44.5241C78.2035 44.6891 78.1732 44.878 78.1732 45.094V47.4363H77.5845V43.4054H78.1914L78.1762 43.9213C78.3674 43.6843 78.5616 43.5164 78.7619 43.4204C78.9622 43.3244 79.1928 43.2764 79.4538 43.2764C80.094 43.2764 80.5007 43.5374 80.6737 44.0622L80.7404 43.9183C80.9255 43.6813 81.1228 43.5134 81.3261 43.4174C81.5294 43.3214 81.7631 43.2734 82.0271 43.2734C82.4762 43.2734 82.8069 43.3994 83.0254 43.6543C83.2439 43.9093 83.3532 44.2752 83.3532 44.758V47.4393Z" fill="#29518D"/>
<path d="M87.8685 47.4456H87.2222V41.4922H87.8685V47.4456Z" fill="#29518D"/>
<path d="M92.554 47.4412H91.9229V44.9338C91.9229 44.5379 91.85 44.247 91.7044 44.064C91.5587 43.8811 91.3129 43.7911 90.9639 43.7911C90.8274 43.7911 90.6908 43.8181 90.5573 43.8751C90.4238 43.9321 90.3024 44.0131 90.1962 44.121C90.09 44.229 90.005 44.367 89.9383 44.5289C89.8715 44.6939 89.8411 44.8828 89.8411 45.0988V47.4412H89.2524V43.4102H89.8594L89.8442 43.9261C90.0354 43.6891 90.2387 43.5212 90.4541 43.4252C90.6696 43.3292 90.9123 43.2812 91.1794 43.2812C91.6437 43.2812 91.9896 43.4072 92.2172 43.6622C92.4448 43.9171 92.5571 44.283 92.5571 44.7659V47.4412H92.554Z" fill="#29518D"/>
<path d="M95.5037 47.3652C95.4885 47.4192 95.443 47.4432 95.3732 47.4432H94.9059C94.8391 47.4432 94.7966 47.4162 94.7754 47.3652L93.1367 43.4062H93.8256L95.1456 46.8044L96.4656 43.4062H97.1545L95.5037 47.3652Z" fill="#29518D"/>
<path d="M101.148 46.1053C101.017 46.6182 100.793 46.9931 100.471 47.224C100.153 47.458 99.7338 47.5719 99.2209 47.5719C98.9084 47.5719 98.6383 47.5149 98.4046 47.398C98.171 47.281 97.9828 47.1251 97.8311 46.9271C97.6794 46.7292 97.5701 46.5012 97.4942 46.2403C97.4214 45.9824 97.385 45.7124 97.385 45.4305C97.385 45.1546 97.4245 44.8876 97.5034 44.6297C97.5823 44.3718 97.7006 44.1408 97.8554 43.9429C98.0101 43.7449 98.2074 43.586 98.441 43.466C98.6747 43.346 98.9478 43.2891 99.2604 43.2891C99.6002 43.2891 99.8916 43.343 100.134 43.448C100.377 43.553 100.577 43.703 100.732 43.8919C100.887 44.0809 101.002 44.3088 101.072 44.5697C101.142 44.8307 101.178 45.1156 101.178 45.4215C101.178 45.5235 101.133 45.5715 101.039 45.5715H98.0556C98.0556 45.7784 98.0799 45.9734 98.1285 46.1563C98.177 46.3393 98.2559 46.4952 98.3621 46.6272C98.4683 46.7591 98.6049 46.8641 98.7718 46.9391C98.9387 47.0171 99.139 47.0531 99.3726 47.0531C99.6518 47.0531 99.8824 46.9691 100.071 46.8041C100.256 46.6362 100.386 46.4022 100.465 46.1023H101.148V46.1053ZM100.526 45.0646C100.498 44.6837 100.383 44.3778 100.177 44.1438C99.9735 43.9099 99.67 43.7959 99.2725 43.7959C99.0874 43.7959 98.9235 43.8289 98.7809 43.8979C98.6383 43.9669 98.5199 44.0599 98.4198 44.1768C98.3227 44.2938 98.2438 44.4288 98.1861 44.5817C98.1285 44.7347 98.0921 44.8966 98.0769 45.0646H100.526Z" fill="#29518D"/>
<path d="M104.425 44.4648C104.413 44.3328 104.383 44.2218 104.328 44.1348C104.273 44.0479 104.204 43.9789 104.119 43.9279C104.034 43.8769 103.94 43.8409 103.83 43.8199C103.724 43.7989 103.612 43.7869 103.49 43.7869C103.381 43.7869 103.275 43.7989 103.175 43.8199C103.075 43.8409 102.984 43.8769 102.905 43.9219C102.826 43.9699 102.762 44.0329 102.717 44.1078C102.671 44.1858 102.647 44.2818 102.647 44.3988C102.647 44.5427 102.686 44.6477 102.768 44.7197C102.85 44.7917 102.965 44.8517 103.117 44.8996C103.269 44.9476 103.454 44.9956 103.676 45.0436C103.897 45.0916 104.146 45.1666 104.425 45.2655C104.719 45.3555 104.929 45.4815 105.047 45.6434C105.169 45.8054 105.226 46.0004 105.226 46.2283C105.226 46.4622 105.178 46.6632 105.078 46.8311C104.98 47.0021 104.847 47.1401 104.683 47.248C104.519 47.356 104.328 47.437 104.113 47.491C103.897 47.5449 103.673 47.5689 103.436 47.5689C103.257 47.5689 103.072 47.5479 102.887 47.506C102.701 47.464 102.532 47.392 102.38 47.293C102.228 47.191 102.101 47.0591 101.997 46.8971C101.897 46.7322 101.84 46.5312 101.831 46.2943H102.501C102.513 46.4532 102.547 46.5822 102.607 46.6782C102.668 46.7771 102.744 46.8521 102.841 46.9091C102.935 46.9631 103.044 47.0021 103.169 47.0231C103.293 47.0441 103.418 47.0561 103.551 47.0561C103.676 47.0561 103.8 47.0441 103.918 47.0171C104.04 46.9901 104.146 46.9481 104.237 46.8911C104.331 46.8341 104.404 46.7562 104.462 46.6602C104.519 46.5642 104.546 46.4472 104.546 46.3123C104.546 46.1683 104.513 46.0543 104.443 45.9704C104.374 45.8864 104.282 45.8174 104.17 45.7694C104.055 45.7184 103.924 45.6794 103.773 45.6464C103.621 45.6135 103.466 45.5805 103.302 45.5445C103.145 45.5085 102.987 45.4665 102.826 45.4215C102.668 45.3765 102.525 45.3135 102.401 45.2356C102.277 45.1576 102.173 45.0556 102.098 44.9296C102.022 44.8067 101.982 44.6447 101.982 44.4498C101.982 44.2338 102.028 44.0509 102.122 43.9009C102.216 43.7539 102.334 43.634 102.483 43.544C102.632 43.454 102.796 43.388 102.978 43.349C103.16 43.3101 103.342 43.2891 103.524 43.2891C103.727 43.2891 103.915 43.3101 104.094 43.349C104.27 43.388 104.431 43.454 104.571 43.544C104.71 43.634 104.826 43.7539 104.914 43.9039C105.005 44.0539 105.062 44.2428 105.09 44.4708H104.425V44.4648Z" fill="#29518D"/>
<path d="M108.021 47.4878C107.933 47.5148 107.845 47.5328 107.751 47.5478C107.657 47.5598 107.569 47.5688 107.481 47.5688C107.332 47.5688 107.196 47.5538 107.068 47.5238C106.941 47.4938 106.829 47.4428 106.737 47.3648C106.643 47.2869 106.571 47.1819 106.519 47.0469C106.467 46.912 106.44 46.738 106.44 46.5281V43.9097H105.63V43.3939H106.44V42.2422H107.047V43.3939H107.973V43.9097H107.047V46.4501C107.047 46.699 107.096 46.864 107.19 46.9509C107.284 47.0349 107.408 47.0769 107.563 47.0769C107.66 47.0769 107.745 47.0679 107.812 47.0529C107.882 47.0379 107.951 47.0139 108.021 46.9809V47.4878Z" fill="#29518D"/>
<path d="M114.545 47.4393H113.932V44.932C113.932 44.5361 113.866 44.2452 113.732 44.0622C113.599 43.8793 113.359 43.7893 113.016 43.7893C112.901 43.7893 112.785 43.8133 112.667 43.8553C112.549 43.9003 112.442 43.9663 112.348 44.0532C112.251 44.1402 112.172 44.2512 112.102 44.3831C112.036 44.5151 111.99 44.6681 111.966 44.842V47.4363H111.368V44.929C111.368 44.5331 111.298 44.2422 111.159 44.0592C111.019 43.8763 110.782 43.7863 110.449 43.7863C110.318 43.7863 110.188 43.8133 110.054 43.8703C109.924 43.9273 109.808 44.0082 109.705 44.1162C109.605 44.2242 109.523 44.3622 109.459 44.5241C109.396 44.6891 109.365 44.878 109.365 45.094V47.4363H108.777V43.4054H109.384L109.368 43.9213C109.56 43.6843 109.754 43.5164 109.954 43.4204C110.154 43.3244 110.385 43.2764 110.646 43.2764C111.286 43.2764 111.693 43.5374 111.866 44.0622L111.933 43.9183C112.118 43.6813 112.312 43.5134 112.518 43.4174C112.722 43.3214 112.955 43.2734 113.219 43.2734C113.668 43.2734 113.999 43.3994 114.218 43.6543C114.436 43.9093 114.545 44.2752 114.545 44.758V47.4393Z" fill="#29518D"/>
<path d="M119.452 46.1053C119.322 46.6182 119.097 46.9931 118.776 47.224C118.457 47.458 118.038 47.5719 117.525 47.5719C117.213 47.5719 116.943 47.5149 116.709 47.398C116.475 47.281 116.284 47.1251 116.136 46.9271C115.984 46.7292 115.875 46.5012 115.799 46.2403C115.726 45.9824 115.689 45.7124 115.689 45.4305C115.689 45.1546 115.729 44.8876 115.808 44.6297C115.887 44.3718 116.005 44.1408 116.16 43.9429C116.315 43.7449 116.512 43.586 116.745 43.466C116.979 43.346 117.252 43.2891 117.565 43.2891C117.905 43.2891 118.193 43.343 118.439 43.448C118.682 43.553 118.882 43.703 119.037 43.8919C119.191 44.0809 119.307 44.3088 119.376 44.5697C119.446 44.8307 119.483 45.1156 119.483 45.4215C119.483 45.5235 119.437 45.5715 119.343 45.5715H116.36C116.36 45.7784 116.384 45.9734 116.433 46.1563C116.481 46.3393 116.56 46.4952 116.667 46.6272C116.773 46.7591 116.909 46.8641 117.076 46.9391C117.243 47.0171 117.443 47.0531 117.677 47.0531C117.956 47.0531 118.187 46.9691 118.372 46.8041C118.557 46.6362 118.688 46.4022 118.766 46.1023H119.452V46.1053ZM118.83 45.0646C118.803 44.6837 118.688 44.3778 118.481 44.1438C118.278 43.9099 117.974 43.7959 117.577 43.7959C117.392 43.7959 117.228 43.8289 117.085 43.8979C116.943 43.9669 116.824 44.0599 116.724 44.1768C116.627 44.2938 116.548 44.4288 116.491 44.5817C116.433 44.7347 116.397 44.8966 116.381 45.0646H118.83Z" fill="#29518D"/>
<path d="M123.77 47.4412H123.139V44.9338C123.139 44.5379 123.066 44.247 122.921 44.064C122.775 43.8811 122.529 43.7911 122.18 43.7911C122.044 43.7911 121.907 43.8181 121.774 43.8751C121.64 43.9321 121.519 44.0131 121.413 44.121C121.306 44.229 121.221 44.367 121.155 44.5289C121.088 44.6939 121.057 44.8828 121.057 45.0988V47.4412H120.469V43.4102H121.076L121.06 43.9261C121.252 43.6891 121.455 43.5212 121.67 43.4252C121.886 43.3292 122.129 43.2812 122.396 43.2812C122.86 43.2812 123.206 43.4072 123.434 43.6622C123.661 43.9171 123.773 44.283 123.773 44.7659V47.4412H123.77Z" fill="#29518D"/>
<path d="M126.866 47.4878C126.778 47.5148 126.69 47.5328 126.596 47.5478C126.501 47.5598 126.413 47.5688 126.325 47.5688C126.177 47.5688 126.04 47.5538 125.913 47.5238C125.785 47.4938 125.673 47.4428 125.582 47.3648C125.488 47.2869 125.418 47.1819 125.363 47.0469C125.312 46.912 125.285 46.738 125.285 46.5281V43.9097H124.474V43.3939H125.285V42.2422H125.891V43.3939H126.817V43.9097H125.891V46.4501C125.891 46.699 125.94 46.864 126.034 46.9509C126.128 47.0349 126.253 47.0769 126.407 47.0769C126.504 47.0769 126.589 47.0679 126.656 47.0529C126.726 47.0379 126.796 47.0139 126.866 46.9809V47.4878Z" fill="#29518D"/>
<path d="M135.199 47.4033H134.379L133.699 46.6655C133.469 46.9355 133.199 47.1484 132.883 47.3014C132.568 47.4543 132.216 47.5323 131.821 47.5323C131.663 47.5323 131.518 47.5263 131.384 47.5173C131.251 47.5053 131.123 47.4873 131.008 47.4573C130.889 47.4273 130.777 47.3913 130.668 47.3434C130.559 47.2954 130.446 47.2324 130.331 47.1544C130.134 47.0164 129.979 46.8455 129.867 46.6385C129.755 46.4316 129.7 46.1767 129.7 45.8767C129.7 45.6908 129.736 45.5138 129.806 45.3459C129.876 45.1779 129.973 45.013 130.097 44.854C130.222 44.6951 130.365 44.5421 130.531 44.3951C130.698 44.2482 130.88 44.1012 131.078 43.9572C131.09 43.9453 131.102 43.9363 131.114 43.9303C131.126 43.9213 131.138 43.9123 131.15 43.9033C130.932 43.6873 130.756 43.4714 130.622 43.2614C130.489 43.0485 130.422 42.8026 130.422 42.5236C130.422 42.3557 130.449 42.1967 130.504 42.0527C130.559 41.9088 130.641 41.7828 130.753 41.6748C130.865 41.5699 131.002 41.4859 131.163 41.4259C131.323 41.3659 131.512 41.3359 131.724 41.3359C132.188 41.3359 132.534 41.4379 132.762 41.6389C132.989 41.8398 133.102 42.0917 133.102 42.3917C133.102 42.5716 133.071 42.7366 133.008 42.8865C132.944 43.0365 132.862 43.1775 132.759 43.3064C132.656 43.4354 132.537 43.5584 132.404 43.6723C132.27 43.7863 132.134 43.8973 131.997 44.0022L133.611 45.7178C133.706 45.4958 133.781 45.2559 133.842 45.001C133.903 44.743 133.933 44.4701 133.933 44.1792H134.482C134.495 44.5601 134.464 44.92 134.391 45.2559C134.322 45.5918 134.206 45.9037 134.048 46.1887L135.199 47.4033ZM131.536 44.3142C131.357 44.4461 131.196 44.5721 131.053 44.6861C130.911 44.803 130.792 44.92 130.692 45.04C130.595 45.1599 130.516 45.2859 130.462 45.4209C130.407 45.5558 130.38 45.7058 130.38 45.8707C130.38 46.0567 130.419 46.2187 130.501 46.3536C130.583 46.4916 130.689 46.6055 130.817 46.6985C130.944 46.7915 131.09 46.8605 131.251 46.9085C131.411 46.9565 131.575 46.9805 131.739 46.9805C132.067 46.9805 132.361 46.9145 132.625 46.7825C132.886 46.6505 133.111 46.4646 133.296 46.2276L131.536 44.3142ZM131.612 43.6093C131.742 43.5194 131.861 43.4324 131.967 43.3484C132.073 43.2644 132.167 43.1745 132.246 43.0815C132.325 42.9885 132.386 42.8895 132.425 42.7846C132.464 42.6796 132.486 42.5566 132.486 42.4187C132.486 42.2507 132.428 42.1067 132.313 41.9868C132.197 41.8668 132 41.8068 131.724 41.8068C131.518 41.8068 131.345 41.8698 131.211 41.9928C131.078 42.1157 131.011 42.2777 131.011 42.4726C131.011 42.5836 131.023 42.6826 131.047 42.7696C131.072 42.8565 131.108 42.9405 131.154 43.0245C131.199 43.1055 131.257 43.1894 131.326 43.2734C131.393 43.3574 131.475 43.4534 131.569 43.5584L131.612 43.6093Z" fill="#29518D"/>
<path d="M138.091 47.4409C137.996 47.4409 137.951 47.3899 137.951 47.2909V41.6734C137.951 41.5744 137.996 41.5234 138.091 41.5234H140.066C140.285 41.5234 140.497 41.5564 140.7 41.6224C140.904 41.6884 141.083 41.7844 141.237 41.9133C141.389 42.0393 141.513 42.1953 141.605 42.3812C141.699 42.5672 141.744 42.7771 141.744 43.017C141.744 43.176 141.717 43.326 141.662 43.4699C141.608 43.6139 141.535 43.7429 141.441 43.8598C141.347 43.9768 141.237 44.0758 141.104 44.1597C140.973 44.2437 140.831 44.3067 140.679 44.3487C141.077 44.4237 141.395 44.5856 141.629 44.8406C141.862 45.0955 141.981 45.4314 141.981 45.8483C141.981 46.0432 141.947 46.2382 141.884 46.4271C141.817 46.6191 141.714 46.7871 141.571 46.94C141.429 47.09 141.243 47.2129 141.019 47.3059C140.791 47.3989 140.518 47.4439 140.196 47.4439H138.091V47.4409ZM139.787 44.0998C139.951 44.0998 140.108 44.0818 140.263 44.0488C140.415 44.0158 140.552 43.9558 140.673 43.8748C140.794 43.7938 140.891 43.6859 140.964 43.5539C141.037 43.4219 141.073 43.257 141.073 43.062C141.073 42.8551 141.034 42.6871 140.958 42.5582C140.882 42.4292 140.782 42.3272 140.658 42.2552C140.533 42.1833 140.394 42.1353 140.236 42.1083C140.078 42.0813 139.917 42.0663 139.753 42.0603H138.582V44.0998H139.787ZM139.796 46.892C140.042 46.898 140.26 46.883 140.448 46.853C140.637 46.82 140.794 46.7631 140.925 46.6761C141.052 46.5891 141.149 46.4721 141.216 46.3222C141.283 46.1752 141.313 45.9893 141.313 45.7673C141.313 45.5244 141.271 45.3294 141.183 45.1795C141.095 45.0325 140.97 44.9185 140.809 44.8376C140.649 44.7596 140.457 44.7056 140.236 44.6786C140.014 44.6516 139.772 44.6396 139.511 44.6396H138.585V46.892H139.796Z" fill="#29518D"/>
<path d="M146.466 47.4402H145.868L145.883 46.9243C145.686 47.1613 145.483 47.3292 145.27 47.4252C145.058 47.5212 144.818 47.5692 144.548 47.5692C144.084 47.5692 143.738 47.4432 143.507 47.1883C143.277 46.9333 143.164 46.5674 143.164 46.0845V43.4092H143.795V45.9166C143.795 46.3125 143.868 46.6034 144.014 46.7864C144.16 46.9693 144.405 47.0593 144.754 47.0593C144.891 47.0593 145.028 47.0323 145.164 46.9753C145.301 46.9213 145.422 46.8373 145.528 46.7294C145.634 46.6214 145.719 46.4834 145.786 46.3215C145.853 46.1565 145.883 45.9676 145.883 45.7486V43.4062H146.466V47.4402Z" fill="#29518D"/>
<path d="M149.907 44.4648C149.895 44.3328 149.865 44.2218 149.81 44.1348C149.755 44.0479 149.686 43.9789 149.601 43.9279C149.516 43.8769 149.422 43.8409 149.312 43.8199C149.206 43.7989 149.094 43.7869 148.972 43.7869C148.863 43.7869 148.757 43.7989 148.657 43.8199C148.557 43.8409 148.466 43.8769 148.387 43.9219C148.308 43.9699 148.244 44.0329 148.199 44.1078C148.153 44.1858 148.129 44.2818 148.129 44.3988C148.129 44.5427 148.168 44.6477 148.25 44.7197C148.332 44.7917 148.447 44.8517 148.599 44.8996C148.751 44.9476 148.936 44.9956 149.158 45.0436C149.379 45.0916 149.628 45.1666 149.907 45.2655C150.201 45.3555 150.411 45.4815 150.529 45.6434C150.651 45.8054 150.708 46.0004 150.708 46.2283C150.708 46.4622 150.66 46.6632 150.559 46.8311C150.462 47.0021 150.329 47.1401 150.165 47.248C150.001 47.356 149.81 47.437 149.594 47.491C149.379 47.5449 149.154 47.5689 148.918 47.5689C148.739 47.5689 148.554 47.5479 148.369 47.506C148.183 47.464 148.013 47.392 147.862 47.293C147.71 47.191 147.583 47.0591 147.479 46.8971C147.379 46.7322 147.322 46.5312 147.312 46.2943H147.983C147.995 46.4532 148.029 46.5822 148.089 46.6782C148.15 46.7771 148.226 46.8521 148.323 46.9091C148.417 46.9631 148.526 47.0021 148.651 47.0231C148.775 47.0441 148.9 47.0561 149.033 47.0561C149.158 47.0561 149.282 47.0441 149.4 47.0171C149.522 46.9901 149.628 46.9481 149.719 46.8911C149.813 46.8341 149.886 46.7562 149.943 46.6602C150.001 46.5642 150.028 46.4472 150.028 46.3123C150.028 46.1683 149.995 46.0543 149.925 45.9704C149.855 45.8864 149.764 45.8174 149.652 45.7694C149.537 45.7184 149.406 45.6794 149.255 45.6464C149.103 45.6135 148.948 45.5805 148.784 45.5445C148.626 45.5085 148.469 45.4665 148.308 45.4215C148.15 45.3765 148.007 45.3135 147.883 45.2356C147.759 45.1576 147.655 45.0556 147.58 44.9296C147.504 44.8067 147.464 44.6447 147.464 44.4498C147.464 44.2338 147.51 44.0509 147.604 43.9009C147.698 43.7539 147.816 43.634 147.965 43.544C148.114 43.454 148.277 43.388 148.46 43.349C148.642 43.3101 148.824 43.2891 149.006 43.2891C149.209 43.2891 149.397 43.3101 149.576 43.349C149.752 43.388 149.913 43.454 150.053 43.544C150.192 43.634 150.308 43.7539 150.396 43.9039C150.487 44.0539 150.544 44.2428 150.572 44.4708H149.907V44.4648Z" fill="#29518D"/>
<path d="M152.332 42.2061H151.637V41.5312H152.332V42.2061ZM152.298 47.4427H151.667V43.3248H152.298V47.4427Z" fill="#29518D"/>
<path d="M156.765 47.4412H156.134V44.9338C156.134 44.5379 156.061 44.247 155.916 44.064C155.77 43.8811 155.524 43.7911 155.175 43.7911C155.039 43.7911 154.902 43.8181 154.768 43.8751C154.635 43.9321 154.514 44.0131 154.407 44.121C154.301 44.229 154.216 44.367 154.149 44.5289C154.083 44.6939 154.052 44.8828 154.052 45.0988V47.4412H153.464V43.4102H154.071L154.055 43.9261C154.247 43.6891 154.45 43.5212 154.665 43.4252C154.881 43.3292 155.124 43.2812 155.391 43.2812C155.855 43.2812 156.201 43.4072 156.428 43.6622C156.656 43.9171 156.768 44.283 156.768 44.7659V47.4412H156.765Z" fill="#29518D"/>
<path d="M161.426 46.1053C161.296 46.6182 161.071 46.9931 160.749 47.224C160.431 47.458 160.012 47.5719 159.499 47.5719C159.187 47.5719 158.917 47.5149 158.683 47.398C158.449 47.281 158.258 47.1251 158.109 46.9271C157.958 46.7292 157.848 46.5012 157.773 46.2403C157.7 45.9824 157.663 45.7124 157.663 45.4305C157.663 45.1546 157.703 44.8876 157.782 44.6297C157.861 44.3718 157.979 44.1408 158.134 43.9429C158.288 43.7449 158.486 43.586 158.719 43.466C158.953 43.346 159.226 43.2891 159.539 43.2891C159.879 43.2891 160.167 43.343 160.413 43.448C160.655 43.553 160.856 43.703 161.01 43.8919C161.165 44.0809 161.281 44.3088 161.35 44.5697C161.42 44.8307 161.457 45.1156 161.457 45.4215C161.457 45.5235 161.411 45.5715 161.317 45.5715H158.334C158.334 45.7784 158.358 45.9734 158.407 46.1563C158.455 46.3393 158.534 46.4952 158.64 46.6272C158.747 46.7591 158.883 46.8641 159.05 46.9391C159.217 47.0171 159.417 47.0531 159.651 47.0531C159.93 47.0531 160.161 46.9691 160.346 46.8041C160.531 46.6362 160.661 46.4022 160.74 46.1023H161.426V46.1053ZM160.804 45.0646C160.777 44.6837 160.661 44.3778 160.455 44.1438C160.249 43.9099 159.948 43.7959 159.551 43.7959C159.366 43.7959 159.202 43.8289 159.059 43.8979C158.917 43.9669 158.798 44.0599 158.698 44.1768C158.601 44.2938 158.522 44.4288 158.464 44.5817C158.407 44.7347 158.37 44.8966 158.355 45.0646H160.804Z" fill="#29518D"/>
<path d="M164.703 44.4648C164.691 44.3328 164.661 44.2218 164.606 44.1348C164.552 44.0479 164.482 43.9789 164.397 43.9279C164.312 43.8769 164.218 43.8409 164.109 43.8199C164.002 43.7989 163.89 43.7869 163.769 43.7869C163.66 43.7869 163.553 43.7989 163.453 43.8199C163.353 43.8409 163.262 43.8769 163.183 43.9219C163.104 43.9699 163.04 44.0329 162.995 44.1078C162.949 44.1858 162.925 44.2818 162.925 44.3988C162.925 44.5427 162.965 44.6477 163.047 44.7197C163.128 44.7917 163.244 44.8517 163.396 44.8996C163.547 44.9476 163.732 44.9956 163.954 45.0436C164.175 45.0916 164.424 45.1666 164.703 45.2655C164.998 45.3555 165.207 45.4815 165.326 45.6434C165.447 45.8054 165.505 46.0004 165.505 46.2283C165.505 46.4622 165.456 46.6632 165.356 46.8311C165.259 47.0021 165.125 47.1401 164.961 47.248C164.797 47.356 164.606 47.437 164.391 47.491C164.175 47.5449 163.951 47.5689 163.714 47.5689C163.535 47.5689 163.35 47.5479 163.165 47.506C162.98 47.464 162.81 47.392 162.658 47.293C162.506 47.191 162.379 47.0591 162.276 46.8971C162.176 46.7322 162.118 46.5312 162.109 46.2943H162.78C162.792 46.4532 162.825 46.5822 162.886 46.6782C162.946 46.7771 163.022 46.8521 163.119 46.9091C163.213 46.9631 163.323 47.0021 163.447 47.0231C163.572 47.0441 163.696 47.0561 163.829 47.0561C163.954 47.0561 164.078 47.0441 164.197 47.0171C164.318 46.9901 164.424 46.9481 164.515 46.8911C164.609 46.8341 164.682 46.7562 164.74 46.6602C164.797 46.5642 164.825 46.4472 164.825 46.3123C164.825 46.1683 164.791 46.0543 164.722 45.9704C164.652 45.8864 164.561 45.8174 164.449 45.7694C164.333 45.7184 164.203 45.6794 164.051 45.6464C163.899 45.6135 163.745 45.5805 163.581 45.5445C163.423 45.5085 163.265 45.4665 163.104 45.4215C162.946 45.3765 162.804 45.3135 162.679 45.2356C162.555 45.1576 162.452 45.0556 162.376 44.9296C162.3 44.8067 162.261 44.6447 162.261 44.4498C162.261 44.2338 162.306 44.0509 162.4 43.9009C162.494 43.7539 162.613 43.634 162.761 43.544C162.91 43.454 163.074 43.388 163.256 43.349C163.438 43.3101 163.62 43.2891 163.802 43.2891C164.005 43.2891 164.194 43.3101 164.373 43.349C164.549 43.388 164.709 43.454 164.849 43.544C164.989 43.634 165.104 43.7539 165.192 43.9039C165.283 44.0539 165.341 44.2428 165.368 44.4708H164.703V44.4648Z" fill="#29518D"/>
<path d="M168.685 44.4648C168.673 44.3328 168.642 44.2218 168.588 44.1348C168.533 44.0479 168.463 43.9789 168.378 43.9279C168.293 43.8769 168.199 43.8409 168.09 43.8199C167.984 43.7989 167.872 43.7869 167.75 43.7869C167.641 43.7869 167.535 43.7989 167.435 43.8199C167.334 43.8409 167.243 43.8769 167.165 43.9219C167.086 43.9699 167.022 44.0329 166.976 44.1078C166.931 44.1858 166.907 44.2818 166.907 44.3988C166.907 44.5427 166.946 44.6477 167.028 44.7197C167.11 44.7917 167.225 44.8517 167.377 44.8996C167.529 44.9476 167.714 44.9956 167.935 45.0436C168.157 45.0916 168.406 45.1666 168.685 45.2655C168.979 45.3555 169.189 45.4815 169.307 45.6434C169.428 45.8054 169.486 46.0004 169.486 46.2283C169.486 46.4622 169.437 46.6632 169.337 46.8311C169.24 47.0021 169.107 47.1401 168.943 47.248C168.779 47.356 168.588 47.437 168.372 47.491C168.157 47.5449 167.932 47.5689 167.696 47.5689C167.517 47.5689 167.331 47.5479 167.146 47.506C166.961 47.464 166.791 47.392 166.64 47.293C166.488 47.191 166.36 47.0591 166.257 46.8971C166.157 46.7322 166.099 46.5312 166.09 46.2943H166.761C166.773 46.4532 166.806 46.5822 166.867 46.6782C166.928 46.7771 167.004 46.8521 167.101 46.9091C167.195 46.9631 167.304 47.0021 167.429 47.0231C167.553 47.0441 167.677 47.0561 167.811 47.0561C167.935 47.0561 168.06 47.0441 168.178 47.0171C168.299 46.9901 168.406 46.9481 168.497 46.8911C168.591 46.8341 168.664 46.7562 168.721 46.6602C168.779 46.5642 168.806 46.4472 168.806 46.3123C168.806 46.1683 168.773 46.0543 168.703 45.9704C168.633 45.8864 168.542 45.8174 168.43 45.7694C168.315 45.7184 168.184 45.6794 168.032 45.6464C167.881 45.6135 167.726 45.5805 167.562 45.5445C167.404 45.5085 167.246 45.4665 167.086 45.4215C166.928 45.3765 166.785 45.3135 166.661 45.2356C166.536 45.1576 166.433 45.0556 166.357 44.9296C166.282 44.8067 166.242 44.6447 166.242 44.4498C166.242 44.2338 166.288 44.0509 166.382 43.9009C166.476 43.7539 166.594 43.634 166.743 43.544C166.891 43.454 167.055 43.388 167.237 43.349C167.419 43.3101 167.602 43.2891 167.784 43.2891C167.987 43.2891 168.175 43.3101 168.354 43.349C168.53 43.388 168.691 43.454 168.831 43.544C168.97 43.634 169.085 43.7539 169.173 43.9039C169.264 44.0539 169.322 44.2428 169.349 44.4708H168.685V44.4648Z" fill="#29518D"/>
<path d="M177.394 47.4421H176.723L176.135 45.8615H173.398L172.809 47.4421H172.138L174.375 41.5936C174.39 41.5396 174.438 41.5156 174.514 41.5156H175.015C175.097 41.5156 175.145 41.5426 175.164 41.5936L177.394 47.4421ZM175.928 45.3156L175.036 42.8953L174.766 42.0765L174.496 42.8953L173.604 45.3156H175.928Z" fill="#29518D"/>
<path d="M181.409 47.383C181.409 47.9108 181.257 48.3127 180.951 48.5887C180.644 48.8646 180.201 49.0026 179.624 49.0026C179.139 49.0026 178.738 48.9126 178.423 48.7326C178.107 48.5527 177.928 48.2588 177.88 47.8509H178.584C178.596 47.9768 178.635 48.0818 178.702 48.1658C178.772 48.2468 178.854 48.3157 178.957 48.3667C179.057 48.4207 179.169 48.4567 179.294 48.4777C179.418 48.4987 179.539 48.5107 179.667 48.5107C180.043 48.5107 180.332 48.4117 180.532 48.2108C180.732 48.0098 180.832 47.7009 180.832 47.281L180.847 46.8911C180.699 47.1251 180.501 47.296 180.253 47.407C180.004 47.5179 179.752 47.5749 179.494 47.5749C179.172 47.5749 178.899 47.5179 178.678 47.401C178.456 47.284 178.277 47.1281 178.138 46.9331C177.998 46.7382 177.898 46.5102 177.834 46.2553C177.77 45.9973 177.74 45.7304 177.74 45.4485C177.74 45.1636 177.773 44.8906 177.837 44.6297C177.904 44.3718 178.007 44.1408 178.153 43.9429C178.298 43.7449 178.48 43.586 178.702 43.466C178.923 43.346 179.191 43.2891 179.5 43.2891C179.67 43.2891 179.819 43.3041 179.952 43.3341C180.083 43.364 180.201 43.406 180.307 43.46C180.413 43.517 180.511 43.58 180.596 43.655C180.68 43.7299 180.759 43.8139 180.838 43.9099L180.814 43.418H181.412V47.383H181.409ZM180.165 46.9391C180.41 46.8131 180.586 46.6212 180.69 46.3693C180.793 46.1143 180.844 45.8294 180.844 45.5115C180.844 45.2775 180.823 45.0586 180.778 44.8517C180.735 44.6447 180.659 44.4648 180.556 44.3088C180.453 44.1528 180.316 44.0299 180.149 43.9399C179.983 43.8499 179.776 43.8049 179.53 43.8049C179.306 43.8049 179.124 43.8589 178.981 43.9639C178.839 44.0689 178.723 44.2038 178.638 44.3658C178.55 44.5277 178.49 44.7077 178.459 44.9056C178.426 45.1036 178.411 45.2985 178.411 45.4875C178.411 45.6944 178.432 45.8924 178.471 46.0783C178.514 46.2673 178.581 46.4352 178.678 46.5822C178.772 46.7292 178.896 46.8491 179.045 46.9361C179.194 47.0231 179.376 47.0681 179.588 47.0681C179.819 47.0651 180.01 47.0231 180.165 46.9391Z" fill="#29518D"/>
<path d="M185.991 46.1053C185.86 46.6182 185.636 46.9931 185.314 47.224C184.996 47.458 184.577 47.5719 184.064 47.5719C183.751 47.5719 183.481 47.5149 183.248 47.398C183.014 47.281 182.823 47.1251 182.674 46.9271C182.522 46.7292 182.413 46.5012 182.337 46.2403C182.264 45.9824 182.228 45.7124 182.228 45.4305C182.228 45.1546 182.267 44.8876 182.346 44.6297C182.425 44.3718 182.544 44.1408 182.698 43.9429C182.853 43.7449 183.05 43.586 183.284 43.466C183.518 43.346 183.791 43.2891 184.103 43.2891C184.443 43.2891 184.732 43.343 184.977 43.448C185.22 43.553 185.42 43.703 185.575 43.8919C185.73 44.0809 185.845 44.3088 185.915 44.5697C185.985 44.8307 186.021 45.1156 186.021 45.4215C186.021 45.5235 185.976 45.5715 185.882 45.5715H182.899C182.899 45.7784 182.923 45.9734 182.971 46.1563C183.02 46.3393 183.099 46.4952 183.205 46.6272C183.311 46.7591 183.448 46.8641 183.615 46.9391C183.782 47.0171 183.982 47.0531 184.216 47.0531C184.495 47.0531 184.725 46.9691 184.911 46.8041C185.096 46.6362 185.226 46.4022 185.305 46.1023H185.991V46.1053ZM185.366 45.0646C185.338 44.6837 185.223 44.3778 185.017 44.1438C184.813 43.9099 184.51 43.7959 184.112 43.7959C183.927 43.7959 183.764 43.8289 183.621 43.8979C183.478 43.9669 183.36 44.0599 183.26 44.1768C183.163 44.2938 183.084 44.4288 183.026 44.5817C182.968 44.7347 182.932 44.8966 182.917 45.0646H185.366Z" fill="#29518D"/>
<path d="M190.306 47.4412H189.675V44.9338C189.675 44.5379 189.602 44.247 189.456 44.064C189.311 43.8811 189.065 43.7911 188.716 43.7911C188.579 43.7911 188.443 43.8181 188.309 43.8751C188.176 43.9321 188.054 44.0131 187.948 44.121C187.842 44.229 187.757 44.367 187.69 44.5289C187.623 44.6939 187.593 44.8828 187.593 45.0988V47.4412H187.004V43.4102H187.611L187.596 43.9261C187.787 43.6891 187.991 43.5212 188.206 43.4252C188.422 43.3292 188.664 43.2812 188.931 43.2812C189.396 43.2812 189.742 43.4072 189.969 43.6622C190.197 43.9171 190.309 44.283 190.309 44.7659V47.4412H190.306Z" fill="#29518D"/>
<path d="M194.706 46.1053C194.636 46.6032 194.451 46.9721 194.154 47.212C193.856 47.452 193.474 47.5719 193.01 47.5719C192.697 47.5719 192.427 47.5149 192.193 47.398C191.963 47.281 191.769 47.1251 191.617 46.9271C191.465 46.7292 191.35 46.5012 191.274 46.2403C191.198 45.9824 191.159 45.7124 191.159 45.4305C191.159 45.1546 191.198 44.8876 191.277 44.6297C191.356 44.3718 191.474 44.1408 191.632 43.9429C191.79 43.7449 191.987 43.586 192.227 43.466C192.464 43.346 192.74 43.2891 193.049 43.2891C193.268 43.2891 193.474 43.3221 193.671 43.388C193.869 43.454 194.038 43.547 194.187 43.67C194.336 43.7929 194.454 43.9429 194.542 44.1228C194.63 44.3028 194.682 44.5067 194.694 44.7347H194.023C194.008 44.4018 193.908 44.1618 193.729 44.0179C193.55 43.8709 193.295 43.7989 192.967 43.7989C192.791 43.7989 192.637 43.8409 192.497 43.9219C192.357 44.0029 192.239 44.1168 192.142 44.2638C192.045 44.4108 191.966 44.5817 191.911 44.7797C191.857 44.9776 191.829 45.1936 191.829 45.4275C191.829 45.6614 191.857 45.8774 191.911 46.0753C191.966 46.2733 192.042 46.4472 192.142 46.5942C192.239 46.7412 192.357 46.8581 192.497 46.9391C192.637 47.0201 192.794 47.0621 192.967 47.0621C193.268 47.0621 193.51 46.9871 193.693 46.8371C193.875 46.6872 193.987 46.4442 194.023 46.1113H194.706V46.1053Z" fill="#29518D"/>
<path d="M196.615 48.9998H195.959L196.6 47.4132L194.922 43.4062H195.617L196.943 46.7714L198.254 43.4062H198.933L196.615 48.9998Z" fill="#29518D"/>
<path d="M49.9213 20.081C49.9213 20.6329 49.8788 21.1457 49.8393 21.6346H52.6463V19.3672H55.3926V29.9034H52.6463V27.819H48.8137V25.4496H52.6463V24.004H49.3053C48.8562 25.2486 48.1582 26.3104 47.2357 27.2071C45.6365 28.7607 43.6883 29.8194 41.4124 30.4133L40.0195 28.4758C42.1498 27.801 43.7915 26.9432 44.9385 25.8815C46.0462 24.8587 46.7016 23.737 46.908 22.4894H41.3729V20.081H49.9213ZM55.0466 33.9673C55.0466 34.6002 54.904 35.194 54.637 35.7429C54.3487 36.2737 53.9815 36.7656 53.5294 37.1945C53.0802 37.6024 52.5462 37.9293 51.9302 38.1932C51.2959 38.4392 50.6405 38.5591 49.9425 38.5591C49.2476 38.5591 48.5921 38.4392 47.9761 38.1932C47.3389 37.9293 46.7866 37.5994 46.3375 37.1945C45.8853 36.7656 45.5151 36.2767 45.2511 35.7429C44.9628 35.194 44.8414 34.6002 44.8414 33.9673C44.8414 33.3345 44.9628 32.7437 45.2511 32.1918C45.5151 31.661 45.8853 31.1691 46.3375 30.7612C46.7896 30.3533 47.3419 30.0054 47.9761 29.7385C48.5921 29.4925 49.2476 29.3726 49.9425 29.3726C50.6405 29.3726 51.299 29.4955 51.9302 29.7385C52.5462 30.0054 53.0802 30.3533 53.5294 30.7612C53.9815 31.1691 54.3517 31.661 54.637 32.1918C54.901 32.7407 55.0466 33.3345 55.0466 33.9673ZM52.2761 33.9673C52.2761 33.3555 52.0333 32.8246 51.5812 32.3958C51.1078 31.9879 50.5555 31.7839 49.9395 31.7839C49.3053 31.7839 48.753 31.9879 48.3039 32.3958C47.8305 32.8246 47.6059 33.3555 47.6059 33.9673C47.6059 34.5792 47.8305 35.11 48.3039 35.5389C48.753 35.9468 49.3053 36.1508 49.9395 36.1508C50.5555 36.1508 51.1078 35.9468 51.5812 35.5389C52.0333 35.11 52.2761 34.5792 52.2761 33.9673Z" fill="#29518D"/>
<path d="M58.2119 28.7607V19.8771H60.9582V26.3703H64.2567C65.6526 26.3703 67.1456 26.2684 68.7479 26.0644V19.3672H71.4942V23.3082H73.9552V25.7795H71.4942V29.8224H68.7479V28.4548C67.1881 28.6587 65.592 28.7607 63.9078 28.7607H58.2119ZM71.4972 37.6414H59.6685V30.3743H71.4972V37.6414ZM68.7509 32.7407H62.3935V35.272H68.7509V32.7407Z" fill="#29518D"/>
<path d="M121.428 20.081C121.428 20.6329 121.388 21.1457 121.346 21.6346H124.153V19.3672H126.899V29.9034H124.153V27.819H120.32V25.4496H124.153V24.004H120.812C120.359 25.2486 119.665 26.3104 118.742 27.2071C117.143 28.7607 115.195 29.8194 112.919 30.4133L111.526 28.4758C113.659 27.801 115.298 26.9432 116.445 25.8815C117.553 24.8587 118.208 23.737 118.414 22.4894H112.879V20.081H121.428ZM126.553 33.9673C126.553 34.6002 126.41 35.194 126.143 35.7429C125.858 36.2737 125.488 36.7656 125.036 37.1945C124.587 37.6024 124.053 37.9293 123.44 38.1932C122.805 38.4392 122.147 38.5591 121.452 38.5591C120.754 38.5591 120.098 38.4392 119.482 38.1932C118.845 37.9293 118.293 37.5994 117.844 37.1945C117.392 36.7656 117.021 36.2767 116.754 35.7429C116.469 35.194 116.345 34.6002 116.345 33.9673C116.345 33.3345 116.469 32.7437 116.754 32.1918C117.021 31.661 117.392 31.1691 117.844 30.7612C118.293 30.3533 118.845 30.0054 119.482 29.7385C120.095 29.4925 120.751 29.3726 121.452 29.3726C122.147 29.3726 122.805 29.4955 123.44 29.7385C124.056 30.0054 124.59 30.3533 125.036 30.7612C125.488 31.1691 125.858 31.661 126.143 32.1918C126.407 32.7407 126.553 33.3345 126.553 33.9673ZM123.785 33.9673C123.785 33.3555 123.54 32.8246 123.091 32.3958C122.62 31.9879 122.065 31.7839 121.452 31.7839C120.815 31.7839 120.262 31.9879 119.81 32.3958C119.34 32.8246 119.115 33.3555 119.115 33.9673C119.115 34.5792 119.34 35.11 119.81 35.5389C120.262 35.9468 120.815 36.1508 121.452 36.1508C122.065 36.1508 122.62 35.9468 123.091 35.5389C123.54 35.11 123.785 34.5792 123.785 33.9673Z" fill="#29518D"/>
<path d="M132.704 24.2679V22.5733H129.627V20.162H138.051V22.5733H135.387V24.2469C135.387 26.1664 135.672 27.678 136.288 28.7787C136.901 29.9214 137.741 30.9231 138.849 31.8019L137.207 33.5175C135.918 32.4557 134.871 31.2111 134.073 29.7804C133.026 31.577 131.921 32.9026 130.732 33.7814L128.905 32.1888C130.094 31.2291 131.038 30.0654 131.757 28.7157C132.373 27.534 132.704 26.0644 132.704 24.2679ZM141.701 37.6414H139.037V27.1681H136.74V24.7178H139.037V19.3672H141.701V37.6414ZM142.685 19.3672H145.392V37.6414H142.685V19.3672Z" fill="#29518D"/>
<path d="M151.542 22.9392V22.5104H147.913V20.078H158.103V22.5104H154.331V23.2452C154.331 24.4089 154.68 25.4106 155.396 26.2264C156.255 27.2461 157.405 28.1249 158.841 28.8387L157.366 30.7582C155.539 29.9004 154.107 28.7757 153.038 27.4291C152.917 27.591 152.771 27.756 152.65 27.8969C151.379 29.3666 150.025 30.3863 148.632 30.9591L146.93 29.0396C148.347 28.3858 149.534 27.4861 150.517 26.3224C151.193 25.5156 151.542 24.3909 151.542 22.9392ZM163.186 37.6414H151.03V31.8019H153.815V35.233H163.186V37.6414ZM162.652 32.8636H159.909V19.3672H162.652V32.8636Z" fill="#29518D"/>
<path d="M181.718 29.5763V31.8407H177.391C177.597 32.1046 177.761 32.3925 177.922 32.6774C178.168 33.2053 178.31 33.7392 178.31 34.309C178.31 34.8819 178.168 35.4127 177.922 35.9436C177.655 36.4534 177.309 36.9033 176.878 37.3112C176.447 37.6801 175.934 37.983 175.361 38.229C174.766 38.4329 174.129 38.5559 173.473 38.5559C172.796 38.5559 172.162 38.4359 171.589 38.229C170.994 37.983 170.481 37.6771 170.074 37.3112C169.622 36.9033 169.273 36.4534 169.028 35.9436C168.761 35.4127 168.639 34.8819 168.639 34.309C168.639 33.7362 168.761 33.2053 169.028 32.6774C169.17 32.3925 169.355 32.1046 169.562 31.8407H165.234V29.5763H181.718ZM180.161 22.6121H177.169C177.412 22.9 177.618 23.1849 177.803 23.4699C178.049 23.9407 178.171 24.4506 178.171 24.9995C178.171 25.5723 178.049 26.0822 177.803 26.5321C177.536 26.9999 177.187 27.4318 176.757 27.7977C176.347 28.1666 175.855 28.4516 175.303 28.6555C174.729 28.8804 174.135 28.9824 173.479 28.9824C172.824 28.9824 172.211 28.8804 171.655 28.6555C171.082 28.4516 170.612 28.1666 170.202 27.7977C169.75 27.4288 169.425 26.9999 169.176 26.5321C168.909 26.0822 168.788 25.5723 168.788 24.9995C168.788 24.4506 168.909 23.9377 169.176 23.4699C169.34 23.1849 169.543 22.9 169.792 22.6121H166.779V20.3837H171.944V18.9141H175.021V20.3837H180.164V22.6121H180.161ZM175.588 34.231C175.588 33.6582 175.385 33.1693 174.975 32.7614C174.544 32.3535 174.053 32.1496 173.476 32.1496C172.903 32.1496 172.411 32.3535 172.001 32.7614C171.571 33.1693 171.367 33.6612 171.367 34.231C171.367 34.8009 171.571 35.2928 172.001 35.7006C172.411 36.1085 172.903 36.3095 173.476 36.3095C174.053 36.3095 174.544 36.1085 174.975 35.7006C175.385 35.2928 175.588 34.8009 175.588 34.231ZM175.506 24.9605C175.506 24.4506 175.303 24.0217 174.915 23.6528C174.502 23.3049 174.013 23.122 173.476 23.122C172.924 23.122 172.454 23.3049 172.062 23.6528C171.649 24.0217 171.446 24.4506 171.446 24.9605C171.446 25.4913 171.649 25.9202 172.062 26.2471C172.451 26.616 172.924 26.778 173.476 26.778C174.01 26.778 174.502 26.613 174.915 26.2471C175.303 25.9202 175.506 25.4883 175.506 24.9605Z" fill="#29518D"/>
<path d="M189.899 30.2077V32.4751H187.171V30.2077H182.886V27.8803H190.185C192.193 27.8803 194.099 27.7993 195.905 27.6374V19.3686H198.63V34.0887H195.905V32.946H192.09V30.7206H195.905V29.9468C194.142 30.1297 192.257 30.2107 190.206 30.2107H189.899V30.2077ZM194.227 23.2855C194.227 23.8794 194.102 24.4102 193.856 24.8571C193.589 25.349 193.24 25.7779 192.831 26.1648C192.4 26.5547 191.89 26.8576 191.313 27.0825C190.719 27.3285 190.103 27.4304 189.447 27.4304C188.792 27.4304 188.154 27.3285 187.581 27.0825C186.986 26.8576 186.476 26.5517 186.067 26.1648C185.636 25.7779 185.308 25.349 185.062 24.8571C184.795 24.4102 184.671 23.8794 184.671 23.2855C184.671 22.7157 184.795 22.1848 185.062 21.693C185.308 21.2431 185.636 20.8142 186.067 20.4273C186.476 20.0374 186.989 19.7315 187.581 19.4885C188.154 19.2636 188.792 19.1406 189.447 19.1406C190.103 19.1406 190.719 19.2636 191.313 19.4885C191.89 19.7315 192.4 20.0374 192.831 20.4273C193.24 20.8142 193.589 21.2431 193.856 21.693C194.102 22.1848 194.227 22.7157 194.227 23.2855ZM199 37.6398H186.167V33.1499H188.974V35.3124H199V37.6398ZM191.477 23.2855C191.477 22.7367 191.271 22.2868 190.861 21.9389C190.452 21.612 189.978 21.426 189.447 21.426C188.916 21.426 188.443 21.609 188.03 21.9389C187.62 22.2868 187.417 22.7337 187.417 23.2855C187.417 23.8584 187.62 24.2873 188.03 24.6142C188.443 24.9621 188.913 25.1241 189.447 25.1241C189.978 25.1241 190.452 24.9591 190.861 24.6142C191.271 24.2873 191.477 23.8584 191.477 23.2855Z" fill="#29518D"/>
<path d="M23.2993 17.3211C23.3266 17.3241 23.3509 17.3241 23.3752 17.3241C24.0246 17.3241 24.5526 16.8053 24.5526 16.1664C24.5526 16.1095 24.5465 16.0555 24.5404 15.9985L23.979 12.1805C23.8789 11.5267 23.3145 11.0198 22.6256 11.0048H22.6135C20.2951 10.9598 17.8037 11.2297 15.2668 11.8536C5.68372 14.205 -0.916441 20.7103 0.524972 26.3788C0.837531 27.6024 1.49906 28.6882 2.43978 29.6149C2.43978 29.6089 2.43978 29.6089 2.43978 29.6029C2.22432 23.1186 10.2811 17.5971 20.4347 17.2702C21.3966 17.2402 22.3465 17.2552 23.272 17.3181L23.2993 17.3211Z" fill="#EA552A"/>
<path d="M18.0495 28.7692C17.9797 28.7812 17.9068 28.7872 17.834 28.7872C17.2119 28.7872 16.6961 28.3374 16.6111 27.7525L16.605 27.7195L16.1953 24.9453L16.1923 24.9243C16.1832 24.8643 16.1802 24.8043 16.1802 24.7443C16.1802 24.1685 16.5838 23.6886 17.133 23.5596L17.1603 23.5536C17.2483 23.5326 17.3363 23.5116 17.4243 23.4936C24.4888 21.8771 30.6307 22.3269 31.1436 24.4984C31.4925 25.965 29.1863 27.8425 25.4811 29.4021C25.5661 29.2581 25.5994 29.1232 25.5721 29.0002C25.3658 28.1034 22.14 28.0284 18.0798 28.7633L18.0495 28.7692Z" fill="#004EA2"/>
<path d="M16.3683 33.8598C16.2378 33.008 15.5126 32.3512 14.6204 32.3092L14.581 32.3062C8.9974 32.0183 4.64888 29.8648 3.79617 26.6797C3.6141 27.5944 3.58072 28.5272 3.71728 29.463C4.38791 34.0338 8.62112 37.6298 14.6659 38.2087L14.6933 38.2117C14.7479 38.2177 14.8055 38.2207 14.8632 38.2207C15.8889 38.2207 16.7203 37.4049 16.7203 36.3941C16.7203 36.3072 16.7143 36.2232 16.7021 36.1392L16.3683 33.8598Z" fill="#00A162"/>
<path d="M32.4574 27.5336C32.4089 27.1647 32.0902 26.8828 31.7018 26.8828C31.4924 26.8828 31.3013 26.9668 31.1647 27.1018L31.1556 27.1078C28.7492 29.4681 24.5919 31.3666 19.6911 32.0624L19.5211 32.0864C19.1084 32.1374 18.7898 32.4853 18.7898 32.9052C18.7898 32.9502 18.7928 32.9952 18.8019 33.0402L19.3148 36.4893C19.4149 37.1371 19.9824 37.632 20.6712 37.632C20.7198 37.632 20.7683 37.632 20.8169 37.626H20.829C21.1264 37.593 21.4299 37.557 21.7303 37.515C25.3991 36.9932 28.6673 35.7035 31.1859 33.946L31.2861 33.871C32.2602 33.1692 32.8914 32.0385 32.8914 30.7578C32.8914 30.5658 32.8762 30.3739 32.8489 30.1879L32.4574 27.5336Z" fill="#F6AB00"/>
<path d="M15.279 20.3949C16.3411 20.1969 17.379 20.086 18.3773 20.053L18.438 20.05C19.0935 20.05 19.6276 19.5251 19.6276 18.8803C19.6276 18.8233 19.6215 18.7633 19.6154 18.7063L19.5851 18.4904L19.0753 15.0803L19.0601 14.9753C18.9751 14.4084 18.4805 13.9766 17.8827 13.9766L17.7522 13.9826C16.4747 14.1085 15.1516 14.3755 13.8225 14.7953C7.2132 16.8828 2.96179 21.9485 4.32127 26.1114C4.57617 26.8912 5.01315 27.587 5.59275 28.1838C5.58668 28.1538 5.57758 28.1208 5.57151 28.0908C4.9646 24.9567 9.31311 21.5106 15.279 20.3949Z" fill="#004EA2"/>
<path d="M27.6963 34.0846C27.5871 33.3648 26.9589 32.813 26.1972 32.813C26.0182 32.813 25.8452 32.8429 25.6874 32.8999L25.6358 32.9179C23.5693 33.6257 21.2752 34.1326 18.8415 34.3755C9.49202 35.3023 1.39583 32.0212 0.0181404 26.9375C-0.0668272 28.5391 0.15773 30.1287 0.725192 31.6583C3.62623 39.4862 14.4717 42.8573 25.3536 39.5102L25.384 39.4982C26.8739 39.0423 27.9573 37.6777 27.9573 36.0611C27.9573 35.8871 27.9451 35.7192 27.9209 35.5512L27.6963 34.0846Z" fill="#29518D"/>
<path d="M75.2175 29.4766V31.774H82.3366V37.6974H85.1011V31.774H92.2019V29.4766H75.2175Z" fill="#29518D"/>
<path d="M89.583 26.1735H80.4794V25.2197H89.2432V22.9253H80.4794V21.9116H89.4617V19.6172H77.8757V28.4889H89.583V26.1735Z" fill="#29518D"/>
<path d="M100.283 22.8968V22.6928H103.782V20.3984H93.8951V22.6928H97.4364V22.9358C97.4364 26.2439 96.1831 28.3643 93.3762 29.81L93.2153 29.8909L94.8904 31.9724L95.0027 31.9094C96.8447 30.8927 98.283 29.3481 98.9233 27.7165C99.7184 29.4111 101.491 30.8687 102.883 31.5405L102.996 31.5945L104.562 29.531L104.398 29.4501C101.512 28.0524 100.283 26.0939 100.283 22.8968Z" fill="#29518D"/>
<path d="M108.343 24.4902V19.2266H105.599V37.4708H108.343V26.8266H111.283V24.4902H108.343Z" fill="#29518D"/>
<path d="M26.9074 42.1562H25.0108L21.4846 47.5728H23.2356L25.7118 43.6649L26.9165 47.5728H28.631L26.9074 42.1562Z" fill="#29518D"/>
<path d="M6.10556 44.1597C6.19357 43.8598 6.34226 43.6768 6.56682 43.6019C6.68213 43.5629 6.87331 43.5449 7.13731 43.5449H10.7636L10.9821 42.1562H6.91579C6.48185 42.1562 6.14501 42.1832 5.90832 42.2342C5.64735 42.2912 5.40762 42.4232 5.20127 42.6241C4.9494 42.8701 4.77339 43.17 4.67325 43.5179C4.57311 43.8658 4.47904 44.3157 4.39407 44.8555C4.32428 45.3024 4.2818 45.6983 4.26966 46.0342C4.25752 46.3162 4.28483 46.5561 4.34856 46.748C4.48511 47.1529 4.77946 47.4019 5.22251 47.4918C5.49865 47.5488 5.8537 47.5788 6.27246 47.5788H10.1901L10.5299 45.4164L10.712 44.2947H8.60604L8.41182 45.4704H9.13405L9.02784 46.1422H6.69123C6.47274 46.1422 6.30584 46.1212 6.19053 46.0822C6.02666 46.0252 5.93563 45.9023 5.91135 45.7013C5.89011 45.5214 5.90832 45.2424 5.96597 44.8705C6.00542 44.5706 6.05398 44.3337 6.10556 44.1597Z" fill="#29518D"/>
<path d="M14.0167 42.1797L13.1519 47.5543H11.4556L12.3204 42.1797H14.0167Z" fill="#29518D"/>
<path d="M20.4864 44.759C20.5835 44.732 20.6927 44.678 20.8111 44.5941C20.9325 44.5101 21.0447 44.3811 21.1479 44.2132C21.2541 44.0422 21.327 43.8203 21.3725 43.5473C21.421 43.2384 21.4059 42.9895 21.3239 42.8005C21.242 42.6116 21.1176 42.4736 20.9507 42.3836C20.7838 42.2937 20.6047 42.2397 20.4105 42.2157C20.2163 42.1917 19.9887 42.1797 19.7308 42.1797H15.2457L15.0515 43.3854H16.6689H16.8601H19.3272C19.4455 43.3854 19.5396 43.4274 19.6094 43.5113C19.6792 43.5953 19.7035 43.7003 19.6822 43.8293C19.6579 43.9732 19.5973 44.0872 19.4941 44.1742C19.3909 44.2581 19.2786 44.3001 19.1572 44.3001H16.8571H16.5202H14.9028L14.6722 45.7427L14.3809 47.5543H18.869C19.2119 47.5543 19.5002 47.5393 19.7399 47.5063C19.9796 47.4733 20.1951 47.4073 20.3923 47.3083C20.5896 47.2094 20.7534 47.0564 20.8869 46.8555C21.0205 46.6545 21.1145 46.3816 21.1661 46.0457C21.2086 45.7787 21.2025 45.5598 21.1479 45.3918C21.0903 45.2239 21.0083 45.0979 20.9021 45.0169C20.7959 44.936 20.6867 44.885 20.5744 44.861C20.4621 44.837 20.3589 44.825 20.2618 44.825L20.2649 44.804C20.3164 44.798 20.3893 44.786 20.4864 44.759ZM19.3454 46.1866C19.2513 46.2616 19.136 46.2976 19.0025 46.2976H16.2259L16.3715 45.3828H19.1481C19.2817 45.3828 19.3818 45.4248 19.4516 45.5058C19.5214 45.5868 19.5457 45.6948 19.5244 45.8267C19.5002 45.9947 19.4395 46.1117 19.3454 46.1866Z" fill="#29518D"/>
<path d="M191.7 4.94386H189.684V3.05469H188.88V5.5766H191.7V4.94386Z" fill="#231815"/>
<path d="M180.555 5.97632H181.359V2.98438H180.555V3.55384H179.678V4.19561H180.555V4.61141H179.678V5.25319H180.555V5.97632Z" fill="#231815"/>
<path d="M197.214 7.68239V6.14574H198.579V5.50396H195.659V3.80461H198.579V3.17188H194.846V6.14574H196.4V7.68239H194.457V8.32416H198.977V7.68239H197.214Z" fill="#231815"/>
<path d="M192.984 2.98438H192.179V5.88593H192.984V4.53006H193.698V3.89732H192.984V2.98438Z" fill="#231815"/>
<path d="M190.597 6.87615H192.179V7.93373H190.597V6.87615ZM189.784 8.5755H192.984V6.23438H189.784V8.5755Z" fill="#231815"/>
<path d="M179.651 8.16725C179.217 8.16725 178.865 7.81473 178.865 7.37181C178.865 6.9289 179.217 6.57637 179.651 6.57637C180.085 6.57637 180.437 6.9289 180.437 7.37181C180.437 7.81473 180.085 8.16725 179.651 8.16725ZM179.651 5.89844C178.756 5.89844 178.024 6.55829 178.024 7.37181C178.024 8.18533 178.756 8.84519 179.651 8.84519C180.546 8.84519 181.278 8.18533 181.278 7.37181C181.278 6.55829 180.546 5.89844 179.651 5.89844Z" fill="#231815"/>
<path d="M185.319 8.16725C184.885 8.16725 184.532 7.81473 184.532 7.37181C184.532 6.9289 184.885 6.57637 185.319 6.57637C185.753 6.57637 186.105 6.9289 186.105 7.37181C186.105 7.81473 185.753 8.16725 185.319 8.16725ZM185.319 5.89844C184.424 5.89844 183.692 6.55829 183.692 7.37181C183.692 8.18533 184.424 8.84519 185.319 8.84519C186.214 8.84519 186.946 8.18533 186.946 7.37181C186.946 6.55829 186.214 5.89844 185.319 5.89844Z" fill="#231815"/>
<path d="M179.29 4.39047C179.29 4.39047 179.506 3.82101 179.488 3.125H176.813V3.77582H178.512C178.512 3.77582 178.575 5.07745 176.704 5.34862L177.03 5.90904C177.617 5.85481 178.81 5.55652 179.28 4.38144" fill="#231815"/>
<path d="M185.436 5.75125L185.762 5.2089C184.496 4.78406 184.505 3.51859 184.505 3.383V3.09375H183.511V3.39204C183.511 3.50955 183.556 4.88349 182.263 5.3716L182.607 5.89587C182.607 5.89587 183.511 5.64278 184.026 4.74791C184.478 5.53431 185.427 5.76029 185.427 5.76029" fill="#231815"/>
<path d="M187.054 2.98438H186.25V5.97632H187.054V4.53006H187.768V3.89732H187.054V2.98438Z" fill="#231815"/>
<path d="M168.777 0.000945842C166.761 -0.0352106 164.972 0.96813 163.923 2.51382C163.941 2.54093 163.959 2.55901 163.977 2.57709C163.986 2.59517 163.995 2.60421 164.004 2.61325C164.004 2.61325 164.013 2.61325 164.023 2.61325C164.095 2.63133 164.212 2.6494 164.303 2.73076C164.366 2.78499 164.402 2.84826 164.438 2.89346C164.447 2.91154 164.465 2.94769 164.474 2.94769C164.493 2.96577 164.52 2.98385 164.547 3.00193C164.592 3.03808 164.637 3.07424 164.691 3.11944C164.737 3.16463 164.764 3.20079 164.8 3.24598C164.827 3.2731 164.845 3.30022 164.872 3.32734C164.89 3.34541 164.917 3.37253 164.945 3.39061C164.981 3.42677 165.026 3.46292 165.071 3.51716C165.125 3.58043 165.161 3.6437 165.18 3.69794C165.189 3.71602 165.207 3.74314 165.207 3.75217C165.243 3.79737 165.279 3.84257 165.315 3.88776L165.369 3.96007C165.369 3.96007 165.406 3.99623 165.424 4.01431C165.469 4.05046 165.523 4.09566 165.568 4.15893C165.604 4.20413 165.631 4.24932 165.659 4.29452C165.677 4.33068 165.704 4.35779 165.722 4.38491C165.767 4.44819 165.794 4.51146 165.812 4.55665C165.821 4.58377 165.839 4.61089 165.848 4.62897C165.857 4.64705 165.876 4.66512 165.903 4.6832C165.939 4.71936 165.984 4.76455 166.029 4.82783C166.074 4.8911 166.092 4.95437 166.12 5.00861C166.12 5.02669 166.138 5.05381 166.147 5.06284C166.147 5.06284 166.165 5.07188 166.174 5.08092C166.228 5.11708 166.309 5.17131 166.364 5.2617C166.391 5.31594 166.418 5.36113 166.436 5.40633L166.544 5.47864C166.725 5.59615 166.798 5.53288 166.707 5.34306L165.695 3.04712C165.613 2.84826 165.641 2.83019 165.776 3.00193L167.277 4.99053C167.403 5.16227 167.503 5.12612 167.475 4.90918L167.268 2.41439C167.249 2.19745 167.286 2.18841 167.358 2.39631L168.081 4.74648C168.153 4.95437 168.244 4.94534 168.28 4.73744L168.687 2.30592C168.732 2.08898 168.768 2.09802 168.777 2.30592L168.877 4.79167C168.886 5.00861 168.976 5.02669 169.084 4.84591L170.323 2.6946C170.431 2.50478 170.467 2.52286 170.404 2.73076L169.699 5.099C169.636 5.3069 169.717 5.36113 169.88 5.21651L171.742 3.59851C171.905 3.45388 171.932 3.49004 171.814 3.66178L170.739 5.16227C170.793 5.16227 170.847 5.16227 170.892 5.13516C170.983 5.08996 171.028 4.97245 171.118 4.92726C171.209 4.88206 171.326 4.90014 171.417 4.85494C171.507 4.81879 171.57 4.71032 171.661 4.67416C171.751 4.63801 171.85 4.61089 171.941 4.57473C172.04 4.53858 172.14 4.4753 172.239 4.44819C172.338 4.41203 172.447 4.40299 172.546 4.36683C172.646 4.33972 172.763 4.37587 172.863 4.34875C172.971 4.32164 173.044 4.20413 173.152 4.17701C173.251 4.14989 173.369 4.16797 173.459 4.14086C173.568 4.11374 173.667 4.12278 173.767 4.09566C173.875 4.06854 173.966 4.01431 174.065 3.99623C174.083 3.99623 174.101 3.99623 174.119 3.99623C173.432 1.74549 171.317 0.0551805 168.777 0.000945842Z" fill="#EA5529"/>
<path d="M167.909 11.0941C167.909 11.0941 167.909 11.0851 167.909 11.0761C167.909 11.0761 167.909 11.058 167.9 11.0489C167.873 11.0037 167.837 10.9314 167.819 10.8501C167.819 10.8139 167.801 10.7778 167.792 10.7416C167.783 10.6964 167.765 10.6512 167.756 10.597C167.737 10.5337 167.737 10.4704 167.737 10.4162C167.737 10.3891 167.737 10.3529 167.737 10.3348C167.728 10.2806 167.719 10.2264 167.71 10.1812C167.71 10.145 167.701 10.1089 167.692 10.0818C167.692 10.0546 167.674 10.0275 167.656 9.99136C167.638 9.94616 167.62 9.90097 167.602 9.8377L167.584 9.78346L167.539 9.59364C167.539 9.59364 167.521 9.53037 167.502 9.49421C167.484 9.44901 167.466 9.40382 167.457 9.35862C167.43 9.26823 167.439 9.18688 167.439 9.13265C167.439 9.11457 167.439 9.09649 167.439 9.08745C167.43 9.05129 167.412 9.01514 167.403 8.97898C167.385 8.94282 167.376 8.89763 167.358 8.85243C167.358 8.85243 167.34 8.82532 167.331 8.80724C167.295 8.76204 167.249 8.69877 167.222 8.61742C167.222 8.5903 167.204 8.56318 167.186 8.53606C167.168 8.49087 167.141 8.44567 167.123 8.39144C167.105 8.34624 167.087 8.30105 167.069 8.25585L167.032 8.15642C166.996 8.05699 167.005 7.9666 167.005 7.90333C167.005 7.90333 167.005 7.88525 167.005 7.87621C166.996 7.85813 166.987 7.83101 166.969 7.8039C166.951 7.7587 166.924 7.71351 166.897 7.65927C166.897 7.64119 166.87 7.61408 166.861 7.596C166.834 7.5508 166.797 7.50561 166.77 7.43329C166.752 7.37906 166.734 7.33386 166.716 7.28867C166.707 7.25251 166.698 7.21636 166.689 7.19828C166.671 7.15308 166.653 7.11693 166.644 7.07173C166.626 7.03557 166.617 6.99038 166.599 6.96326L166.553 6.85479C166.535 6.8096 166.517 6.7644 166.49 6.7192C166.49 6.70113 166.463 6.67401 166.445 6.65593C166.418 6.61977 166.373 6.56554 166.345 6.50227C166.309 6.43899 166.291 6.36668 166.282 6.32148C166.282 6.30341 166.282 6.28533 166.273 6.26725C166.273 6.26725 166.255 6.24917 166.246 6.24917C166.201 6.21301 166.129 6.15878 166.083 6.06839C166.038 5.98704 166.02 5.90569 166.011 5.84241C166.011 5.82433 166.011 5.80625 166.011 5.79722C165.984 5.74298 165.957 5.68875 165.948 5.64355C165.948 5.61643 165.93 5.59836 165.921 5.58028C165.921 5.58028 165.903 5.57124 165.894 5.5622C165.839 5.52604 165.767 5.48085 165.713 5.39046C165.677 5.32718 165.649 5.26391 165.631 5.21871C165.622 5.1916 165.613 5.16448 165.604 5.15544C165.595 5.13736 165.568 5.11928 165.55 5.09217C165.514 5.05601 165.478 5.01081 165.442 4.96562C165.396 4.90234 165.378 4.84811 165.351 4.80291C165.342 4.7758 165.324 4.74868 165.324 4.73964C165.297 4.69445 165.27 4.65829 165.243 4.62213C165.216 4.58598 165.198 4.54982 165.179 4.5227C165.17 4.50462 165.143 4.48655 165.116 4.46847C165.08 4.43231 165.026 4.39615 164.99 4.34192L164.935 4.26961C164.935 4.26961 164.872 4.18826 164.836 4.14306C164.782 4.07979 164.755 4.01651 164.727 3.97132C164.727 3.95324 164.709 3.92612 164.7 3.91708C164.682 3.88996 164.646 3.86285 164.619 3.83573C164.583 3.80861 164.547 3.77246 164.511 3.7363C164.483 3.70014 164.456 3.67303 164.429 3.63687C164.402 3.60071 164.366 3.56456 164.339 3.53744C164.321 3.51936 164.294 3.49224 164.257 3.47417C164.221 3.44705 164.176 3.41993 164.14 3.37474C164.086 3.3205 164.05 3.25723 164.013 3.21203C164.013 3.20299 164.004 3.19395 163.995 3.18491C163.995 3.18491 163.986 3.18491 163.977 3.18491C163.905 3.17588 163.805 3.1578 163.715 3.07645C163.697 3.05837 163.679 3.04933 163.67 3.03125C163.254 3.79957 163.019 4.68541 163.001 5.61643C162.947 8.56318 165.116 11.0218 167.963 11.4015C167.963 11.3834 167.954 11.3653 167.945 11.3382C167.927 11.2388 167.945 11.1484 167.963 11.0851" fill="#00A161"/>
<path d="M167.403 7.44241C167.403 7.44241 167.43 7.49664 167.448 7.52376C167.475 7.56895 167.503 7.62319 167.53 7.68646C167.566 7.78589 167.557 7.87628 167.557 7.93956C167.557 7.9486 167.557 7.95764 167.557 7.96668L167.584 8.03899C167.602 8.08418 167.62 8.13842 167.638 8.18361C167.638 8.20169 167.656 8.23785 167.674 8.26497C167.692 8.31016 167.719 8.3644 167.747 8.42767C167.747 8.42767 167.765 8.44575 167.774 8.46383C167.81 8.50902 167.855 8.57229 167.882 8.66269C167.891 8.6898 167.9 8.72596 167.918 8.76212C167.936 8.80731 167.954 8.86155 167.973 8.91578C168 9.00617 168 9.08752 167.991 9.1508C167.991 9.16888 167.991 9.18695 167.991 9.19599C167.991 9.22311 168.009 9.25023 168.018 9.28638C168.036 9.33158 168.054 9.38581 168.072 9.44005L168.126 9.63891L168.144 9.69314C168.144 9.69314 168.162 9.74738 168.171 9.7745C168.19 9.81969 168.208 9.87393 168.226 9.9372C168.235 9.99143 168.244 10.0457 168.253 10.0999C168.253 10.1361 168.262 10.1722 168.271 10.1993C168.289 10.2716 168.289 10.3349 168.289 10.3892C168.289 10.4163 168.289 10.4524 168.289 10.4705C168.289 10.4976 168.307 10.5338 168.316 10.5699C168.325 10.6151 168.343 10.6694 168.352 10.7236C168.352 10.7236 168.361 10.7507 168.37 10.7688C168.397 10.823 168.434 10.8863 168.452 10.9767C168.47 11.0761 168.452 11.1756 168.434 11.2298C168.434 11.2388 168.434 11.2479 168.434 11.2569C168.434 11.275 168.443 11.3021 168.452 11.3202C168.461 11.3563 168.479 11.4015 168.488 11.4558C168.506 11.4558 168.515 11.4558 168.524 11.4558C170.214 11.4919 171.751 10.7869 172.827 9.63891C170.838 8.1113 168.397 7.57799 167.358 7.40625C167.358 7.41529 167.367 7.43337 167.376 7.44241" fill="#004EA2"/>
<path d="M174.363 5.8436C174.363 5.40972 174.327 4.98488 174.246 4.57812C174.209 4.57812 174.173 4.58716 174.137 4.5962C174.038 4.61428 173.956 4.67756 173.857 4.69563C173.757 4.71371 173.667 4.74083 173.577 4.76795C173.477 4.79506 173.369 4.79506 173.278 4.82218C173.179 4.8493 173.071 4.84026 172.98 4.86738C172.881 4.89449 172.808 4.96681 172.718 4.99392C172.619 5.03008 172.51 5.03008 172.42 5.06624C172.32 5.10239 172.212 5.09335 172.121 5.12951C172.031 5.16567 171.95 5.23798 171.868 5.27414C171.778 5.31029 171.669 5.32837 171.579 5.36453C171.48 5.40972 171.407 5.50011 171.326 5.54531C171.236 5.5905 171.145 5.6357 171.064 5.6809C170.973 5.73513 170.874 5.76225 170.793 5.81648C170.702 5.87072 170.648 5.96111 170.567 6.01534C170.476 6.07862 170.413 6.15997 170.341 6.2142C170.259 6.28652 170.151 6.31363 170.088 6.37691C170.024 6.44018 169.952 6.47634 169.889 6.52153L169.762 6.72943C169.735 6.82886 169.735 6.90117 169.699 6.8379L169.419 7.28082C170.576 7.63334 171.968 8.22088 173.206 9.17903C173.911 8.248 174.345 7.091 174.372 5.82552" fill="#F6AB00"/>
</g>
<path d="M227.48 25.17C227.48 25.6367 227.363 26.1383 227.13 26.675C226.92 27.1883 226.628 27.7133 226.255 28.25C225.882 28.7633 225.462 29.265 224.995 29.755C224.528 30.245 224.05 30.6883 223.56 31.085C223.653 31.0383 223.758 31.0033 223.875 30.98C223.992 30.9333 224.132 30.8867 224.295 30.84C224.832 30.6767 225.438 30.5483 226.115 30.455C226.815 30.3383 227.422 30.28 227.935 30.28C228.425 30.28 228.787 30.3383 229.02 30.455C229.207 30.6183 229.335 30.875 229.405 31.225C229.498 31.5517 229.382 31.9367 229.055 32.38C228.938 32.5433 228.845 32.7183 228.775 32.905C228.728 33.0683 228.647 33.2083 228.53 33.325C227.527 34.375 226.372 35.5183 225.065 36.755C223.758 37.9917 222.37 39.17 220.9 40.29C222.883 40.0567 224.692 39.66 226.325 39.1C227.958 38.54 229.603 37.84 231.26 37C231.563 36.8367 231.925 36.6383 232.345 36.405C232.788 36.1717 233.197 35.95 233.57 35.74C233.57 35.8567 233.5 36.0083 233.36 36.195C233.22 36.3583 233.092 36.51 232.975 36.65C232.812 36.86 232.672 37.035 232.555 37.175C232.438 37.3383 232.322 37.4783 232.205 37.595C232.088 37.735 231.96 37.8633 231.82 37.98C231.68 38.0967 231.505 38.225 231.295 38.365C229.755 39.485 228.028 40.3483 226.115 40.955C224.225 41.5617 222.218 41.8883 220.095 41.935C220.002 41.935 219.943 41.8883 219.92 41.795C219.92 41.7017 219.885 41.6317 219.815 41.585C219.652 41.4683 219.558 41.34 219.535 41.2L219.465 40.64C219.512 40.3833 219.558 40.22 219.605 40.15C220.142 39.6367 220.772 39.0417 221.495 38.365C222.218 37.6883 222.942 37 223.665 36.3C224.388 35.6 225.065 34.9233 225.695 34.27C226.325 33.5933 226.838 32.9867 227.235 32.45C226.862 32.5433 226.36 32.6833 225.73 32.87C225.123 33.0333 224.47 33.2083 223.77 33.395C223.07 33.5583 222.382 33.7217 221.705 33.885C221.028 34.025 220.457 34.13 219.99 34.2C219.71 34.1767 219.57 34.0717 219.57 33.885V33.43C219.57 33.1733 219.582 32.9983 219.605 32.905C219.628 32.8117 219.71 32.695 219.85 32.555C219.92 32.485 220.013 32.38 220.13 32.24C220.27 32.1 220.375 32.0067 220.445 31.96C221.262 31.2133 222.067 30.3267 222.86 29.3C223.653 28.25 224.318 27.2233 224.855 26.22C224.342 26.2433 223.863 26.2667 223.42 26.29C222.977 26.3133 222.522 26.3483 222.055 26.395C221.612 26.4183 221.145 26.4417 220.655 26.465C220.188 26.4883 219.675 26.5117 219.115 26.535C219.022 26.4883 218.987 26.3717 219.01 26.185C219.033 25.975 219.057 25.8117 219.08 25.695C219.127 25.5083 219.22 25.345 219.36 25.205C219.5 25.0417 219.663 24.8667 219.85 24.68C219.967 24.5633 220.06 24.4583 220.13 24.365C220.223 24.2717 220.398 24.19 220.655 24.12C220.795 24.0967 221.04 24.05 221.39 23.98C221.74 23.91 222.125 23.8517 222.545 23.805L223.805 23.665C224.015 23.6417 224.202 23.63 224.365 23.63C224.552 23.6067 224.715 23.595 224.855 23.595H224.995C225.112 21.1217 225.275 18.7767 225.485 16.56C225.718 14.3433 226.068 12.1383 226.535 9.945L226.745 9.35C226.862 9.32667 226.967 9.40833 227.06 9.595C227.177 9.75833 227.317 9.92167 227.48 10.085C227.503 10.225 227.562 10.3417 227.655 10.435C227.772 10.505 227.83 10.61 227.83 10.75C227.877 11.8933 227.877 13.06 227.83 14.25C227.783 15.44 227.713 16.6067 227.62 17.75C227.527 18.8933 227.41 20.0017 227.27 21.075C227.153 22.125 227.025 23.105 226.885 24.015C226.978 24.0617 227.072 24.12 227.165 24.19L227.34 24.365C227.433 24.4583 227.48 24.5983 227.48 24.785V25.17ZM217.365 19.745C217.248 20.515 217.108 21.2733 216.945 22.02C216.782 22.7667 216.548 23.4667 216.245 24.12C215.965 24.7733 215.603 25.3567 215.16 25.87C214.74 26.3833 214.215 26.78 213.585 27.06C213.398 27.1533 213.188 27.2933 212.955 27.48C212.722 27.6433 212.488 27.7483 212.255 27.795C212.092 27.8417 211.905 27.8767 211.695 27.9C211.485 27.9233 211.31 27.865 211.17 27.725C211.03 27.585 210.925 27.3983 210.855 27.165C210.808 26.9083 210.727 26.71 210.61 26.57C210.47 26.3833 210.377 26.1733 210.33 25.94C210.283 25.7067 210.26 25.5667 210.26 25.52C210.26 25.4033 210.237 25.3333 210.19 25.31C210.167 25.2633 210.155 25.1817 210.155 25.065C210.202 24.085 210.353 23.1633 210.61 22.3C210.867 21.4133 211.193 20.5967 211.59 19.85C211.847 19.3367 212.15 18.8583 212.5 18.415C212.873 17.9483 213.247 17.5167 213.62 17.12C213.667 17.0733 213.702 17.05 213.725 17.05C213.772 17.05 213.83 17.0267 213.9 16.98C213.993 16.9333 214.063 16.8867 214.11 16.84C214.18 16.7933 214.262 16.7817 214.355 16.805C214.448 16.8283 214.6 16.8167 214.81 16.77C215.02 16.7 215.148 16.6883 215.195 16.735L214.915 17.295C214.215 18.8117 213.55 20.2233 212.92 21.53C212.313 22.8133 211.963 24.0267 211.87 25.17C212.383 24.9133 212.827 24.5983 213.2 24.225C213.573 23.8517 213.9 23.455 214.18 23.035C214.483 22.5917 214.74 22.1483 214.95 21.705C215.16 21.2617 215.358 20.8417 215.545 20.445C215.638 20.1417 215.592 19.9317 215.405 19.815C215.242 19.6983 215.078 19.6167 214.915 19.57C214.752 19.5233 214.658 19.4533 214.635 19.36C214.612 19.2667 214.623 19.1733 214.67 19.08C214.717 18.9633 214.775 18.8467 214.845 18.73C214.915 18.6133 214.962 18.52 214.985 18.45L215.405 17.82C215.522 17.7033 215.65 17.6333 215.79 17.61C215.953 17.5633 216.128 17.5983 216.315 17.715C216.432 17.7617 216.525 17.855 216.595 17.995C216.665 18.135 216.758 18.2867 216.875 18.45C217.015 18.6367 217.132 18.7883 217.225 18.905C217.342 19.0217 217.388 19.3017 217.365 19.745ZM248.029 14.04C248.122 14.6467 248.181 15.2533 248.204 15.86C248.227 16.4667 248.227 17.1433 248.204 17.89C248.157 18.6133 248.134 19.5817 248.134 20.795C248.134 22.0083 248.146 23.245 248.169 24.505C248.962 24.015 249.756 23.595 250.549 23.245C251.342 22.8717 252.101 22.5567 252.824 22.3C253.571 22.02 254.247 21.7983 254.854 21.635C255.484 21.4717 256.009 21.3433 256.429 21.25C256.429 21.3667 256.382 21.46 256.289 21.53C256.219 21.5767 256.161 21.6467 256.114 21.74C256.044 21.9033 255.974 22.0667 255.904 22.23C255.834 22.37 255.729 22.4867 255.589 22.58C254.026 23.35 252.614 23.9683 251.354 24.435C250.094 24.9017 249.032 25.4267 248.169 26.01C248.169 26.99 248.169 27.8767 248.169 28.67C248.192 29.4633 248.216 30.0467 248.239 30.42C248.239 30.7 248.216 31.085 248.169 31.575C248.122 32.0417 248.087 32.38 248.064 32.59C248.041 33.15 247.994 33.5467 247.924 33.78C247.877 33.99 247.831 34.2233 247.784 34.48C247.247 33.8267 246.839 32.8583 246.559 31.575C246.279 30.2917 246.081 28.88 245.964 27.34C245.871 25.7767 245.836 24.1667 245.859 22.51C245.906 20.8533 245.987 19.3367 246.104 17.96C246.151 17.2833 246.244 16.7117 246.384 16.245C246.524 15.7783 246.687 15.23 246.874 14.6C246.921 14.53 246.967 14.3783 247.014 14.145C247.061 13.9117 247.142 13.7833 247.259 13.76C247.422 13.7133 247.574 13.7133 247.714 13.76C247.877 13.8067 247.982 13.9 248.029 14.04ZM240.574 20.62C239.524 22.16 238.497 23.7817 237.494 25.485C236.514 27.1883 235.464 28.8917 234.344 30.595C234.087 30.8517 233.959 30.84 233.959 30.56C233.936 30.3033 233.924 30.1517 233.924 30.105C233.947 30.035 233.971 29.965 233.994 29.895C234.017 29.825 234.017 29.7317 233.994 29.615C233.994 29.4983 234.017 29.3233 234.064 29.09C234.344 28.5067 234.671 27.865 235.044 27.165C235.441 26.465 235.849 25.7533 236.269 25.03C236.712 24.3067 237.156 23.595 237.599 22.895C238.042 22.1717 238.474 21.4833 238.894 20.83C237.844 21.18 236.701 21.705 235.464 22.405C234.227 23.0817 232.839 23.8633 231.299 24.75C231.159 24.7733 231.042 24.6683 230.949 24.435C230.879 24.2017 230.844 24.0383 230.844 23.945L230.879 23.28C230.786 23.0233 230.774 22.86 230.844 22.79C230.914 22.6967 231.019 22.58 231.159 22.44C232.279 21.39 233.516 20.515 234.869 19.815C236.246 19.0917 237.611 18.6367 238.964 18.45C239.431 18.3333 239.839 18.275 240.189 18.275C240.562 18.275 240.842 18.345 241.029 18.485C241.146 18.6017 241.227 18.7533 241.274 18.94C241.344 19.1267 241.356 19.3133 241.309 19.5C241.262 19.6867 241.157 19.885 240.994 20.095C240.831 20.2817 240.691 20.4567 240.574 20.62ZM240.259 24.575C240.282 25.485 240.306 26.4533 240.329 27.48C240.376 28.4833 240.399 29.4983 240.399 30.525C240.422 31.5517 240.411 32.5667 240.364 33.57C240.341 34.55 240.271 35.4717 240.154 36.335C239.897 36.195 239.734 36.0317 239.664 35.845C239.617 35.6583 239.547 35.39 239.454 35.04C239.384 34.7833 239.267 34.4683 239.104 34.095C238.964 33.7217 238.894 33.4417 238.894 33.255C238.847 31.6917 238.859 30.14 238.929 28.6C238.999 27.0367 239.162 25.485 239.419 23.945C239.419 23.805 239.466 23.7233 239.559 23.7C239.606 23.6767 239.629 23.6767 239.629 23.7C239.652 23.7233 239.687 23.7467 239.734 23.77C239.781 23.77 239.827 23.8283 239.874 23.945C239.944 24.0383 240.002 24.12 240.049 24.19C240.096 24.26 240.131 24.3183 240.154 24.365C240.201 24.3883 240.236 24.4583 240.259 24.575ZM263.456 15.965C263.596 16.525 263.538 17.0967 263.281 17.68C263.048 18.2633 262.733 18.8233 262.336 19.36C261.939 19.8967 261.508 20.3983 261.041 20.865C260.598 21.3083 260.224 21.6817 259.921 21.985C260.598 21.8217 261.228 21.705 261.811 21.635C262.418 21.565 262.919 21.5533 263.316 21.6C263.433 21.6233 263.573 21.6467 263.736 21.67C263.923 21.67 264.063 21.6933 264.156 21.74C264.273 21.7867 264.331 21.845 264.331 21.915C264.354 21.9617 264.389 22.0317 264.436 22.125C264.506 22.335 264.564 22.51 264.611 22.65C264.681 22.79 264.693 22.9417 264.646 23.105C264.599 23.2217 264.529 23.35 264.436 23.49C264.343 23.6067 264.261 23.7117 264.191 23.805C263.468 24.855 262.709 25.9167 261.916 26.99C261.123 28.0633 260.434 29.195 259.851 30.385C260.971 29.9417 262.103 29.3583 263.246 28.635C264.389 27.9117 265.451 27.165 266.431 26.395C267.411 25.625 268.286 24.9017 269.056 24.225C269.826 23.5483 270.409 23.035 270.806 22.685C270.806 22.8017 270.713 23 270.526 23.28C270.363 23.56 270.258 23.7583 270.211 23.875C270.024 24.295 269.838 24.61 269.651 24.82C269.464 25.0067 269.278 25.31 269.091 25.73C268.811 26.08 268.484 26.4883 268.111 26.955C267.738 27.4217 267.388 27.8417 267.061 28.215C266.594 28.7283 266.104 29.23 265.591 29.72C265.078 30.21 264.529 30.665 263.946 31.085C263.386 31.505 262.803 31.8783 262.196 32.205C261.589 32.5317 260.959 32.7767 260.306 32.94C260.166 32.9867 260.026 32.9867 259.886 32.94C259.769 32.8933 259.641 32.8467 259.501 32.8C259.361 32.7533 259.198 32.7183 259.011 32.695C258.848 32.6717 258.719 32.6017 258.626 32.485C258.556 32.3683 258.521 32.2517 258.521 32.135C258.544 32.0183 258.556 31.8667 258.556 31.68C258.579 31.2133 258.708 30.6417 258.941 29.965C259.198 29.265 259.478 28.5533 259.781 27.83C260.108 27.1067 260.434 26.43 260.761 25.8C261.088 25.1467 261.344 24.6217 261.531 24.225C261.344 24.2483 261.123 24.295 260.866 24.365C260.609 24.4117 260.329 24.47 260.026 24.54C259.746 24.61 259.454 24.68 259.151 24.75C258.871 24.7967 258.614 24.8433 258.381 24.89C258.264 24.9367 258.159 24.9367 258.066 24.89C257.973 24.8433 257.868 24.785 257.751 24.715C257.658 24.6683 257.529 24.61 257.366 24.54C257.226 24.47 257.133 24.3767 257.086 24.26C257.063 24.19 257.074 24.1317 257.121 24.085C257.168 24.015 257.191 23.9333 257.191 23.84C257.191 23.7467 257.238 23.63 257.331 23.49C257.424 23.3267 257.529 23.175 257.646 23.035C257.786 22.8717 257.914 22.7317 258.031 22.615C258.148 22.4983 258.241 22.405 258.311 22.335C258.591 21.9617 258.883 21.5417 259.186 21.075C259.513 20.6083 259.804 20.1417 260.061 19.675C260.318 19.2083 260.539 18.765 260.726 18.345C260.913 17.9017 261.029 17.5167 261.076 17.19C261.076 17.0733 260.971 17.015 260.761 17.015C260.551 16.9917 260.294 17.0033 259.991 17.05C259.688 17.0967 259.361 17.1667 259.011 17.26C258.684 17.33 258.404 17.4 258.171 17.47C257.984 17.4467 257.751 17.3417 257.471 17.155C257.214 16.9683 257.028 16.805 256.911 16.665C256.794 16.5483 256.736 16.455 256.736 16.385C256.736 16.2917 256.724 16.2333 256.701 16.21C256.561 16.0233 256.643 15.8483 256.946 15.685C257.086 15.5917 257.308 15.4867 257.611 15.37C257.914 15.23 258.241 15.1017 258.591 14.985C258.964 14.8683 259.338 14.7633 259.711 14.67C260.084 14.5767 260.399 14.5183 260.656 14.495C260.796 14.4717 260.983 14.4833 261.216 14.53C261.449 14.5533 261.694 14.6233 261.951 14.74C262.068 14.7867 262.219 14.8917 262.406 15.055C262.616 15.2183 262.779 15.335 262.896 15.405C263.083 15.5217 263.199 15.6033 263.246 15.65C263.293 15.6733 263.363 15.7783 263.456 15.965ZM273.886 16.945C273.979 17.7617 274.038 18.6833 274.061 19.71C274.108 20.7133 274.119 21.7517 274.096 22.825C274.096 23.8983 274.073 24.96 274.026 26.01C274.003 27.0367 273.968 27.9817 273.921 28.845C273.898 29.7083 273.863 30.4317 273.816 31.015C273.793 31.5983 273.781 31.9833 273.781 32.17C273.291 31.5167 272.929 30.6067 272.696 29.44C272.486 28.25 272.358 26.955 272.311 25.555C272.288 24.155 272.323 22.72 272.416 21.25C272.509 19.7567 272.626 18.3683 272.766 17.085C272.743 16.9917 272.778 16.9217 272.871 16.875C272.988 16.805 273.104 16.7233 273.221 16.63C273.291 16.5833 273.361 16.5133 273.431 16.42C273.501 16.3267 273.559 16.28 273.606 16.28C273.746 16.2567 273.816 16.3383 273.816 16.525C273.839 16.6883 273.863 16.8283 273.886 16.945Z" fill="#0E183F"/>
<path d="M298.326 30.7871V32.5273H280.709V30.7871H288.443V26.6836H282.256V25.0723H285.135V19.0137H282.213V17.3594H296.715V19.0137H293.771V25.0723H296.65V26.6836H290.463V30.7871H298.326ZM287.154 25.0723H291.773V19.0137H287.154V25.0723ZM309.058 16.7148V18.3691H302.269V20.1309H308.499V21.6777H302.269V23.6328C305.567 23.6221 307.565 23.5684 309.96 23.1816L310.132 24.8145C307.543 25.2334 305.395 25.2656 301.689 25.2656H300.249V16.7148H309.058ZM302.72 28.3164V26.7266H315.31V31.3887H304.804V33.043H315.997V34.6328H302.763V29.8633H313.29V28.3164H302.72ZM309.789 21.5273V19.8945H313.29V15.5762H315.31V25.9102H313.29V21.5273H309.789Z" fill="#0E183F"/>
<defs>
<clipPath id="clip0_6201_168239">
<rect width="199" height="49" fill="white"/>
</clipPath>
</defs>
</svg>
