<svg xmlns="http://www.w3.org/2000/svg" xml:space="preserve" width="660.14032" height="281.39511" version="1.0"><path d="M660.14 51.805h-84.31l-45.71 56.884-37.585-56.884h-83.294l77.2 106.658-59.932 68.058h-71.105l-3.047-1.016-3.048-1.016-2.031-3.047-2.032-2.032-2.032-3.047v-2.032l-1.015-4.063v-103.61h85.326l-40.632-54.853H342.2V0h-74.153v51.805H70.983l-8.126 1.016c-57.985 4.537-80.484 73.17-47.742 116.816l4.063 5.079 5.079 4.063 5.079 5.079c37.669 22.906 84.53 5.671 124.942 13.205l2.031 1.016 3.048 2.031 2.031 2.032 2.032 6.095v6.094l-2.032 6.095-2.031 2.032-3.048 2.031-2.031 1.016-4.063 1.016H8.005v54.852h165.573c58.814-5.57 79.384-74.982 47.742-116.815l-4.063-5.08-5.08-5.078-5.078-4.063-6.095-4.064-6.095-3.047-14.22-4.063-7.111-1.016H88.252L79.11 135.1l-4.064-4.063-1.015-3.048-1.016-3.047-1.016-2.032 1.016-4.063 1.016-3.047 1.015-3.048 4.064-4.063 6.094-2.031h182.842v103.61c1.1 40.92 29.052 72.07 71.105 71.105h124.942l57.9-71.105 49.774 71.105h83.294L565.672 159.48 660.14 51.805" style="fill:#e00034;fill-opacity:1;fill-rule:evenodd;stroke:none;stroke-width:2.05363"/></svg>