<svg width="283" height="56" viewBox="0 0 283 56" fill="none" xmlns="http://www.w3.org/2000/svg">
<g clip-path="url(#clip0_836_7200)">
<path d="M59.0904 28.5375C57.1728 27.1515 52.1128 25.6059 45.3861 25.8353C28.2584 26.4236 17.4355 32.5859 14.5742 34.5801C15.8995 41.6698 20.5981 47.5927 26.9532 50.634C28.0475 49.6069 29.4129 48.53 31.1297 47.4631C38.4788 42.8962 46.4403 29.9734 46.4403 29.9734C46.4403 29.9734 54.7833 32.7354 49.8237 43.4447C48.117 47.1341 44.6834 50.2152 40.6273 52.5086C51.1992 50.6639 59.2309 41.5102 59.2309 30.4919C59.2309 29.8238 59.1807 29.1856 59.0904 28.5375Z" fill="url(#paint0_radial_836_7200)"/>
<path d="M14.2126 30.3025C14.2227 30.2825 14.2327 30.2626 14.2528 30.2427C21.883 25.7556 39.1413 22.2556 49.3517 22.2556C52.5243 22.2556 55.2651 22.6844 57.5943 23.2926C55.8072 18.995 53.1166 15.4751 52.5544 14.6575C51.6709 16.8611 49.0505 19.2343 45.4061 18.3768C41.6412 17.4893 40.6372 15.6047 34.8945 12.7928C31.3003 11.0379 26.9229 10.998 23.7102 12.2245C23.7102 12.2245 23.7102 12.2245 23.7203 12.2145C17.9675 16.2628 14.2126 22.9237 14.2126 30.462C14.2126 30.4122 14.2126 30.3523 14.2227 30.3025C14.2026 30.3025 14.2026 30.3025 14.2126 30.3025Z" fill="url(#paint1_radial_836_7200)"/>
<path d="M79.491 28.7958C78.738 22.5139 62.6543 18.5652 42.8259 20.8985C25.3969 22.9426 11.0702 30.5009 8.08838 34.9381C10.9899 32.2858 19.2726 27.3898 36.0892 25.7346C58.2168 23.5608 74.3506 27.7687 61.0881 38.4979C57.8152 41.1503 55.1245 42.4665 53.217 43.1146C68.889 40.0534 80.1335 34.1703 79.491 28.7958Z" fill="url(#paint2_linear_836_7200)"/>
<path d="M52.9458 10.6586C52.3936 6.12161 48.4078 3.33961 46.8115 2.44219C37.5649 -2.75288 23.0876 0.477836 12.0339 10.9477C4.78518 17.798 0.588575 26.2737 -0.0840874 33.9516C-0.184485 35.0983 0.40786 22.9632 15.0458 13.8893C20.7383 10.3594 24.6538 9.75118 29.6837 9.48195C39.3219 9.82098 39.5427 14.4975 45.3457 16.8607C49.1206 18.3864 53.508 15.2753 52.9458 10.6586Z" fill="url(#paint3_linear_836_7200)"/>
<path d="M49.7632 30.6515C45.3056 26.7926 39.7536 29.6743 36.0891 35.2483C30.7179 43.4148 22.2845 49.9759 10.8894 48.8392C0.136855 47.7723 -0.154297 37.771 -0.154297 37.771C0.0866566 42.4376 1.69301 46.6654 4.78525 49.8962C13.7808 59.2692 32.6555 57.8234 46.4602 45.7381C51.3997 41.4205 53.3374 33.7526 49.7632 30.6515Z" fill="url(#paint4_linear_836_7200)"/>
<path d="M128.747 7.89844V9.57616C128.747 12.8433 127.352 15.2818 124.561 16.8916C122.462 18.121 119.774 18.7799 116.505 18.8817V15.6757C119.391 15.5942 121.6 15.0372 123.132 14.0116C124.397 13.149 125.033 12.1233 125.033 10.9278H116.833V7.89844H128.747ZM133.26 18.9768C134.758 20.2334 135.504 21.8161 135.504 23.7179C135.504 25.6062 134.751 27.1753 133.26 28.4319C131.865 29.6205 130.238 30.2183 128.371 30.2183C126.51 30.2183 124.889 29.6205 123.508 28.4319C122.044 27.1753 121.313 25.5994 121.313 23.7179C121.313 21.8161 122.044 20.2334 123.508 18.9768C124.889 17.8018 126.51 17.2108 128.371 17.2108C130.238 17.2176 131.865 17.8018 133.26 18.9768ZM125.984 21.3474C125.252 21.9927 124.889 22.7874 124.889 23.7247C124.889 24.6485 125.252 25.4432 125.984 26.1089C126.681 26.7406 127.495 27.053 128.425 27.053C129.355 27.053 130.169 26.7406 130.867 26.1089C131.578 25.4636 131.934 24.6689 131.934 23.7247C131.934 22.767 131.578 21.9723 130.867 21.3474C130.183 20.7361 129.369 20.4304 128.425 20.4304C127.495 20.4304 126.681 20.7361 125.984 21.3474ZM132.789 9.2705V7.89844H136.311V18.0055H132.789V16.3686H129.615V13.5769H132.789V12.0622H129.615V9.2705H132.789Z" fill="#DDDDDD"/>
<path d="M140.831 7.91202H144.36V14.3037H157.122V7.89844H160.644V11.5392H163.495V14.7384H160.644V18.7731H157.122V17.4961H142.534C141.953 17.4961 141.529 17.367 141.262 17.1089C140.975 16.8033 140.838 16.2938 140.838 15.5738V7.91202H140.831ZM142.021 19.9278H160.644V27.6236C160.644 28.3368 160.486 28.8394 160.172 29.1451C159.905 29.3964 159.488 29.5254 158.92 29.5254H143.744C143.163 29.5254 142.739 29.3964 142.466 29.1451C142.165 28.8394 142.014 28.33 142.014 27.6236V19.9278H142.021ZM157.115 23.0794H145.495V26.3738H157.115V23.0794Z" fill="#DDDDDD"/>
<path d="M168.686 17.6397V21.6404H175.641V24.8192H166.84C166.272 24.8192 165.855 24.6902 165.588 24.4389C165.301 24.1332 165.164 23.6306 165.164 22.9174V7.89937H174.492V11.085H168.686V14.6035H174.137V17.6397H168.686ZM175.272 14.454H176.975V7.89258H180.265V29.5264H176.975V17.7348H175.272V14.454ZM181.591 7.89937H184.97V29.5196H181.591V7.89937Z" fill="#DDDDDD"/>
<path d="M204.858 11.0171H189.853V7.89258H208.387V24.8736H210.014V27.9981H188.731V24.8736H204.865V18.1559H189.983V15.0314H204.865V11.0171H204.858Z" fill="#DDDDDD"/>
<path d="M233.089 19.1683H225.511V24.8943H234.388V28.0188H213.105V24.8943H221.982V19.1683H216.087C215.485 19.1683 215.061 19.046 214.815 18.7947C214.514 18.4959 214.364 17.9932 214.364 17.2936V7.94727H217.934V16.0438H233.082V19.1683H233.089Z" fill="#DDDDDD"/>
<path d="M249.25 21.6395H254.44V7.89844H257.963V15.3225H260.814V18.5014H257.963V29.5526H254.44V24.8183H238.006V21.6395H239.634V11.0773H238.006V7.89844H250.973V11.0773H249.25V21.6395ZM242.917 11.0161V21.3746H245.967V11.0161H242.917Z" fill="#DDDDDD"/>
<path d="M277.85 11.0171H262.846V7.89258H281.373V24.8736H283V27.9981H261.717V24.8736H277.85V18.1559H262.969V15.0314H277.85V11.0171Z" fill="#DDDDDD"/>
<path d="M91.8502 9.37332C91.8639 11.1529 92.0622 12.4367 92.4383 13.2178C92.7187 13.8088 93.1291 14.1552 93.6694 14.2571V15.9484C93.1633 15.9076 92.6846 15.7174 92.2469 15.371C91.6792 14.9363 91.2689 14.3182 91.0158 13.5031C90.7423 14.3046 90.3251 14.9295 89.7506 15.371C89.3061 15.7174 88.8342 15.9144 88.3418 15.9484V14.2571C88.8752 14.1484 89.2856 13.802 89.5728 13.2178C89.949 12.4299 90.1405 11.1529 90.1541 9.37332H88.4444V7.89258H93.5531V9.37332H91.8502ZM96.5486 12.525H95.851V17.9997H94.2849V7.89937H95.851V11.0239H96.5486V7.89937H98.1626V17.9997H96.5486V12.525Z" fill="#DDDDDD"/>
<path d="M102.068 11.7769H108.148V7.89844H109.823V9.9837H111.184V11.478H109.823V14.8335H108.148V13.2576H101.192C100.912 13.2576 100.714 13.1965 100.584 13.081C100.447 12.9384 100.378 12.7007 100.378 12.3678V7.89844H106.308V9.37918H102.068V11.7769ZM100.946 14.2901H102.622V16.4772H109.919V17.958H101.767C101.486 17.958 101.288 17.8968 101.158 17.7814C101.014 17.6387 100.946 17.401 100.946 17.0682V14.2901Z" fill="#DDDDDD"/>
<path d="M94.7087 21.1236H96.4732V19.5273H98.1624V24.513H96.4732V22.5975H94.7087V23.3107C94.7087 23.6435 94.6403 23.8813 94.4967 24.0239C94.3668 24.1394 94.1685 24.2005 93.8881 24.2005H89.5111C89.2307 24.2005 89.0324 24.1394 88.9161 24.0239C88.7793 23.8881 88.7109 23.6503 88.7109 23.3175V19.5409H90.3865V20.4511H93.04V19.5409H94.7156V21.1236H94.7087ZM89.2717 25.1786H90.9336V25.9462H96.4937V25.1786H98.1693V28.6835C98.1693 29.0163 98.094 29.2473 97.9436 29.3899C97.8136 29.5054 97.6153 29.5665 97.3486 29.5665H90.0993C89.8189 29.5665 89.6205 29.5122 89.4906 29.3899C89.347 29.2473 89.2786 29.0095 89.2786 28.6835V25.1786H89.2717ZM90.3796 22.7673H93.0332V21.8368H90.3796V22.7673ZM96.4869 27.3386H90.9268V28.1061H96.4869V27.3386Z" fill="#DDDDDD"/>
<path d="M105.385 19.8942C106.062 20.4648 106.397 21.178 106.397 22.0474C106.397 22.8965 106.055 23.6097 105.385 24.1802C104.756 24.7168 104.017 24.9885 103.183 24.9885C102.328 24.9885 101.589 24.7168 100.96 24.1802C100.29 23.6097 99.9546 22.9033 99.9546 22.0474C99.9546 21.178 100.29 20.458 100.96 19.8942C101.589 19.3576 102.328 19.0859 103.183 19.0859C104.017 19.0927 104.749 19.3576 105.385 19.8942ZM100.946 25.8987H102.622V28.113H109.919V29.5938H101.753C101.473 29.5938 101.281 29.5326 101.158 29.4172C101.015 29.2745 100.946 29.0368 100.946 28.7108V25.8987ZM102.129 21.0354C101.822 21.3138 101.664 21.6535 101.664 22.0542C101.664 22.4482 101.822 22.781 102.129 23.0459C102.423 23.304 102.772 23.4399 103.183 23.4399C103.566 23.4399 103.901 23.3108 104.202 23.0459C104.509 22.7674 104.667 22.4414 104.667 22.0542C104.667 21.6535 104.509 21.3138 104.202 21.0354C103.908 20.7772 103.566 20.6482 103.183 20.6482C102.772 20.6414 102.423 20.7772 102.129 21.0354ZM108.148 19.5342H109.823V26.4489H108.148V19.5342Z" fill="#DDDDDD"/>
<path d="M88.5283 32.3457H283V43.6905C283 43.6905 274.083 52.8687 270.754 56.0009C194.808 56.0009 164.474 56.0009 88.5283 56.0009V32.3457Z" fill="#838995" fill-opacity="0.5"/>
<path d="M110.885 37.75V50.56H109.385V44.395H106.61V49.795H99.485V38.125H100.955V42.535H105.14V38.125H106.61V43H109.385V37.75H110.885ZM105.14 48.43V43.9H100.955V48.43H105.14ZM119.149 42.49C118.549 43.16 117.759 43.695 116.779 44.095C115.809 44.495 114.719 44.73 113.509 44.8V43.435C114.849 43.335 115.979 43 116.899 42.43C117.829 41.85 118.424 41.12 118.684 40.24H113.839V38.89H118.699V37.435H120.229V38.89H125.149V40.24H120.289C120.219 40.59 120.094 40.965 119.914 41.365L125.494 43.42L124.984 44.71L119.149 42.49ZM125.899 47.41H120.244V50.86H118.729V47.41H113.104V46.03H125.899V47.41ZM135.332 41.455C135.172 42.175 134.747 42.755 134.057 43.195C133.367 43.635 132.512 43.855 131.492 43.855C130.722 43.855 130.042 43.73 129.452 43.48C128.862 43.22 128.402 42.865 128.072 42.415C127.742 41.965 127.577 41.45 127.577 40.87C127.577 40.29 127.742 39.775 128.072 39.325C128.402 38.875 128.862 38.525 129.452 38.275C130.042 38.015 130.722 37.885 131.492 37.885C132.472 37.885 133.297 38.085 133.967 38.485C134.647 38.885 135.087 39.425 135.287 40.105H137.957V37.75H139.442V44.02H137.957V41.455H135.332ZM129.047 40.87C129.047 41.41 129.272 41.845 129.722 42.175C130.182 42.495 130.772 42.655 131.492 42.655C132.212 42.655 132.797 42.495 133.247 42.175C133.697 41.845 133.922 41.41 133.922 40.87C133.922 40.33 133.697 39.9 133.247 39.58C132.797 39.25 132.212 39.085 131.492 39.085C130.772 39.085 130.182 39.25 129.722 39.58C129.272 39.9 129.047 40.33 129.047 40.87ZM139.757 49.225V50.395H128.687V47.005H137.972V45.895H128.657V44.725H139.442V48.115H130.157V49.225H139.757ZM153.976 37.75V50.56H152.551V44.305H150.361V50.335H148.936V37.825H150.361V42.91H152.551V37.75H153.976ZM141.946 38.215H147.301V41.665C147.301 43.285 147.071 44.705 146.611 45.925C146.161 47.145 145.531 48.09 144.721 48.76C143.911 49.42 142.986 49.755 141.946 49.765V48.37C142.736 48.35 143.426 48.065 144.016 47.515C144.606 46.955 145.061 46.18 145.381 45.19C145.701 44.2 145.861 43.05 145.861 41.74V39.565H141.946V38.215ZM169.335 40.045V41.41H167.535V44.17H166.05V37.75H167.535V40.045H169.335ZM163.875 43.705H156.39V37.975H157.845V39.565H162.42V37.975H163.875V43.705ZM162.42 42.505V40.75H157.845V42.505H162.42ZM158.31 49.24H167.85V50.395H156.84V47.08H166.065V46.03H156.81V44.875H167.535V48.175H158.31V49.24ZM180.689 37.75H182.174V50.56H180.689V37.75ZM170.819 48.355C171.969 48.355 172.964 48.07 173.804 47.5C174.654 46.92 175.299 46.105 175.739 45.055C176.189 43.995 176.414 42.755 176.414 41.335V39.58H170.819V38.215H177.929V41.305C177.929 43.005 177.639 44.495 177.059 45.775C176.489 47.045 175.664 48.03 174.584 48.73C173.514 49.42 172.259 49.765 170.819 49.765V48.355ZM190.782 40.015C190.072 40.675 189.192 41.205 188.142 41.605C187.102 42.005 186.042 42.215 184.962 42.235V41.005C185.812 40.975 186.642 40.815 187.452 40.525C188.272 40.225 188.972 39.815 189.552 39.295C190.142 38.765 190.522 38.15 190.692 37.45L192.177 37.72C192.077 38.16 191.882 38.61 191.592 39.07L196.887 41.155L196.407 42.265L190.782 40.015ZM191.622 44.185V45.34H196.407V48.4H186.837V49.3H196.632V50.41H185.382V47.35H194.952V46.45H185.352V45.34H190.152V44.185H184.497V43.03H197.292V44.185H191.622ZM210.731 37.75V50.56H209.246V37.75H210.731ZM204.251 39.58C204.241 41 204.106 42.35 203.846 43.63L208.031 48.805L206.861 49.69L203.411 45.295C202.971 46.635 202.376 47.695 201.626 48.475C200.886 49.245 200.031 49.685 199.061 49.795V48.325C199.811 48.185 200.456 47.725 200.996 46.945C201.546 46.165 201.971 45.14 202.271 43.87C202.571 42.6 202.731 41.17 202.751 39.58H199.361V38.215H207.536V39.58H204.251ZM223.63 45.79V37.75H225.115V47.785H223.63V46.99H219.745V45.79H223.63ZM217.615 42.775C216.475 42.775 215.555 42.555 214.855 42.115C214.165 41.675 213.82 41.06 213.82 40.27C213.82 39.48 214.165 38.87 214.855 38.44C215.555 38 216.475 37.78 217.615 37.78C218.755 37.78 219.67 38 220.36 38.44C221.06 38.87 221.41 39.48 221.41 40.27C221.41 41.06 221.06 41.675 220.36 42.115C219.67 42.555 218.755 42.775 217.615 42.775ZM217.615 38.95C216.915 38.95 216.35 39.065 215.92 39.295C215.49 39.515 215.275 39.84 215.275 40.27C215.275 40.7 215.49 41.03 215.92 41.26C216.35 41.49 216.915 41.605 217.615 41.605C218.315 41.605 218.88 41.49 219.31 41.26C219.74 41.03 219.955 40.7 219.955 40.27C219.955 39.84 219.74 39.515 219.31 39.295C218.88 39.065 218.315 38.95 217.615 38.95ZM216.595 44.905H213.055V43.675H218.35C220.35 43.675 221.75 43.505 222.55 43.165V44.395C221.79 44.735 220.375 44.905 218.305 44.905H218.08V47.2H216.595V44.905ZM225.445 49.135V50.395H214.24V46.51H215.725V49.135H225.445ZM239.378 42.265H228.068V41.14H230.333V39.025H228.203V37.9H239.243V39.025H237.113V41.14H239.378V42.265ZM231.818 41.14H235.628V39.025H231.818V41.14ZM240.128 43.33V44.485H227.333V43.33H240.128ZM229.673 49.315H239.468V50.41H228.218V47.44H237.788V46.615H228.188V45.52H239.243V48.475H229.673V49.315ZM250.432 45.61H249.022V37.825H250.432V40.81H252.517V37.75H253.927V46.795H252.517V42.175H250.432V45.61ZM248.152 44.89C247.372 45.21 246.167 45.37 244.537 45.37H242.002V41.05H246.037V39.31H242.002V38.065H247.432V42.265H243.382V44.125H244.642C246.192 44.125 247.362 43.97 248.152 43.66V44.89ZM253.942 50.56L248.212 48.385C247.542 49.025 246.707 49.515 245.707 49.855C244.717 50.205 243.672 50.385 242.572 50.395V49.12C243.412 49.11 244.222 48.98 245.002 48.73C245.782 48.47 246.447 48.1 246.997 47.62C247.547 47.13 247.897 46.55 248.047 45.88L249.517 46.195C249.417 46.615 249.252 47.005 249.022 47.365L254.512 49.33L253.942 50.56ZM268.686 43.99V45.175H255.891V43.99H261.546V42.7H256.626V41.53H258.891V39.07H256.761V37.9H267.801V39.07H265.671V41.53H267.936V42.7H263.016V43.99H268.686ZM260.376 41.53H264.186V39.07H260.376V41.53ZM256.776 46.345H267.786V50.41H256.776V46.345ZM258.261 49.24H266.316V47.5H258.261V49.24Z" fill="white"/>
</g>
<defs>
<radialGradient id="paint0_radial_836_7200" cx="0" cy="0" r="1" gradientUnits="userSpaceOnUse" gradientTransform="translate(42.4153 20.7264) scale(29.029 28.8312)">
<stop stop-color="white"/>
<stop offset="0.174" stop-color="#FBFBFB"/>
<stop offset="0.3429" stop-color="#EFEFEF"/>
<stop offset="0.5096" stop-color="#DCDCDC"/>
<stop offset="0.6751" stop-color="#C1C1C1"/>
<stop offset="0.838" stop-color="#9E9E9E"/>
<stop offset="1" stop-color="#737373"/>
</radialGradient>
<radialGradient id="paint1_radial_836_7200" cx="0" cy="0" r="1" gradientUnits="userSpaceOnUse" gradientTransform="translate(42.4144 20.7245) scale(29.0319 28.8341)">
<stop stop-color="white"/>
<stop offset="0.174" stop-color="#FBFBFB"/>
<stop offset="0.3429" stop-color="#EFEFEF"/>
<stop offset="0.5096" stop-color="#DCDCDC"/>
<stop offset="0.6751" stop-color="#C1C1C1"/>
<stop offset="0.838" stop-color="#9E9E9E"/>
<stop offset="1" stop-color="#737373"/>
</radialGradient>
<linearGradient id="paint2_linear_836_7200" x1="28.5511" y1="29.0898" x2="73.8541" y2="33.4637" gradientUnits="userSpaceOnUse">
<stop stop-color="#76B82A"/>
<stop offset="1" stop-color="#00853E"/>
</linearGradient>
<linearGradient id="paint3_linear_836_7200" x1="15.2202" y1="27.0499" x2="41.8204" y2="4.38766" gradientUnits="userSpaceOnUse">
<stop stop-color="#F39200"/>
<stop offset="0.2604" stop-color="#E87906"/>
<stop offset="0.8223" stop-color="#CD3519"/>
<stop offset="1" stop-color="#C51A1B"/>
</linearGradient>
<linearGradient id="paint4_linear_836_7200" x1="15.4114" y1="48.7204" x2="38.9506" y2="27.2417" gradientUnits="userSpaceOnUse">
<stop stop-color="#00B1EB"/>
<stop offset="1" stop-color="#00569D"/>
</linearGradient>
<clipPath id="clip0_836_7200">
<rect width="283" height="56" fill="white"/>
</clipPath>
</defs>
</svg>
