<svg width="2966" height="2639" viewBox="0 0 2966 2639" fill="none" xmlns="http://www.w3.org/2000/svg">
<path d="M2437.87 855.472C2406.32 844.646 2374.49 834.616 2342.43 825.393C2347.82 803.387 2352.78 781.647 2357.18 760.289C2429.43 409.565 2382.19 127.014 2220.86 33.9854C2066.18 -55.1984 1813.21 37.796 1557.73 260.142C1532.55 282.094 1507.93 304.679 1483.89 327.875C1467.8 312.45 1451.43 297.325 1434.77 282.507C1167.01 44.7685 898.629 -55.43 737.472 37.8655C582.93 127.327 537.168 392.944 602.214 725.333C608.686 758.253 615.993 791.003 624.128 823.551C586.138 834.346 549.48 845.836 514.397 858.067C200.47 967.519 -0.0078125 1139.04 -0.0078125 1316.96C-0.0078125 1500.71 215.215 1685.02 542.183 1796.78C568.691 1805.8 595.42 1814.16 622.344 1821.85C613.6 1856.91 605.837 1892.2 599.064 1927.69C537.052 2254.31 585.478 2513.65 739.604 2602.55C898.791 2694.35 1165.97 2600 1426.12 2372.58C1447.22 2354.09 1467.85 2335.08 1487.99 2315.56C1514.03 2340.68 1540.75 2365.06 1568.14 2388.69C1820.15 2605.54 2069.03 2693.1 2223.01 2603.96C2382.04 2511.89 2433.74 2233.29 2366.63 1894.34C2361.34 1867.78 2355.41 1841.36 2348.85 1815.09C2367.61 1809.53 2386.03 1803.81 2403.98 1797.86C2743.9 1685.24 2965.06 1503.17 2965.06 1316.96C2965.06 1138.39 2758.11 965.713 2437.87 855.472ZM2364.15 1677.63C2347.93 1682.99 2331.3 1688.17 2314.35 1693.21C2276.82 1574.41 2226.18 1448.09 2164.2 1317.57C2223.34 1190.17 2272.04 1065.46 2308.51 947.436C2338.84 956.215 2368.27 965.469 2396.65 975.233C2671.03 1069.7 2838.4 1209.35 2838.4 1316.96C2838.4 1431.58 2657.65 1580.37 2364.15 1677.63ZM2242.37 1918.94C2272.05 2068.81 2276.27 2204.32 2256.62 2310.27C2238.97 2405.46 2203.46 2468.92 2159.54 2494.35C2066.1 2548.44 1866.27 2478.13 1650.76 2292.67C1625.28 2270.71 1600.42 2248.04 1576.21 2224.69C1659.76 2133.31 1743.26 2027.09 1824.75 1909.11C1968.09 1896.4 2103.51 1875.6 2226.32 1847.21C2232.24 1870.99 2237.59 1894.9 2242.37 1918.94ZM1010.85 2485C919.558 2517.23 846.844 2518.16 802.889 2492.82C709.362 2438.88 670.48 2230.64 723.516 1951.32C729.82 1918.31 737.039 1885.49 745.163 1852.88C866.615 1879.75 1001.05 1899.07 1144.73 1910.72C1226.78 2026.17 1312.68 2132.27 1399.26 2225.18C1380.86 2242.99 1362.03 2260.34 1342.78 2277.21C1227.73 2377.77 1112.45 2449.12 1010.85 2485ZM583.161 1676.92C438.579 1627.5 319.177 1563.28 237.337 1493.19C163.789 1430.22 126.668 1367.69 126.668 1316.96C126.668 1208.99 287.627 1071.27 556.094 977.677C588.675 966.326 622.773 955.613 658.157 945.559C695.267 1066.25 743.935 1192.44 802.669 1320.04C743.171 1449.53 693.807 1577.73 656.338 1699.85C631.762 1692.81 607.362 1685.16 583.161 1676.92ZM726.527 700.999C670.805 416.225 707.81 201.408 800.944 147.492C900.134 90.0669 1119.48 171.942 1350.67 377.227C1365.75 390.644 1380.58 404.332 1395.16 418.286C1309.01 510.794 1223.89 616.112 1142.58 730.87C1003.12 743.796 869.638 764.551 746.912 792.36C739.351 762.086 732.554 731.615 726.527 700.999ZM2005.53 1016.84C1976.54 966.766 1946.48 917.325 1915.36 868.549C2009.96 880.513 2100.61 896.392 2185.72 915.804C2160.17 997.715 2128.32 1083.34 2090.83 1171.14C2063.43 1119.14 2034.99 1067.7 2005.53 1016.84ZM1483.95 508.825C1542.37 572.123 1600.89 642.786 1658.44 719.461C1541.69 713.947 1424.75 713.924 1307.99 719.392C1365.6 643.423 1424.62 572.852 1483.95 508.825ZM959.03 1017.69C929.94 1068.14 902.03 1119.27 875.325 1171.02C838.447 1083.54 806.885 997.518 781.115 914.449C865.712 895.524 955.926 880.05 1049.93 868.305C1018.46 917.379 988.156 967.197 959.03 1017.69ZM1052.63 1774.62C955.509 1763.78 863.94 1749.11 779.366 1730.69C805.542 1646.14 837.798 1558.29 875.476 1468.93C902.287 1520.72 930.312 1571.87 959.528 1622.35C989.573 1674.24 1020.68 1725.06 1052.63 1774.62ZM1487.45 2134.02C1427.41 2069.25 1367.53 1997.59 1309.05 1920.52C1365.82 1922.75 1423.7 1923.88 1482.53 1923.88C1542.96 1923.88 1602.71 1922.53 1661.51 1919.91C1603.77 1998.37 1545.48 2070.13 1487.45 2134.02ZM2092.02 1464.37C2131.66 1554.71 2165.06 1642.1 2191.58 1725.2C2105.62 1744.82 2012.8 1760.62 1915 1772.35C1946.34 1722.67 1976.69 1672.37 2006.02 1621.48C2035.85 1569.75 2064.53 1517.37 2092.02 1464.37ZM1896.31 1558.19C1851.39 1636.22 1803.95 1712.76 1754.06 1787.7C1663.69 1794.1 1573.12 1797.28 1482.53 1797.23C1390.25 1797.23 1300.5 1794.36 1214.07 1788.75C1162.88 1713.99 1114.54 1637.31 1069.14 1558.89C1023.96 1480.88 981.773 1401.19 942.641 1319.98C981.673 1238.75 1023.75 1159.02 1068.77 1080.96L1068.76 1080.97C1113.77 1002.88 1161.73 926.535 1212.53 852.09C1300.71 845.419 1391.13 841.944 1482.52 841.944C1574.32 841.944 1664.87 845.454 1753.02 852.171C1803.31 926.505 1850.96 1002.59 1895.89 1080.28C1941.06 1158.18 1983.69 1237.52 2023.71 1318.19C1984.11 1399.68 1941.61 1479.73 1896.31 1558.19ZM2157.6 143.716C2256.89 200.979 2295.5 431.896 2233.12 734.715C2229.13 754.034 2224.66 773.713 2219.8 793.669C2096.77 765.269 1963.19 744.155 1823.34 731.032C1741.87 615.012 1657.44 509.532 1572.7 418.217C1594.91 396.807 1617.65 375.953 1640.89 355.672C1859.8 165.178 2064.39 89.9627 2157.6 143.716ZM1482.53 1052.19C1628.75 1052.19 1747.3 1170.73 1747.3 1316.96C1747.3 1463.18 1628.75 1581.73 1482.53 1581.73C1336.3 1581.73 1217.76 1463.18 1217.76 1316.96C1217.76 1170.73 1336.3 1052.19 1482.53 1052.19Z" fill="#61DAFB"/>
</svg>
