<svg width="1275" height="2966" viewBox="0 0 1275 2966" fill="none" xmlns="http://www.w3.org/2000/svg">
<path d="M888.292 250.87C888.292 112.437 776.146 0.306641 637.696 0.306641C499.262 0.306641 387.132 112.437 387.148 250.87C387.148 352.81 448.309 440.617 535.789 479.744V587.933L535.822 594.001C538.815 794.249 689.385 963.042 888.62 987.791L921.694 992.11C1014.2 1004.97 1060.39 1073.9 1072.76 1134.44C1085.25 1195.61 1069.14 1278.15 986.601 1325.82C946.653 1349.09 902.103 1363.34 856.068 1367.6L401.281 1410.34L397.601 1410.7C324.499 1418.15 253.804 1441 190.172 1477.75C47.1418 1560.61 -24.2096 1718.46 8.66896 1880.24C41.2203 2042.01 168.154 2159.74 331.893 2180.46L362.154 2184.41L365.213 2184.8C465.959 2198.98 541.694 2285.72 541.694 2387.63V2483.65L538.995 2484.79C450.01 2523.25 387.803 2611.93 387.803 2714.81C387.803 2853.25 499.933 2965.38 638.383 2965.38C776.816 2965.38 888.947 2853.25 888.947 2714.81C888.947 2612.55 827.459 2524.41 739.652 2485.61V2387.61L739.619 2381.55C736.626 2181.31 586.055 2012.51 386.821 1987.76L353.746 1983.44C261.261 1970.58 215.051 1901.65 202.669 1841.11C190.172 1779.93 206.3 1697.41 288.84 1649.73C328.79 1626.47 373.339 1612.21 419.373 1607.97L874.143 1565.21L877.84 1564.85C950.936 1557.4 1021.62 1534.54 1085.25 1497.8C1228.3 1414.93 1299.32 1257.1 1266.77 1095.31C1234.22 933.534 1107.29 815.809 943.548 795.1L913.287 791.142L910.228 790.733C809.466 776.567 733.731 689.823 733.731 587.933V482.361L736.446 481.216C825.758 442.76 888.292 354.086 888.292 250.87Z" fill="#1C1E21"/>
<path d="M1079.33 1830.9L938.919 1677.01L933.652 1677.96C919.584 1680.42 905.321 1682.28 891.024 1683.92L885.005 1684.59L694.276 1702.66L933.014 1964.41L935.157 1966.8C1005.82 2045.56 1044.88 2147.66 1044.82 2253.47H1243.07V2248.77C1241.92 2093.93 1183.82 1945.83 1079.33 1830.9Z" fill="#1C1E21"/>
<path d="M322.831 1001.19C252.177 922.433 213.127 820.342 213.187 714.54L15.2283 714.523L15.2447 719.218C16.3247 873.943 74.6535 1022.79 178.983 1137.05L320.721 1292.6L325.791 1291.57C344.669 1287.83 363.722 1285.05 382.879 1283.22L388.113 1282.73L564.365 1265.98L324.99 1003.58L322.831 1001.19Z" fill="#1C1E21"/>
</svg>
