<svg width="3301" height="2966" viewBox="0 0 3301 2966" fill="none" xmlns="http://www.w3.org/2000/svg">
<g clip-path="url(#clip0_520_10)">
<path d="M2036.85 1837.68L1973.55 1947.61C1964.18 1963.87 1950.69 1977.39 1934.44 1986.78C1918.18 1996.17 1899.74 2001.12 1880.97 2001.12H1396.01C1377.24 2001.12 1358.79 1996.17 1342.54 1986.78C1326.28 1977.39 1312.79 1963.87 1303.42 1947.61L1240.11 1837.68H2036.85ZM2214.07 1529.96L2102.46 1723.77H1174.52L1062.9 1529.96H2214.07ZM2106.56 1229.04L2214.25 1416.05H1062.72L1170.42 1229.04H2106.56ZM1880.95 944.575C1899.73 944.572 1918.17 949.516 1934.43 958.911C1950.69 968.306 1964.18 981.818 1973.55 998.088L2040.95 1115.13H1236.02L1303.43 998.088C1312.81 981.82 1326.3 968.309 1342.55 958.914C1358.81 949.52 1377.25 944.574 1396.02 944.575H1880.95Z" fill="#00435B"/>
<path d="M690.233 893.562C636.513 633.074 624.975 433.28 659.705 288.21C680.358 201.927 718.104 131.539 775.524 80.7458C836.14 27.1296 912.768 0.817768 998.884 0.817768C1140.92 0.817768 1290.26 65.5981 1449.83 188.649C1514.93 238.848 1582.49 299.349 1652.64 370.188C1658.24 363.008 1664.54 356.227 1671.58 349.948C1869.93 173.204 2036.93 63.3679 2179.77 21.0318C2264.7 -4.15839 2344.43 -6.55624 2417.04 17.8863C2493.69 43.6695 2554.76 97.0021 2597.86 171.683C2668.97 294.94 2687.71 456.897 2661.21 656.885C2650.4 738.398 2631.93 827.183 2605.82 923.393C2615.67 924.579 2625.55 926.771 2635.32 930.007C2886.98 1013.42 3065.19 1103.09 3173.08 1205.59C3237.28 1266.57 3279.19 1334.45 3294.35 1409.61C3310.34 1488.94 3294.74 1568.49 3251.71 1643.12C3180.72 1766.21 3050.21 1863.27 2864.29 1940.15C2789.64 1971.03 2705.17 1998.99 2610.79 2024.14C2615.09 2033.86 2618.44 2044.19 2620.67 2055.02C2674.39 2315.51 2685.92 2515.3 2651.2 2660.37C2630.55 2746.65 2592.79 2817.04 2535.37 2867.83C2474.77 2921.45 2398.13 2947.76 2312.02 2947.76C2169.97 2947.76 2020.65 2882.98 1861.07 2759.93C1795.28 2709.19 1726.98 2647.94 1656.01 2576.12C1648.54 2587.8 1639.5 2598.39 1629.14 2607.6C1430.79 2784.37 1263.79 2894.19 1120.95 2936.53C1036.02 2961.72 956.29 2964.12 883.684 2939.68C807.031 2913.9 745.963 2860.56 702.866 2785.88C631.756 2662.63 613.012 2500.67 639.517 2300.68C650.72 2216.23 670.148 2123.95 697.761 2023.71C686.755 2022.59 675.904 2020.27 665.403 2016.78C413.746 1933.37 235.533 1843.7 127.643 1741.2C63.4426 1680.22 21.5319 1612.33 6.37139 1537.18C-9.61421 1457.85 5.98464 1378.29 49.0168 1303.66C119.998 1180.58 250.513 1083.51 436.436 1006.63C513.308 974.831 600.597 946.134 698.393 920.402C694.853 911.726 692.121 902.741 690.233 893.562Z" fill="#002B3B"/>
<path d="M2445.09 2080.64C2457.1 2078.51 2469.47 2081.08 2479.63 2087.83C2489.8 2094.57 2496.98 2104.97 2499.69 2116.86L2499.98 2118.3L2502.65 2132.16C2589.15 2586.93 2528.21 2814.32 2319.85 2814.32C2115.99 2814.32 1856.47 2620.29 1541.3 2232.23C1535.7 2225.33 1532.15 2217 1531.04 2208.19C1529.94 2199.37 1531.33 2190.42 1535.06 2182.36C1538.79 2174.3 1544.71 2167.44 1552.14 2162.57C1559.57 2157.7 1568.22 2155.01 1577.1 2154.81H1578.57L1595.17 2154.93C1727.8 2155.65 1856.73 2151.02 1981.97 2141.06C2129.8 2129.29 2284.18 2109.15 2445.09 2080.64ZM1014.11 1736.87L1014.91 1738.22L1023.24 1752.75C1089.97 1868.77 1159.5 1978.89 1231.82 2083.12C1317.01 2205.85 1412.79 2330.1 1519.18 2455.87C1527.07 2465.21 1531.06 2477.22 1530.32 2489.43C1529.58 2501.63 1524.16 2513.08 1515.19 2521.39L1513.99 2522.46L1503.29 2531.67C1151.26 2833.3 922.461 2893.52 816.892 2712.31C713.54 2534.96 751.016 2212.47 929.294 1744.83C932.45 1736.55 937.863 1729.31 944.92 1723.95C951.977 1718.58 960.395 1715.3 969.222 1714.47C978.049 1713.64 986.932 1715.3 994.865 1719.26C1002.8 1723.21 1009.46 1729.32 1014.11 1736.87ZM2623.72 1065.81L2625.16 1066.28L2638.41 1070.85C3072.92 1222 3238 1388.11 3133.66 1569.17C3031.61 1746.25 2734.92 1875.19 2243.61 1955.97C2234.7 1957.44 2225.56 1956.34 2217.26 1952.8C2208.96 1949.26 2201.84 1943.42 2196.74 1935.98C2191.64 1928.54 2188.76 1919.8 2188.44 1910.78C2188.13 1901.76 2190.39 1892.84 2194.97 1885.06C2265.33 1765.35 2328.72 1646.25 2385.11 1527.74C2449.05 1393.34 2509.06 1249.07 2565.14 1094.97C2569.21 1083.77 2577.35 1074.51 2587.93 1069.03C2598.52 1063.55 2610.77 1062.24 2622.27 1065.38L2623.72 1065.81ZM1088.88 989.708C1094.26 992.867 1098.96 997.054 1102.72 1002.03C1106.48 1007.01 1109.22 1012.67 1110.79 1018.71C1112.36 1024.75 1112.72 1031.03 1111.86 1037.21C1111 1043.38 1108.93 1049.33 1105.77 1054.71C1035.38 1174.41 972.004 1293.51 915.616 1412.02C851.674 1546.42 791.663 1690.68 735.585 1844.8C731.421 1856.24 723.02 1865.65 712.118 1871.07C701.216 1876.5 688.646 1877.53 677.005 1873.96L675.561 1873.48L662.309 1868.9C227.797 1717.76 62.7199 1551.64 167.065 1370.59C269.115 1193.5 565.802 1064.57 1057.11 983.791C1068.07 981.986 1079.31 984.075 1088.88 989.708ZM2483.83 245.244C2587.18 422.606 2549.71 745.103 2371.43 1212.73C2368.27 1221.02 2362.86 1228.25 2355.8 1233.62C2348.74 1238.99 2340.33 1242.27 2331.5 1243.1C2322.67 1243.93 2313.79 1242.27 2305.86 1238.31C2297.92 1234.35 2291.26 1228.25 2286.61 1220.7L2285.81 1219.35L2277.49 1204.82C2210.75 1088.79 2141.22 978.673 2068.9 874.444C1983.71 751.716 1887.93 627.467 1781.55 501.696C1773.65 492.363 1769.66 480.343 1770.4 468.14C1771.14 455.937 1776.56 444.49 1785.53 436.181L1786.73 435.111L1797.43 425.894C2149.46 124.269 2378.26 64.0519 2483.83 245.244ZM998.689 137.315C1202.56 137.315 1462.08 331.334 1777.24 719.397C1782.84 726.294 1786.39 734.624 1787.49 743.439C1788.6 752.254 1787.2 761.202 1783.47 769.265C1779.75 777.329 1773.83 784.184 1766.4 789.054C1758.97 793.923 1750.32 796.611 1741.44 796.811H1739.97L1723.37 796.708C1590.75 795.986 1461.81 800.614 1336.58 810.579C1188.74 822.349 1034.36 842.486 873.448 871.002C861.438 873.127 849.072 870.551 838.91 863.807C828.749 857.063 821.571 846.669 818.864 834.777L818.555 833.32L815.887 819.475C729.384 364.697 790.309 137.315 998.689 137.315Z" fill="#FF4154"/>
<path d="M1435.01 950.518H1842.07C1871.32 950.516 1900.05 958.234 1925.36 972.89C1950.67 987.547 1971.66 1008.62 1986.21 1033.99L2190.61 1390.13C2205.06 1415.31 2212.66 1443.83 2212.66 1472.86C2212.66 1501.89 2205.06 1530.41 2190.61 1555.59L1986.21 1911.73C1971.66 1937.1 1950.66 1958.17 1925.35 1972.83C1900.05 1987.48 1871.32 1995.2 1842.07 1995.2H1435.01C1375.47 1995.2 1320.49 1963.36 1290.85 1911.73L1086.48 1555.59C1072.03 1530.41 1064.43 1501.89 1064.43 1472.86C1064.43 1443.83 1072.03 1415.31 1086.48 1390.13L1290.87 1033.99C1305.42 1008.62 1326.42 987.547 1351.73 972.891C1377.04 958.234 1405.76 950.517 1435.01 950.518ZM1780.04 1058.01C1839.6 1058.01 1894.62 1089.89 1924.23 1141.56L2066.76 1390.21C2081.18 1415.37 2088.77 1443.86 2088.77 1472.86C2088.77 1501.86 2081.18 1530.35 2066.76 1555.51L1924.23 1804.16C1909.68 1829.55 1888.68 1850.64 1863.36 1865.31C1838.04 1879.98 1809.3 1887.7 1780.04 1887.7H1497.07C1437.51 1887.7 1382.49 1855.83 1352.87 1804.16L1210.34 1555.51C1195.92 1530.35 1188.34 1501.86 1188.34 1472.86C1188.34 1443.86 1195.92 1415.37 1210.34 1390.21L1352.87 1141.56C1367.43 1116.18 1388.42 1095.08 1413.74 1080.42C1439.05 1065.75 1467.79 1058.02 1497.05 1058.02L1780.04 1058.01ZM1713.17 1175.58H1563.94C1534.7 1175.58 1505.98 1183.29 1480.68 1197.93C1455.38 1212.58 1434.38 1233.64 1419.82 1258.99L1344.51 1390.06C1330.03 1415.25 1322.41 1443.8 1322.41 1472.86C1322.41 1501.92 1330.03 1530.47 1344.51 1555.66L1419.82 1686.75C1434.38 1712.09 1455.38 1733.15 1480.68 1747.8C1505.98 1762.44 1534.7 1770.15 1563.94 1770.15H1713.17C1772.68 1770.15 1827.65 1738.34 1857.28 1686.75L1932.6 1555.66C1947.07 1530.47 1954.69 1501.92 1954.69 1472.86C1954.69 1443.8 1947.07 1415.25 1932.6 1390.06L1857.28 1258.98C1842.72 1233.63 1821.73 1212.57 1796.43 1197.92C1771.12 1183.28 1742.4 1175.58 1713.17 1175.58ZM1648.79 1288.1C1708.24 1288.1 1763.18 1319.86 1792.83 1371.38L1803.51 1389.94C1818.03 1415.16 1825.67 1443.75 1825.67 1472.85C1825.67 1501.95 1818.03 1530.53 1803.51 1555.75L1792.83 1574.32C1778.25 1599.63 1757.27 1620.66 1731.98 1635.28C1706.69 1649.9 1678 1657.6 1648.79 1657.6H1628.32C1599.11 1657.6 1570.41 1649.9 1545.13 1635.28C1519.84 1620.66 1498.85 1599.63 1484.28 1574.32L1473.59 1555.75C1459.08 1530.53 1451.44 1501.95 1451.44 1472.85C1451.44 1443.75 1459.08 1415.16 1473.59 1389.94L1484.28 1371.38C1498.85 1346.06 1519.84 1325.04 1545.13 1310.42C1570.41 1295.8 1599.11 1288.1 1628.32 1288.1H1648.79ZM1638.58 1398.95C1625.6 1398.95 1612.84 1402.36 1601.59 1408.84C1590.35 1415.33 1581 1424.66 1574.51 1435.9C1568.02 1447.13 1564.6 1459.88 1564.6 1472.85C1564.6 1485.82 1568.02 1498.56 1574.51 1509.79C1581 1521.04 1590.34 1530.37 1601.58 1536.86C1612.82 1543.35 1625.58 1546.76 1638.56 1546.76C1651.54 1546.76 1664.29 1543.35 1675.54 1536.86C1686.78 1530.37 1696.12 1521.04 1702.61 1509.79C1709.1 1498.56 1712.52 1485.82 1712.52 1472.85C1712.52 1459.88 1709.1 1447.13 1702.61 1435.9C1696.12 1424.66 1686.78 1415.34 1675.54 1408.85C1664.3 1402.36 1651.55 1398.95 1638.58 1398.95ZM1039 1472.85H1172.04Z" fill="#FFD94C"/>
</g>
<defs>
<clipPath id="clip0_520_10">
<rect width="3300.25" height="2965.07" fill="white" transform="translate(0.234375 0.792725)"/>
</clipPath>
</defs>
</svg>
