<svg width="4246" height="881" viewBox="0 0 4246 881" fill="none" xmlns="http://www.w3.org/2000/svg">
<path d="M813.988 286.155C803.462 282.544 792.846 279.198 782.152 276.122C783.948 268.781 785.602 261.529 787.07 254.404C811.171 137.411 795.415 43.1582 741.599 12.1257C690.001 -17.624 605.616 13.3969 520.393 87.5664C511.994 94.8892 503.781 102.423 495.762 110.161C490.394 105.015 484.932 99.97 479.377 95.027C390.058 15.7227 300.531 -17.7013 246.773 13.42C195.221 43.2625 179.956 131.866 201.654 242.744C203.812 253.725 206.25 264.65 208.963 275.507C196.291 279.108 184.063 282.941 172.36 287.021C67.6407 323.532 0.765625 380.748 0.765625 440.097C0.765625 501.393 72.559 562.874 181.628 600.154C190.471 603.164 199.387 605.953 208.368 608.519C205.452 620.213 202.862 631.986 200.603 643.824C179.917 752.778 196.071 839.288 247.484 868.941C300.585 899.564 389.71 868.091 476.491 792.229C483.528 786.062 490.41 779.719 497.13 773.209C505.814 781.587 514.729 789.722 523.866 797.603C607.93 869.938 690.951 899.147 742.314 869.412C795.365 838.701 812.608 745.765 790.223 632.697C788.459 623.839 786.482 615.025 784.292 606.262C790.551 604.408 796.694 602.499 802.683 600.513C916.072 562.948 989.847 502.212 989.847 440.097C989.847 380.532 920.812 322.929 813.988 286.155ZM789.396 560.409C783.987 562.198 778.439 563.925 772.782 565.606C760.264 525.977 743.373 483.84 722.699 440.301C742.426 397.802 758.669 356.202 770.835 316.832C780.954 319.761 790.771 322.848 800.237 326.105C891.766 357.617 947.595 404.2 947.595 440.097C947.595 478.331 887.3 527.967 789.396 560.409ZM748.774 640.903C758.673 690.898 760.083 736.103 753.526 771.443C747.638 803.198 735.792 824.367 721.142 832.847C689.974 850.89 623.315 827.438 551.425 765.574C542.927 758.246 534.633 750.684 526.555 742.895C554.427 712.415 582.28 676.982 609.464 637.627C657.28 633.385 702.453 626.446 743.419 616.976C745.393 624.909 747.178 632.887 748.774 640.903ZM337.965 829.729C307.512 840.482 283.257 840.791 268.594 832.337C237.396 814.344 224.426 744.881 242.117 651.706C244.22 640.696 246.628 629.746 249.338 618.869C289.852 627.833 334.697 634.277 382.625 638.164C409.994 676.673 438.651 712.067 467.531 743.061C461.393 749 455.111 754.787 448.688 760.416C410.311 793.96 371.857 817.76 337.965 829.729ZM195.298 560.174C147.069 543.688 107.239 522.264 79.9385 498.885C55.4047 477.879 43.0218 457.019 43.0218 440.097C43.0218 404.08 96.7143 358.142 186.269 326.92C197.137 323.134 208.511 319.56 220.315 316.207C232.694 356.465 248.929 398.559 268.521 441.124C248.674 484.319 232.207 527.086 219.708 567.82C211.51 565.471 203.371 562.922 195.298 560.174ZM243.122 234.627C224.534 139.632 236.878 67.9741 267.945 49.989C301.033 30.8333 374.202 58.1451 451.323 126.624C456.352 131.099 461.3 135.665 466.163 140.32C437.426 171.179 409.032 206.31 381.906 244.591C335.388 248.903 290.86 255.826 249.921 265.103C247.399 255.004 245.132 244.84 243.122 234.627ZM669.767 339.983C660.098 323.28 650.069 306.788 639.689 290.517C671.247 294.509 701.484 299.806 729.877 306.281C721.354 333.604 710.729 362.168 698.223 391.454C689.081 374.109 679.594 356.949 669.767 339.983ZM495.782 170.522C515.27 191.636 534.789 215.208 553.987 240.785C515.042 238.946 476.032 238.938 437.086 240.762C456.303 215.421 475.988 191.88 495.782 170.522ZM320.679 340.269C310.975 357.098 301.665 374.152 292.757 391.415C280.455 362.234 269.927 333.539 261.331 305.829C289.55 299.516 319.644 294.354 351.001 290.436C340.505 306.806 330.395 323.424 320.679 340.269ZM351.901 592.763C319.505 589.147 288.959 584.252 260.747 578.108C269.479 549.904 280.239 520.599 292.807 490.791C301.751 508.068 311.1 525.131 320.846 541.968C330.868 559.277 341.245 576.231 351.901 592.763ZM496.948 712.651C476.92 691.045 456.945 667.141 437.437 641.433C456.377 642.175 475.683 642.553 495.306 642.553C515.467 642.553 535.395 642.101 555.011 641.228C535.751 667.4 516.305 691.339 496.948 712.651ZM698.621 489.269C711.842 519.405 722.984 548.556 731.832 576.277C703.156 582.822 672.194 588.092 639.569 592.006C650.023 575.433 660.147 558.654 669.933 541.679C679.884 524.424 689.448 506.949 698.621 489.269ZM633.334 520.568C618.351 546.594 602.527 572.127 585.885 597.125C555.739 599.26 525.527 600.321 495.306 600.305C464.525 600.305 434.586 599.347 405.756 597.477C388.68 572.536 372.553 546.959 357.411 520.8C342.34 494.779 328.266 468.195 315.212 441.105C328.233 414.009 342.267 387.413 357.287 361.372L357.283 361.376C372.297 335.328 388.295 309.86 405.242 285.027C434.656 282.802 464.819 281.643 495.303 281.643C525.925 281.643 556.131 282.813 585.537 285.054C602.313 309.85 618.209 335.231 633.194 361.148C648.264 387.131 662.485 413.598 675.833 440.506C662.622 467.689 648.446 494.394 633.334 520.568ZM720.496 48.7295C753.615 67.8311 766.496 144.86 745.687 245.874C744.358 252.318 742.867 258.882 741.244 265.539C700.205 256.066 655.646 249.022 608.993 244.645C581.816 205.943 553.655 170.757 525.385 140.297C532.794 133.155 540.379 126.198 548.133 119.433C621.156 55.8887 689.402 30.7985 720.496 48.7295Z" fill="#EA1E63"/>
<path d="M565.391 379.964C546.739 362.759 518.999 365.854 501.879 384.974L495.174 392.453L488.469 384.974C471.383 365.854 443.609 362.759 424.957 379.964C403.583 399.711 402.46 435.152 421.588 456.557L487.448 530.166C491.702 534.919 498.612 534.919 502.866 530.166L568.726 456.557C587.889 435.152 586.765 399.711 565.391 379.964Z" fill="#EA1E63"/>
<path d="M4057.47 637.614L4057.47 637.617L4057.48 637.62C4076.29 646.185 4099.66 650.43 4127.54 650.43C4151.27 650.43 4171.87 646.063 4189.28 637.269C4206.64 628.504 4220.11 617.078 4229.66 602.97C4239.19 588.875 4243.98 573.852 4243.98 557.93C4243.98 537.42 4237.26 520.449 4223.78 507.142C4210.6 493.926 4191.61 483.322 4166.94 475.262L4110.1 454.471L4110.06 454.456L4110.01 454.443C4093.17 449.386 4080.69 442.973 4072.44 435.283C4064.24 427.632 4060.2 418.703 4060.2 408.43C4060.2 397.484 4065.31 387.471 4075.84 378.365L4075.85 378.362C4086.47 369.135 4101.24 364.43 4120.36 364.43C4140.37 364.43 4155.6 367.984 4166.23 374.912L4166.24 374.917L4166.25 374.923C4176.83 381.602 4182.98 391.487 4184.72 404.726L4184.89 406.03H4186.21H4232.31H4233.86L4233.8 404.479C4232.99 380.613 4222.69 360.716 4203.01 344.862C4183.3 328.974 4155.68 321.13 4120.36 321.13C4087.01 321.13 4059.93 328.766 4039.24 344.177C4018.51 359.624 4008.11 380.217 4008.11 405.83C4008.11 426.328 4014.62 444.018 4027.64 458.821L4027.65 458.829L4027.66 458.838C4040.84 473.375 4059.64 484.758 4083.95 493.047C4083.95 493.048 4083.95 493.049 4083.96 493.05L4139.62 512.546L4139.66 512.559L4139.7 512.571C4157.58 517.749 4170.41 523.744 4178.36 530.474C4186.15 537.083 4190.1 546.172 4190.1 557.93C4190.1 567.108 4187.13 575.333 4181.16 582.657C4175.15 590.022 4167.08 595.843 4156.9 600.096C4146.72 604.345 4135.55 606.48 4123.35 606.48C4100 606.48 4081.69 601.645 4068.26 592.138C4055.12 582.486 4048.01 568.102 4047.03 548.754L4046.95 547.33H4045.53H4000.63H3999.08L3999.13 548.876C3999.74 568.619 4004.89 586.218 4014.63 601.631L4014.63 601.639C4024.39 616.863 4038.69 628.846 4057.47 637.614Z" fill="#EA1E63" stroke="#EA1E63" stroke-width="3"/>
<path d="M3865.32 641.13V642.63H3866.82H3912.92H3914.42V641.13V458.48C3914.42 430.381 3910.11 406.015 3901.43 385.423C3892.75 364.828 3880.21 348.983 3863.78 337.965C3847.53 326.719 3827.96 321.13 3805.16 321.13C3780.72 321.13 3759.82 328.048 3742.56 341.935C3729.15 352.682 3718.3 367.218 3709.97 385.488L3704.89 330.292L3704.76 328.93H3703.39H3663.29H3661.79V330.43V641.13V642.63H3663.29H3709.98H3711.48V641.13V495.73V494.23C3711.48 468.136 3714.86 445.783 3721.57 427.138L3721.57 427.133C3728.28 408.261 3737.83 393.892 3750.13 383.92C3762.42 373.967 3776.95 368.98 3793.79 368.98C3815.95 368.98 3833.26 376.623 3845.92 391.839L3845.92 391.847L3845.93 391.855C3858.78 406.865 3865.32 428.992 3865.32 458.48V641.13Z" fill="#EA1E63" stroke="#EA1E63" stroke-width="3"/>
<path d="M3369.83 631.68L3369.84 631.684C3390.25 644.191 3413.47 650.43 3439.47 650.43C3465.26 650.43 3488.28 644.191 3508.5 631.684C3528.93 619.161 3544.88 600.615 3556.36 576.122C3568.05 551.601 3573.87 521.466 3573.87 485.78C3573.87 449.881 3568.06 419.745 3556.36 395.436C3544.88 370.945 3528.93 352.4 3508.5 339.878C3488.29 327.369 3465.26 321.13 3439.47 321.13C3413.47 321.13 3390.25 327.369 3369.84 339.876L3369.83 339.879C3349.6 352.401 3333.66 370.945 3321.98 395.431C3310.28 419.741 3304.47 449.878 3304.47 485.78C3304.47 521.468 3310.28 551.603 3321.98 576.126C3333.65 600.613 3349.6 619.158 3369.83 631.68ZM3513.49 548.62L3513.49 548.627L3513.49 548.634C3506.99 566.174 3497.37 579.677 3484.67 589.226C3471.99 598.539 3456.56 603.23 3438.27 603.23C3410.98 603.23 3390.42 592.824 3376.36 572.046C3362.41 550.926 3355.36 522.218 3355.36 485.78C3355.36 461.208 3358.64 440.162 3365.14 422.605C3371.85 404.836 3381.47 391.336 3393.97 382.007L3393.97 382.004C3406.64 372.479 3422.18 367.68 3440.66 367.68C3468.15 367.68 3488.71 378.193 3502.57 399.182L3502.57 399.187C3516.52 420.086 3523.57 448.899 3523.57 485.78C3523.57 510.13 3520.2 531.065 3513.49 548.62Z" fill="#EA1E63" stroke="#EA1E63" stroke-width="3"/>
<path d="M3062.6 630.02L3062.61 630.024C3082.8 643.616 3104.54 650.43 3127.8 650.43C3151.35 650.43 3171.87 645.51 3189.3 635.612C3206.89 625.73 3220.46 612.208 3229.98 595.058C3239.5 577.909 3244.24 558.37 3244.24 536.48V534.98H3242.74H3194.85H3193.35V536.48C3193.35 557.214 3187.64 573.267 3176.41 584.834C3165.41 596.152 3149.09 601.93 3127.2 601.93C3111.77 601.93 3098.03 597.168 3085.92 587.627C3073.79 578.068 3064.16 564.651 3057.05 547.296C3050.16 529.745 3046.68 509.034 3046.68 485.13C3046.68 459.268 3050.56 437.827 3058.23 420.744L3058.23 420.738C3065.93 403.371 3075.85 390.506 3087.95 382.033L3087.96 382.03C3100.3 373.309 3113.37 368.98 3127.2 368.98C3143.61 368.98 3157.41 374.165 3168.69 384.51L3168.7 384.52L3168.71 384.529C3180.23 394.703 3188.47 408.624 3193.4 426.381L3193.74 427.592L3194.99 427.473L3242.88 422.923L3244.58 422.761L3244.2 421.093C3241.18 407.965 3236.44 395.491 3229.99 383.675C3223.73 371.622 3215.76 360.88 3206.07 351.455C3196.35 341.999 3184.91 334.637 3171.77 329.368C3158.79 323.865 3144.12 321.13 3127.8 321.13C3104.55 321.13 3082.82 327.609 3062.63 340.542L3062.63 340.546C3042.62 353.495 3026.48 372.239 3014.21 396.707C3001.91 421.23 2995.79 450.722 2995.79 485.13C2995.79 518.678 3001.91 547.841 3014.21 572.573C3026.48 597.253 3042.6 616.422 3062.6 630.02Z" fill="#EA1E63" stroke="#EA1E63" stroke-width="3"/>
<path d="M2857.94 641.13V642.63H2859.44H2906.14H2907.64V641.13V232.93V231.43H2906.14H2859.44H2857.94V232.93V641.13Z" fill="#EA1E63" stroke="#EA1E63" stroke-width="3"/>
<path d="M2498.29 242.479H2496.79V243.979V328.929H2452.2H2450.7V330.429V365.529V367.029H2452.2H2496.79V561.179C2496.79 580.856 2500.41 597.374 2507.75 610.655C2515.07 623.895 2525.05 633.862 2537.7 640.507C2550.31 647.133 2564.53 650.429 2580.31 650.429C2591.22 650.429 2601.75 648.893 2611.87 645.815C2622.12 642.76 2632.36 638.833 2642.6 634.038L2643.65 633.548L2643.44 632.412L2636.86 596.012L2636.53 594.193L2634.81 594.89C2625.28 598.771 2616.67 601.671 2608.97 603.599L2608.97 603.602C2601.51 605.519 2593.75 606.479 2585.69 606.479C2572.22 606.479 2562.37 602.568 2555.85 594.977C2549.29 587.343 2545.89 575.733 2545.89 559.879V367.029H2634.78H2636.28V365.529V330.429V328.929H2634.78H2545.89V243.979V242.479H2544.39H2498.29Z" fill="#EA1E63" stroke="#EA1E63" stroke-width="3"/>
<path d="M2219 630.02L2219.01 630.024C2239.2 643.616 2260.94 650.43 2284.2 650.43C2307.76 650.43 2328.28 645.51 2345.7 635.612C2363.29 625.73 2376.87 612.208 2386.38 595.058C2395.9 577.909 2400.64 558.37 2400.64 536.48V534.98H2399.14H2351.25H2349.75V536.48C2349.75 557.214 2344.05 573.267 2332.81 584.834C2321.81 596.152 2305.5 601.93 2283.6 601.93C2268.17 601.93 2254.43 597.168 2242.33 587.627C2230.2 578.068 2220.56 564.651 2213.46 547.296C2206.56 529.745 2203.09 509.034 2203.09 485.13C2203.09 459.268 2206.96 437.827 2214.63 420.744L2214.63 420.738C2222.33 403.371 2232.26 390.506 2244.35 382.033L2244.36 382.03C2256.7 373.309 2269.77 368.98 2283.6 368.98C2300.02 368.98 2313.81 374.165 2325.09 384.51L2325.1 384.52L2325.11 384.529C2336.63 394.703 2344.88 408.624 2349.8 426.381L2350.14 427.592L2351.39 427.473L2399.28 422.923L2400.99 422.761L2400.6 421.093C2397.58 407.965 2392.84 395.491 2386.4 383.675C2380.14 371.622 2372.16 360.88 2362.47 351.455C2352.75 341.999 2341.31 334.637 2328.17 329.368C2315.19 323.865 2300.53 321.13 2284.2 321.13C2260.96 321.13 2239.23 327.609 2219.04 340.542L2219.03 340.546C2199.02 353.495 2182.89 372.239 2170.61 396.707C2158.31 421.23 2152.2 450.722 2152.2 485.13C2152.2 518.678 2158.32 547.841 2170.61 572.573C2182.88 597.253 2199.01 616.422 2219 630.02Z" fill="#EA1E63" stroke="#EA1E63" stroke-width="3"/>
<path d="M2029.61 641.261L2029.73 642.63H2031.11H2071.81H2073.31V641.13V440.93C2073.31 412.827 2068.5 389.911 2058.76 372.283C2049.04 354.475 2035.54 341.46 2018.28 333.299C2001.08 325.173 1981.4 321.13 1959.27 321.13C1936.19 321.13 1915.56 324.289 1897.42 330.637C1879.4 336.793 1865.17 346.93 1854.8 361.063C1844.37 375.044 1839.24 393.48 1839.24 416.23V417.73H1840.74H1892.82H1894.32V416.23C1894.32 403.671 1897.16 393.605 1902.71 385.91C1908.52 377.923 1916.26 372.03 1925.99 368.229C1935.97 364.404 1947.06 362.48 1959.27 362.48C1980.94 362.48 1996.93 368.568 2007.53 380.501L2007.54 380.511C2018.14 392.23 2023.62 411.809 2023.62 439.63V478.771C2011.15 474.214 1998.38 470.537 1985.32 467.738C1970.26 464.467 1955.19 462.83 1940.11 462.83C1919.01 462.83 1899.98 465.993 1883.02 472.347C1866.01 478.506 1852.49 488.316 1842.52 501.788L1842.52 501.794L1842.52 501.8C1832.7 515.337 1827.86 532.788 1827.86 554.03C1827.86 570.31 1831.71 585.823 1839.41 600.549C1847.13 615.336 1858.81 627.342 1874.39 636.571C1890.05 645.845 1909.79 650.43 1933.53 650.43C1955.14 650.43 1973.81 644.941 1989.47 633.906C2004.99 622.964 2016.89 608.534 2025.17 590.65L2029.61 641.261ZM2023.62 530.43V531.93C2023.62 543.521 2020.03 555.168 2012.77 566.89L2012.76 566.898L2012.76 566.905C2005.7 578.609 1996 588.411 1983.61 596.312C1971.49 603.951 1957.81 607.78 1942.51 607.78C1920.57 607.78 1904.89 602.415 1895.11 592.009C1885.4 581.462 1880.55 568.83 1880.55 554.03C1880.55 533.777 1887.01 519.831 1899.62 511.742L1899.62 511.738L1899.63 511.733C1912.51 503.259 1928.37 498.98 1947.3 498.98C1959.75 498.98 1973.42 500.482 1988.3 503.5L1988.31 503.501C2001.27 506.093 2013.04 509.478 2023.62 513.648V530.43Z" fill="#EA1E63" stroke="#EA1E63" stroke-width="3"/>
<path d="M1578.45 629.674L1578.46 629.68L1578.47 629.685C1598.28 643.518 1620.74 650.43 1645.77 650.43C1666.53 650.43 1685.22 646.381 1701.81 638.252C1718.39 630.127 1732.06 618.59 1742.78 603.655L1742.78 603.646C1753.51 588.478 1760.37 570.481 1763.4 549.696L1763.65 547.98H1761.91H1713.42H1712.11L1711.94 549.278C1709.38 568.064 1702.23 582.088 1690.62 591.542C1678.97 601.032 1664.06 605.83 1645.77 605.83C1627.5 605.83 1612.49 600.929 1600.63 591.219C1588.7 581.451 1579.66 568.152 1573.56 551.253C1567.83 534.89 1564.86 516.389 1564.67 495.73H1761.31H1762.71L1762.81 494.339C1764.41 472.338 1763.31 451.087 1759.5 430.589C1755.88 409.855 1749.34 391.271 1739.86 374.855C1730.37 358.399 1717.82 345.324 1702.24 335.655C1686.59 325.947 1667.75 321.13 1645.77 321.13C1620.55 321.13 1598.01 327.818 1578.19 341.211C1558.57 354.388 1543.14 373.362 1531.87 398.057C1520.58 422.78 1514.97 452.253 1514.97 486.43C1514.97 518.456 1520.59 546.841 1531.87 571.553L1531.87 571.562C1543.34 596.248 1558.86 615.638 1578.45 629.674ZM1715.41 461.53H1565.03C1566 446.67 1568.95 432.723 1573.85 419.682L1573.85 419.676C1579.95 403.213 1589.09 390.01 1601.23 380.013C1613.3 370.082 1628.31 365.08 1646.37 365.08C1660.72 365.08 1672.37 368.279 1681.44 374.563C1690.59 380.906 1697.71 389.367 1702.79 399.978L1702.79 399.988C1707.91 410.451 1711.36 421.997 1713.13 434.639L1713.14 434.65L1713.14 434.661C1714.54 443.618 1715.29 452.575 1715.41 461.53Z" fill="#EA1E63" stroke="#EA1E63" stroke-width="3"/>
<path d="M1178.35 641.13V642.63H1179.85H1226.54H1228.04V641.13V475.58H1292.54L1389.27 641.884L1389.71 642.63H1390.57H1451.03H1453.76L1452.3 640.327L1346.14 472.725C1372.41 468.111 1393.5 457.894 1409.29 441.987L1409.29 441.986C1431.76 419.349 1442.96 389.917 1442.96 353.83C1442.96 317.318 1431.77 287.773 1409.29 265.348C1386.97 242.655 1354.1 231.43 1310.95 231.43H1179.85H1178.35V232.93V641.13ZM1371.23 299.295L1371.24 299.302C1385.08 313.48 1392.06 332.681 1392.06 357.08C1392.06 380.796 1384.8 400.01 1370.34 414.858C1356.14 429.428 1335.24 436.83 1307.36 436.83H1228.04V277.98H1310.95C1337.62 277.98 1357.63 285.161 1371.23 299.295Z" fill="#EA1E63" stroke="#EA1E63" stroke-width="3"/>
</svg>
