<svg width="2487" height="881" viewBox="0 0 2487 881" fill="none" xmlns="http://www.w3.org/2000/svg">
<path d="M189.523 0.963379C230.614 0.963379 263.898 34.2425 263.898 75.3279C263.898 105.961 245.338 132.279 218.831 143.692L218.025 144.032V175.364C218.025 205.604 240.503 231.349 270.408 235.553L271.316 235.674L280.297 236.849C328.893 242.995 366.565 277.935 376.226 325.948C385.887 373.966 364.808 420.809 322.353 445.403C303.469 456.308 282.49 463.09 260.796 465.303L259.698 465.409L124.727 478.1C111.065 479.36 97.8435 483.59 85.9869 490.494C61.4899 504.645 56.7032 529.137 60.4122 547.294C64.0872 565.261 77.8018 585.719 105.25 589.535L115.067 590.816C174.197 598.162 218.885 648.262 219.773 707.689L219.783 709.49V738.575C245.843 750.09 264.092 776.247 264.092 806.599C264.092 847.684 230.813 880.963 189.727 880.963C148.637 880.963 115.358 847.684 115.358 806.599C115.358 776.063 133.82 749.745 160.23 738.332L161.031 737.992V709.495C161.031 679.25 138.554 653.505 108.654 649.296L107.746 649.18L98.7645 648.01C50.1687 641.859 12.4961 606.919 2.83524 558.906C-6.92274 510.893 14.2535 464.045 56.7032 439.451C75.5887 428.545 96.57 421.763 118.266 419.552L119.358 419.445L254.334 406.759C267.996 405.498 281.218 401.266 293.075 394.361C317.571 380.214 322.353 355.717 318.644 337.56C314.974 319.593 301.264 299.135 273.811 295.319L263.995 294.038C204.864 286.693 160.177 236.597 159.288 177.165L159.279 175.364V143.255C133.315 131.643 115.164 105.583 115.164 75.3279C115.159 34.2425 148.438 0.963379 189.523 0.963379ZM278.923 498.591L320.596 544.265C351.608 578.374 368.852 622.328 369.192 668.283V669.676H310.352C310.37 638.273 298.778 607.972 277.806 584.597L277.17 583.889L206.316 506.204L262.922 500.839L264.708 500.64C268.951 500.155 273.185 499.601 277.36 498.873L278.923 498.591ZM63.5338 212.94C63.5162 244.341 75.1058 274.64 96.0749 298.014L96.7158 298.723L167.76 376.602L115.45 381.573L113.897 381.719C108.211 382.26 102.556 383.086 96.9537 384.195L95.4487 384.501L53.3826 338.337C22.4187 304.425 5.10739 260.249 4.78684 214.328L4.78199 212.935L63.5338 212.94ZM879.219 232.747L880.369 232.766L881.534 232.791C900.88 233.344 935.014 238.665 962.759 266.123C981.789 284.862 993.601 311.214 996.232 340.298C998.674 368.014 992.625 395.535 979.056 417.785C955.967 455.947 917.663 469.342 901.749 473.39L899.725 473.905L937.286 521.336C969.885 556.659 987.741 602.434 987.741 650.058V669.574H931.232V650.058C931.232 616.289 918.45 583.986 895.127 559.003L894.346 558.227L840.866 490.785L844.77 487.692C826.205 492.256 807.937 496.834 790.028 501.334L769.521 506.5C745.126 512.646 720.139 518.991 694.375 525.336L693.793 669.574L637.187 669.38L638.26 308.869C638.357 267.492 672.514 233.917 714.479 233.917H714.77C737.912 234.16 760.453 233.868 782.445 233.543L811.738 233.106C833.536 232.786 855.965 232.509 879.219 232.747ZM817.787 289.63L777.765 290.222C757.229 290.513 736.111 290.746 714.381 290.523C703.653 290.62 694.963 298.917 694.866 309.068L694.38 466.973L702.672 464.904L711.605 462.666C726.46 458.943 741.092 455.244 755.472 451.646L763.21 449.685C790.377 442.791 818.428 435.762 847.207 428.81L888.146 418.455L888.714 418.309C898.239 415.75 918.581 408.08 930.455 388.506C945.777 363.232 942.262 325.657 922.746 306.335C907.672 291.455 887.151 289.489 878.689 289.358L878.437 289.353C860.387 289.159 842.619 289.304 825.22 289.528L817.787 289.63ZM1392.66 659.719H1195.03C1126.91 659.719 1071.48 604.288 1071.48 536.167V355.032C1071.48 286.911 1126.91 231.48 1195.03 231.48H1300.72C1368.85 231.48 1424.28 286.911 1424.28 355.032V383.53C1424.28 435.936 1381.63 478.585 1329.22 478.585H1128.09V536.264C1128.09 573.155 1158.15 603.21 1195.03 603.21H1392.66L1392.66 659.719ZM1128.08 421.984H1329.32C1350.5 421.984 1367.77 404.706 1367.77 383.535V355.032C1367.77 318.141 1337.72 288.086 1300.82 288.086H1195.03C1158.14 288.086 1128.09 318.141 1128.09 355.032L1128.08 421.984ZM1705.74 664.404H1600.04C1531.93 664.404 1476.49 608.973 1476.49 540.852V359.62C1476.49 291.499 1531.93 236.068 1600.04 236.068H1705.74C1773.86 236.068 1829.29 291.499 1829.29 359.62V387.923H1772.69V359.62C1772.69 322.729 1742.63 292.674 1705.74 292.674H1600.04C1563.16 292.674 1533.1 322.729 1533.1 359.62V540.847C1533.1 577.743 1563.16 607.798 1600.04 607.798H1705.74C1742.63 607.798 1772.69 577.743 1772.69 540.852V512.549H1829.29V540.852C1829.29 608.973 1773.86 664.404 1705.74 664.404ZM2119.73 659.719H2014.04C1945.92 659.719 1890.49 604.288 1890.49 536.167V355.032C1890.49 286.911 1945.92 231.48 2014.04 231.48H2119.73C2187.85 231.48 2243.28 286.911 2243.28 355.032V536.264C2243.19 604.385 2187.85 659.719 2119.73 659.719ZM2014.04 288.081C1977.14 288.081 1947.09 318.141 1947.09 355.032V536.264C1947.09 573.155 1977.14 603.21 2014.04 603.21H2119.73C2156.62 603.21 2186.68 573.155 2186.68 536.264V355.032C2186.68 318.141 2156.62 288.086 2119.73 288.086L2014.04 288.081ZM2307.01 267.099H2363.62V652.792H2307.01V267.099ZM2307.01 146.183H2363.62V199.177H2307.01V146.183ZM2429.49 144.328H2486.1V652.889H2429.49L2429.49 144.328Z" fill="#1C1E21"/>
</svg>
