<svg width="4366" height="881" viewBox="0 0 4366 881" fill="none" xmlns="http://www.w3.org/2000/svg">
<path d="M3662.92 0.689831V141.017H3361.32V879.283H3210.51V141.025H2902.62V0.689831H3662.92ZM3696.82 795.59C3707.45 795.59 3716.74 799.409 3724.61 807.065C3732.59 814.712 3736.56 823.877 3736.67 834.551C3736.65 841.555 3734.7 848.418 3731.04 854.389C3727.45 860.283 3722.43 865.167 3716.43 868.584C3710.51 872.124 3703.72 873.97 3696.82 873.921C3685.77 873.921 3676.38 870.093 3668.52 862.446C3660.65 854.79 3656.75 845.523 3656.86 834.551C3656.76 823.877 3660.65 814.712 3668.52 807.065C3676.38 799.409 3685.77 795.59 3696.82 795.59ZM707.814 879.283L151.742 188.119V878.925H0.928711V0.323242H189.432L891.969 872.71L891.977 141.025L891.918 0.689831H1652.21V141.017H1042.78V366.767H1532.89V507.102H1042.78V738.956H1652.21V879.283H707.814ZM2135.54 505.764L2234.37 628.639L2031.85 880.323H1833.94L2135.54 505.764ZM2031.85 1.05642L2287.02 317.942L2541.38 2.02831L2738.74 1.72992L2385.83 440.656L2739.31 879.65H2541.38L1834.5 1.05642H2031.85ZM3954.21 503.794H4021.03V761.259C4020.94 784.916 4015.81 805.147 4005.81 822.172C3995.69 839.18 3981.69 852.173 3963.72 861.337C3945.83 870.391 3924.88 875.029 3901.07 875.029C3879.31 875.029 3859.8 871.107 3842.43 863.452C3825.05 855.796 3811.27 844.321 3801.15 829.214C3790.92 814.116 3785.91 795.283 3785.91 772.734H3852.85C3852.96 782.598 3855.2 791.148 3859.49 798.31C3863.71 805.377 3869.88 811.073 3877.27 814.712C3884.93 818.549 3893.72 820.458 3903.62 820.458C3914.36 820.458 3923.55 818.242 3931.01 813.706C3938.46 809.273 3944.19 802.632 3948.18 793.774C3952.06 785.01 3954.11 774.14 3954.21 761.25V503.794ZM4295.99 604.478C4294.37 588.877 4287.21 576.686 4274.75 568.032C4262.17 559.268 4245.93 554.946 4226 554.946C4212.02 554.946 4199.95 557.06 4189.94 561.187C4179.93 565.415 4172.16 571.05 4166.84 578.203C4161.54 585.347 4158.88 593.506 4158.66 602.671C4158.66 610.318 4160.51 616.968 4164.08 622.501C4167.79 628.302 4172.79 633.163 4178.69 636.704C4185.11 640.737 4191.97 644.012 4199.13 646.465C4206.69 649.083 4214.26 651.299 4221.81 653.115L4256.65 661.674C4270.66 664.897 4284.25 669.219 4297.23 674.761C4310.19 680.2 4321.95 687.148 4332.27 695.503C4342.59 703.858 4350.77 713.926 4356.79 725.708C4362.82 737.49 4365.89 751.284 4365.89 767.192C4365.89 788.634 4360.37 807.466 4349.23 823.775C4338.1 839.99 4322.05 852.676 4301 861.84C4280.06 870.903 4254.71 875.532 4224.88 875.532C4196.07 875.532 4170.93 871.099 4149.77 862.241C4128.53 853.486 4111.97 840.587 4100.01 823.673C4088.06 806.758 4081.62 786.118 4080.7 761.855H4146.93C4147.84 774.541 4151.93 785.113 4158.88 793.672C4165.92 802.129 4175.12 808.37 4186.36 812.598C4197.7 816.733 4210.37 818.847 4224.37 818.847C4238.98 818.847 4251.85 816.631 4262.99 812.3C4274.03 807.969 4282.71 801.933 4288.95 794.073C4295.28 786.315 4298.45 777.158 4298.56 766.689C4298.45 757.124 4295.58 749.17 4290.07 742.921C4284.45 736.68 4276.68 731.446 4266.77 727.217C4256.77 722.989 4245.11 719.161 4231.83 715.844L4189.53 705.171C4158.97 697.413 4134.76 685.639 4117.08 669.825C4099.3 654.019 4090.51 633.081 4090.51 606.797C4090.51 585.254 4096.44 566.319 4108.4 550.104C4120.25 533.906 4136.5 521.314 4157.04 512.354C4177.67 503.291 4200.98 498.858 4226.92 498.858C4253.29 498.858 4276.37 503.291 4296.31 512.354C4316.22 521.314 4331.87 533.795 4343.2 549.703C4354.54 565.62 4360.48 583.838 4360.78 604.478H4295.99Z" fill="black"/>
</svg>
